<mxfile host="app.diagrams.net" modified="2021-03-25T16:28:01.660Z" agent="5.0 (Macintosh; Intel Mac OS X 10_15_5) AppleWebKit/537.36 (KHTML, like Gecko) Chrome/87.0.4280.88 Safari/537.36" etag="5oevY2HuW2DW1D75S7S3" version="14.1.3" type="github" pages="7">
  <diagram id="X9BZC4qed-5ogewkMd9z" name="Page-1">
    <mxGraphModel dx="1026" dy="461" grid="1" gridSize="10" guides="1" tooltips="1" connect="1" arrows="1" fold="1" page="1" pageScale="1" pageWidth="850" pageHeight="1100" math="0" shadow="0">
      <root>
        <mxCell id="0" />
        <mxCell id="1" parent="0" />
        <mxCell id="pw29qL8qMDZoIIBpiNC1-1" value="x&lt;sub&gt;1&lt;/sub&gt;" style="text;html=1;strokeColor=none;fillColor=none;align=center;verticalAlign=middle;whiteSpace=wrap;rounded=0;" parent="1" vertex="1">
          <mxGeometry x="160" y="180" width="40" height="20" as="geometry" />
        </mxCell>
        <mxCell id="pw29qL8qMDZoIIBpiNC1-2" value="x&lt;sub&gt;2&lt;/sub&gt;" style="text;html=1;strokeColor=none;fillColor=none;align=center;verticalAlign=middle;whiteSpace=wrap;rounded=0;" parent="1" vertex="1">
          <mxGeometry x="170" y="339.39" width="40" height="20" as="geometry" />
        </mxCell>
        <mxCell id="pw29qL8qMDZoIIBpiNC1-3" value="&lt;sub&gt;&lt;span style=&quot;font-size: 12px&quot;&gt;y&lt;/span&gt;1&lt;/sub&gt;" style="text;html=1;strokeColor=none;fillColor=none;align=center;verticalAlign=middle;whiteSpace=wrap;rounded=0;" parent="1" vertex="1">
          <mxGeometry x="490" y="180" width="40" height="20" as="geometry" />
        </mxCell>
        <mxCell id="pw29qL8qMDZoIIBpiNC1-4" value="&lt;sub&gt;&lt;span style=&quot;font-size: 12px&quot;&gt;y&lt;/span&gt;2&lt;/sub&gt;" style="text;html=1;strokeColor=none;fillColor=none;align=center;verticalAlign=middle;whiteSpace=wrap;rounded=0;" parent="1" vertex="1">
          <mxGeometry x="500" y="339.39" width="40" height="20" as="geometry" />
        </mxCell>
        <mxCell id="pw29qL8qMDZoIIBpiNC1-5" value="" style="endArrow=classic;html=1;exitX=1;exitY=0.5;exitDx=0;exitDy=0;entryX=0;entryY=0.5;entryDx=0;entryDy=0;" parent="1" source="pw29qL8qMDZoIIBpiNC1-1" target="pw29qL8qMDZoIIBpiNC1-3" edge="1">
          <mxGeometry width="50" height="50" relative="1" as="geometry">
            <mxPoint x="280" y="210" as="sourcePoint" />
            <mxPoint x="330" y="160" as="targetPoint" />
          </mxGeometry>
        </mxCell>
        <mxCell id="pw29qL8qMDZoIIBpiNC1-6" value="s" style="ellipse;whiteSpace=wrap;html=1;aspect=fixed;" parent="1" vertex="1">
          <mxGeometry x="210" y="240" width="30" height="30" as="geometry" />
        </mxCell>
        <mxCell id="pw29qL8qMDZoIIBpiNC1-7" value="" style="endArrow=classic;html=1;exitX=0.75;exitY=1;exitDx=0;exitDy=0;entryX=0;entryY=0;entryDx=0;entryDy=0;" parent="1" source="pw29qL8qMDZoIIBpiNC1-1" target="pw29qL8qMDZoIIBpiNC1-6" edge="1">
          <mxGeometry width="50" height="50" relative="1" as="geometry">
            <mxPoint x="340" y="310" as="sourcePoint" />
            <mxPoint x="390" y="260" as="targetPoint" />
          </mxGeometry>
        </mxCell>
        <mxCell id="pw29qL8qMDZoIIBpiNC1-8" value="X" style="ellipse;whiteSpace=wrap;html=1;aspect=fixed;" parent="1" vertex="1">
          <mxGeometry x="290" y="334.39" width="30" height="30" as="geometry" />
        </mxCell>
        <mxCell id="pw29qL8qMDZoIIBpiNC1-9" value="" style="endArrow=classic;html=1;entryX=0;entryY=0.5;entryDx=0;entryDy=0;" parent="1" target="pw29qL8qMDZoIIBpiNC1-8" edge="1">
          <mxGeometry width="50" height="50" relative="1" as="geometry">
            <mxPoint x="210" y="349.39" as="sourcePoint" />
            <mxPoint x="260" y="274.39" as="targetPoint" />
          </mxGeometry>
        </mxCell>
        <mxCell id="pw29qL8qMDZoIIBpiNC1-10" value="" style="endArrow=classic;html=1;entryX=0;entryY=0;entryDx=0;entryDy=0;exitX=1;exitY=1;exitDx=0;exitDy=0;" parent="1" source="pw29qL8qMDZoIIBpiNC1-6" target="pw29qL8qMDZoIIBpiNC1-18" edge="1">
          <mxGeometry width="50" height="50" relative="1" as="geometry">
            <mxPoint x="266" y="246" as="sourcePoint" />
            <mxPoint x="250" y="245" as="targetPoint" />
          </mxGeometry>
        </mxCell>
        <mxCell id="pw29qL8qMDZoIIBpiNC1-11" value="" style="endArrow=classic;html=1;exitX=1;exitY=1;exitDx=0;exitDy=0;entryX=0;entryY=0.5;entryDx=0;entryDy=0;" parent="1" source="pw29qL8qMDZoIIBpiNC1-1" target="pw29qL8qMDZoIIBpiNC1-12" edge="1">
          <mxGeometry width="50" height="50" relative="1" as="geometry">
            <mxPoint x="260" y="200" as="sourcePoint" />
            <mxPoint x="460" y="260" as="targetPoint" />
          </mxGeometry>
        </mxCell>
        <mxCell id="pw29qL8qMDZoIIBpiNC1-12" value="t" style="ellipse;whiteSpace=wrap;html=1;aspect=fixed;" parent="1" vertex="1">
          <mxGeometry x="290" y="240" width="30" height="30" as="geometry" />
        </mxCell>
        <mxCell id="pw29qL8qMDZoIIBpiNC1-14" value="+" style="ellipse;whiteSpace=wrap;html=1;aspect=fixed;" parent="1" vertex="1">
          <mxGeometry x="435" y="334.39" width="30" height="30" as="geometry" />
        </mxCell>
        <mxCell id="pw29qL8qMDZoIIBpiNC1-15" value="" style="endArrow=classic;html=1;entryX=0;entryY=0.5;entryDx=0;entryDy=0;exitX=1;exitY=0.5;exitDx=0;exitDy=0;" parent="1" source="pw29qL8qMDZoIIBpiNC1-8" target="pw29qL8qMDZoIIBpiNC1-14" edge="1">
          <mxGeometry width="50" height="50" relative="1" as="geometry">
            <mxPoint x="330" y="348.89" as="sourcePoint" />
            <mxPoint x="410" y="348.89" as="targetPoint" />
          </mxGeometry>
        </mxCell>
        <mxCell id="pw29qL8qMDZoIIBpiNC1-17" value="" style="endArrow=classic;html=1;exitX=1;exitY=0.5;exitDx=0;exitDy=0;" parent="1" source="pw29qL8qMDZoIIBpiNC1-14" target="pw29qL8qMDZoIIBpiNC1-4" edge="1">
          <mxGeometry width="50" height="50" relative="1" as="geometry">
            <mxPoint x="330" y="359.39" as="sourcePoint" />
            <mxPoint x="430" y="359.39" as="targetPoint" />
          </mxGeometry>
        </mxCell>
        <mxCell id="pw29qL8qMDZoIIBpiNC1-18" value="e" style="ellipse;whiteSpace=wrap;html=1;aspect=fixed;" parent="1" vertex="1">
          <mxGeometry x="250" y="290" width="30" height="30" as="geometry" />
        </mxCell>
        <mxCell id="pw29qL8qMDZoIIBpiNC1-19" value="" style="endArrow=classic;html=1;entryX=0;entryY=0;entryDx=0;entryDy=0;exitX=1;exitY=1;exitDx=0;exitDy=0;" parent="1" source="pw29qL8qMDZoIIBpiNC1-18" target="pw29qL8qMDZoIIBpiNC1-8" edge="1">
          <mxGeometry width="50" height="50" relative="1" as="geometry">
            <mxPoint x="285.6066017177982" y="329.99660171779817" as="sourcePoint" />
            <mxPoint x="264.3933982822018" y="313.7833982822018" as="targetPoint" />
          </mxGeometry>
        </mxCell>
        <mxCell id="pw29qL8qMDZoIIBpiNC1-20" value="e" style="ellipse;whiteSpace=wrap;html=1;aspect=fixed;" parent="1" vertex="1">
          <mxGeometry x="370" y="290" width="30" height="30" as="geometry" />
        </mxCell>
        <mxCell id="pw29qL8qMDZoIIBpiNC1-22" value="" style="endArrow=classic;html=1;entryX=0;entryY=0.5;entryDx=0;entryDy=0;exitX=1;exitY=1;exitDx=0;exitDy=0;" parent="1" source="pw29qL8qMDZoIIBpiNC1-12" target="pw29qL8qMDZoIIBpiNC1-20" edge="1">
          <mxGeometry width="50" height="50" relative="1" as="geometry">
            <mxPoint x="245.60660171779818" y="265.6066017177982" as="sourcePoint" />
            <mxPoint x="264.3933982822018" y="289.3933982822018" as="targetPoint" />
          </mxGeometry>
        </mxCell>
        <mxCell id="pw29qL8qMDZoIIBpiNC1-23" value="" style="endArrow=classic;html=1;entryX=0;entryY=0;entryDx=0;entryDy=0;exitX=1;exitY=1;exitDx=0;exitDy=0;" parent="1" source="pw29qL8qMDZoIIBpiNC1-20" target="pw29qL8qMDZoIIBpiNC1-14" edge="1">
          <mxGeometry width="50" height="50" relative="1" as="geometry">
            <mxPoint x="425.6066017177982" y="329.99660171779817" as="sourcePoint" />
            <mxPoint x="380" y="329.39" as="targetPoint" />
          </mxGeometry>
        </mxCell>
      </root>
    </mxGraphModel>
  </diagram>
  <diagram id="v7b0BRGGEYNTZQM8oP3X" name="Page-2">
    <mxGraphModel dx="1026" dy="461" grid="1" gridSize="10" guides="1" tooltips="1" connect="1" arrows="1" fold="1" page="1" pageScale="1" pageWidth="850" pageHeight="1100" math="1" shadow="0">
      <root>
        <mxCell id="bHXIeogKWyMM21nyn1ht-0" />
        <mxCell id="bHXIeogKWyMM21nyn1ht-1" parent="bHXIeogKWyMM21nyn1ht-0" />
        <mxCell id="bHXIeogKWyMM21nyn1ht-65" value="" style="rounded=1;whiteSpace=wrap;html=1;fillColor=#dae8fc;strokeColor=#6c8ebf;" parent="bHXIeogKWyMM21nyn1ht-1" vertex="1">
          <mxGeometry x="345" y="280" width="300" height="90" as="geometry" />
        </mxCell>
        <mxCell id="bHXIeogKWyMM21nyn1ht-62" value="" style="edgeStyle=orthogonalEdgeStyle;rounded=0;orthogonalLoop=1;jettySize=auto;html=1;strokeWidth=2;" parent="bHXIeogKWyMM21nyn1ht-1" source="bHXIeogKWyMM21nyn1ht-4" edge="1">
          <mxGeometry relative="1" as="geometry">
            <mxPoint x="60" y="190" as="targetPoint" />
          </mxGeometry>
        </mxCell>
        <mxCell id="bHXIeogKWyMM21nyn1ht-4" value="" style="rounded=0;whiteSpace=wrap;html=1;" parent="bHXIeogKWyMM21nyn1ht-1" vertex="1">
          <mxGeometry x="25" y="160" width="10" height="60" as="geometry" />
        </mxCell>
        <mxCell id="bHXIeogKWyMM21nyn1ht-72" value="" style="edgeStyle=orthogonalEdgeStyle;rounded=0;orthogonalLoop=1;jettySize=auto;html=1;strokeWidth=2;" parent="bHXIeogKWyMM21nyn1ht-1" source="bHXIeogKWyMM21nyn1ht-5" target="bHXIeogKWyMM21nyn1ht-70" edge="1">
          <mxGeometry relative="1" as="geometry" />
        </mxCell>
        <mxCell id="bHXIeogKWyMM21nyn1ht-5" value="" style="rounded=0;whiteSpace=wrap;html=1;fillColor=#f5f5f5;strokeColor=#666666;fontColor=#333333;" parent="bHXIeogKWyMM21nyn1ht-1" vertex="1">
          <mxGeometry x="120" y="160" width="10" height="60" as="geometry" />
        </mxCell>
        <mxCell id="bHXIeogKWyMM21nyn1ht-33" value="" style="edgeStyle=orthogonalEdgeStyle;rounded=0;orthogonalLoop=1;jettySize=auto;html=1;strokeWidth=2;" parent="bHXIeogKWyMM21nyn1ht-1" source="bHXIeogKWyMM21nyn1ht-6" target="bHXIeogKWyMM21nyn1ht-32" edge="1">
          <mxGeometry relative="1" as="geometry" />
        </mxCell>
        <mxCell id="bHXIeogKWyMM21nyn1ht-6" value="" style="rounded=0;whiteSpace=wrap;html=1;fillColor=#d5e8d4;strokeColor=#82b366;" parent="bHXIeogKWyMM21nyn1ht-1" vertex="1">
          <mxGeometry x="200" y="160" width="10" height="60" as="geometry" />
        </mxCell>
        <mxCell id="bHXIeogKWyMM21nyn1ht-31" value="" style="edgeStyle=orthogonalEdgeStyle;rounded=0;orthogonalLoop=1;jettySize=auto;html=1;strokeWidth=2;" parent="bHXIeogKWyMM21nyn1ht-1" source="bHXIeogKWyMM21nyn1ht-12" target="bHXIeogKWyMM21nyn1ht-17" edge="1">
          <mxGeometry relative="1" as="geometry" />
        </mxCell>
        <mxCell id="bHXIeogKWyMM21nyn1ht-12" value="" style="rounded=0;whiteSpace=wrap;html=1;fillColor=#d5e8d4;strokeColor=#82b366;" parent="bHXIeogKWyMM21nyn1ht-1" vertex="1">
          <mxGeometry x="320" y="290" width="10" height="60" as="geometry" />
        </mxCell>
        <mxCell id="bHXIeogKWyMM21nyn1ht-13" value="&lt;b&gt;`bb&quot;x&quot;_cc&quot;i-1&quot;`&lt;/b&gt;" style="text;html=1;strokeColor=none;fillColor=none;align=center;verticalAlign=middle;whiteSpace=wrap;rounded=0;" parent="bHXIeogKWyMM21nyn1ht-1" vertex="1">
          <mxGeometry x="305" y="350" width="40" height="20" as="geometry" />
        </mxCell>
        <mxCell id="bHXIeogKWyMM21nyn1ht-14" value="" style="endArrow=classic;html=1;strokeWidth=2;" parent="bHXIeogKWyMM21nyn1ht-1" edge="1">
          <mxGeometry width="50" height="50" relative="1" as="geometry">
            <mxPoint x="335" y="320" as="sourcePoint" />
            <mxPoint x="365" y="320" as="targetPoint" />
          </mxGeometry>
        </mxCell>
        <mxCell id="bHXIeogKWyMM21nyn1ht-18" value="" style="edgeStyle=orthogonalEdgeStyle;rounded=0;orthogonalLoop=1;jettySize=auto;html=1;strokeWidth=2;" parent="bHXIeogKWyMM21nyn1ht-1" source="bHXIeogKWyMM21nyn1ht-15" target="bHXIeogKWyMM21nyn1ht-17" edge="1">
          <mxGeometry relative="1" as="geometry" />
        </mxCell>
        <mxCell id="bHXIeogKWyMM21nyn1ht-15" value="" style="rounded=0;whiteSpace=wrap;html=1;fillColor=#1ba1e2;strokeColor=#006EAF;fontColor=#ffffff;" parent="bHXIeogKWyMM21nyn1ht-1" vertex="1">
          <mxGeometry x="360" y="290" width="10" height="60" as="geometry" />
        </mxCell>
        <mxCell id="bHXIeogKWyMM21nyn1ht-16" value="&lt;b&gt;`bb&quot;r&quot;_cc&quot;i&quot;`&lt;/b&gt;" style="text;html=1;strokeColor=none;fillColor=none;align=center;verticalAlign=middle;whiteSpace=wrap;rounded=0;" parent="bHXIeogKWyMM21nyn1ht-1" vertex="1">
          <mxGeometry x="345" y="350" width="40" height="20" as="geometry" />
        </mxCell>
        <mxCell id="bHXIeogKWyMM21nyn1ht-23" value="" style="edgeStyle=orthogonalEdgeStyle;rounded=0;orthogonalLoop=1;jettySize=auto;html=1;strokeWidth=2;" parent="bHXIeogKWyMM21nyn1ht-1" source="bHXIeogKWyMM21nyn1ht-17" target="bHXIeogKWyMM21nyn1ht-22" edge="1">
          <mxGeometry relative="1" as="geometry" />
        </mxCell>
        <mxCell id="bHXIeogKWyMM21nyn1ht-17" value="F" style="whiteSpace=wrap;html=1;rounded=1;fillColor=#fff2cc;strokeColor=#d6b656;" parent="bHXIeogKWyMM21nyn1ht-1" vertex="1">
          <mxGeometry x="395" y="300" width="45" height="40" as="geometry" />
        </mxCell>
        <mxCell id="bHXIeogKWyMM21nyn1ht-25" value="" style="edgeStyle=orthogonalEdgeStyle;rounded=0;orthogonalLoop=1;jettySize=auto;html=1;strokeWidth=2;" parent="bHXIeogKWyMM21nyn1ht-1" source="bHXIeogKWyMM21nyn1ht-22" target="bHXIeogKWyMM21nyn1ht-24" edge="1">
          <mxGeometry relative="1" as="geometry" />
        </mxCell>
        <mxCell id="bHXIeogKWyMM21nyn1ht-22" value="Soft(`\theta_i`)" style="whiteSpace=wrap;html=1;rounded=1;" parent="bHXIeogKWyMM21nyn1ht-1" vertex="1">
          <mxGeometry x="487.5" y="300" width="45" height="40" as="geometry" />
        </mxCell>
        <mxCell id="bHXIeogKWyMM21nyn1ht-30" value="" style="edgeStyle=orthogonalEdgeStyle;rounded=0;orthogonalLoop=1;jettySize=auto;html=1;strokeWidth=2;entryX=0;entryY=0.5;entryDx=0;entryDy=0;" parent="bHXIeogKWyMM21nyn1ht-1" source="bHXIeogKWyMM21nyn1ht-24" target="bHXIeogKWyMM21nyn1ht-28" edge="1">
          <mxGeometry relative="1" as="geometry" />
        </mxCell>
        <mxCell id="bHXIeogKWyMM21nyn1ht-24" value="F&lt;sup&gt;-1&lt;/sup&gt;" style="whiteSpace=wrap;html=1;rounded=1;fillColor=#fff2cc;strokeColor=#d6b656;" parent="bHXIeogKWyMM21nyn1ht-1" vertex="1">
          <mxGeometry x="570" y="300" width="45" height="40" as="geometry" />
        </mxCell>
        <mxCell id="bHXIeogKWyMM21nyn1ht-28" value="" style="rounded=0;whiteSpace=wrap;html=1;fillColor=#d5e8d4;strokeColor=#82b366;" parent="bHXIeogKWyMM21nyn1ht-1" vertex="1">
          <mxGeometry x="665" y="290" width="10" height="60" as="geometry" />
        </mxCell>
        <mxCell id="bHXIeogKWyMM21nyn1ht-29" value="&lt;b&gt;`bb&quot;x&quot;_cc&quot;i&quot;`&lt;/b&gt;" style="text;html=1;strokeColor=none;fillColor=none;align=center;verticalAlign=middle;whiteSpace=wrap;rounded=0;" parent="bHXIeogKWyMM21nyn1ht-1" vertex="1">
          <mxGeometry x="650" y="350" width="40" height="20" as="geometry" />
        </mxCell>
        <mxCell id="bHXIeogKWyMM21nyn1ht-35" value="" style="edgeStyle=orthogonalEdgeStyle;rounded=0;orthogonalLoop=1;jettySize=auto;html=1;strokeWidth=2;" parent="bHXIeogKWyMM21nyn1ht-1" source="bHXIeogKWyMM21nyn1ht-32" edge="1">
          <mxGeometry relative="1" as="geometry">
            <mxPoint x="370" y="190" as="targetPoint" />
            <Array as="points">
              <mxPoint x="370" y="190" />
              <mxPoint x="370" y="190" />
            </Array>
          </mxGeometry>
        </mxCell>
        <mxCell id="bHXIeogKWyMM21nyn1ht-32" value="Phase&amp;nbsp; 1" style="whiteSpace=wrap;html=1;rounded=1;fillColor=#dae8fc;strokeColor=#6c8ebf;" parent="bHXIeogKWyMM21nyn1ht-1" vertex="1">
          <mxGeometry x="225" y="170" width="120" height="40" as="geometry" />
        </mxCell>
        <mxCell id="bHXIeogKWyMM21nyn1ht-50" value="" style="edgeStyle=orthogonalEdgeStyle;rounded=0;orthogonalLoop=1;jettySize=auto;html=1;strokeWidth=2;" parent="bHXIeogKWyMM21nyn1ht-1" source="bHXIeogKWyMM21nyn1ht-34" edge="1">
          <mxGeometry relative="1" as="geometry">
            <mxPoint x="590" y="190" as="targetPoint" />
          </mxGeometry>
        </mxCell>
        <mxCell id="bHXIeogKWyMM21nyn1ht-34" value="Phase i" style="whiteSpace=wrap;html=1;rounded=1;fillColor=#dae8fc;strokeColor=#6c8ebf;" parent="bHXIeogKWyMM21nyn1ht-1" vertex="1">
          <mxGeometry x="450" y="170" width="120" height="40" as="geometry" />
        </mxCell>
        <mxCell id="bHXIeogKWyMM21nyn1ht-36" value="&lt;b&gt;...&lt;/b&gt;" style="edgeStyle=orthogonalEdgeStyle;rounded=0;orthogonalLoop=1;jettySize=auto;html=1;strokeWidth=2;" parent="bHXIeogKWyMM21nyn1ht-1" edge="1">
          <mxGeometry x="-1" y="-20" relative="1" as="geometry">
            <mxPoint x="400" y="189.5" as="sourcePoint" />
            <mxPoint x="415" y="189.5" as="targetPoint" />
            <Array as="points">
              <mxPoint x="415" y="189.5" />
              <mxPoint x="415" y="189.5" />
            </Array>
            <mxPoint x="-20" y="-20" as="offset" />
          </mxGeometry>
        </mxCell>
        <mxCell id="bHXIeogKWyMM21nyn1ht-44" value="" style="edgeStyle=orthogonalEdgeStyle;rounded=0;orthogonalLoop=1;jettySize=auto;html=1;strokeWidth=2;" parent="bHXIeogKWyMM21nyn1ht-1" source="bHXIeogKWyMM21nyn1ht-42" target="bHXIeogKWyMM21nyn1ht-34" edge="1">
          <mxGeometry relative="1" as="geometry" />
        </mxCell>
        <mxCell id="bHXIeogKWyMM21nyn1ht-42" value="" style="rounded=0;whiteSpace=wrap;html=1;fillColor=#d5e8d4;strokeColor=#82b366;" parent="bHXIeogKWyMM21nyn1ht-1" vertex="1">
          <mxGeometry x="415" y="160" width="10" height="60" as="geometry" />
        </mxCell>
        <mxCell id="bHXIeogKWyMM21nyn1ht-43" value="&lt;b&gt;`bb&quot;x&quot;_cc&quot;i-1&quot;`&lt;/b&gt;" style="text;html=1;strokeColor=none;fillColor=none;align=center;verticalAlign=middle;whiteSpace=wrap;rounded=0;" parent="bHXIeogKWyMM21nyn1ht-1" vertex="1">
          <mxGeometry x="400" y="220" width="40" height="20" as="geometry" />
        </mxCell>
        <mxCell id="bHXIeogKWyMM21nyn1ht-54" value="" style="edgeStyle=orthogonalEdgeStyle;rounded=0;orthogonalLoop=1;jettySize=auto;html=1;strokeWidth=2;" parent="bHXIeogKWyMM21nyn1ht-1" source="bHXIeogKWyMM21nyn1ht-45" target="bHXIeogKWyMM21nyn1ht-52" edge="1">
          <mxGeometry relative="1" as="geometry" />
        </mxCell>
        <mxCell id="bHXIeogKWyMM21nyn1ht-45" value="Phase&amp;nbsp; p" style="whiteSpace=wrap;html=1;rounded=1;fillColor=#dae8fc;strokeColor=#6c8ebf;" parent="bHXIeogKWyMM21nyn1ht-1" vertex="1">
          <mxGeometry x="680" y="170" width="120" height="40" as="geometry" />
        </mxCell>
        <mxCell id="bHXIeogKWyMM21nyn1ht-46" value="&lt;b&gt;...&lt;/b&gt;" style="edgeStyle=orthogonalEdgeStyle;rounded=0;orthogonalLoop=1;jettySize=auto;html=1;strokeWidth=2;" parent="bHXIeogKWyMM21nyn1ht-1" edge="1">
          <mxGeometry x="-1" y="-20" relative="1" as="geometry">
            <mxPoint x="630" y="189.5" as="sourcePoint" />
            <mxPoint x="645" y="189.5" as="targetPoint" />
            <Array as="points">
              <mxPoint x="645" y="189.5" />
              <mxPoint x="645" y="189.5" />
            </Array>
            <mxPoint x="-20" y="-20" as="offset" />
          </mxGeometry>
        </mxCell>
        <mxCell id="bHXIeogKWyMM21nyn1ht-47" value="" style="edgeStyle=orthogonalEdgeStyle;rounded=0;orthogonalLoop=1;jettySize=auto;html=1;strokeWidth=2;" parent="bHXIeogKWyMM21nyn1ht-1" source="bHXIeogKWyMM21nyn1ht-48" target="bHXIeogKWyMM21nyn1ht-45" edge="1">
          <mxGeometry relative="1" as="geometry" />
        </mxCell>
        <mxCell id="bHXIeogKWyMM21nyn1ht-48" value="" style="rounded=0;whiteSpace=wrap;html=1;fillColor=#d5e8d4;strokeColor=#82b366;" parent="bHXIeogKWyMM21nyn1ht-1" vertex="1">
          <mxGeometry x="645" y="160" width="10" height="60" as="geometry" />
        </mxCell>
        <mxCell id="bHXIeogKWyMM21nyn1ht-49" value="&lt;b&gt;`bb&quot;x&quot;_cc&quot;p-1&quot;`&lt;/b&gt;" style="text;html=1;strokeColor=none;fillColor=none;align=center;verticalAlign=middle;whiteSpace=wrap;rounded=0;" parent="bHXIeogKWyMM21nyn1ht-1" vertex="1">
          <mxGeometry x="630" y="220" width="40" height="20" as="geometry" />
        </mxCell>
        <mxCell id="bHXIeogKWyMM21nyn1ht-51" value="" style="edgeStyle=orthogonalEdgeStyle;rounded=0;orthogonalLoop=1;jettySize=auto;html=1;strokeWidth=2;" parent="bHXIeogKWyMM21nyn1ht-1" edge="1">
          <mxGeometry x="-1" y="-20" relative="1" as="geometry">
            <mxPoint x="820" y="189.5" as="sourcePoint" />
            <mxPoint x="835" y="189.5" as="targetPoint" />
            <Array as="points">
              <mxPoint x="835" y="189.5" />
              <mxPoint x="835" y="189.5" />
            </Array>
            <mxPoint x="-20" y="-20" as="offset" />
          </mxGeometry>
        </mxCell>
        <mxCell id="bHXIeogKWyMM21nyn1ht-52" value="" style="rounded=0;whiteSpace=wrap;html=1;" parent="bHXIeogKWyMM21nyn1ht-1" vertex="1">
          <mxGeometry x="835" y="160" width="10" height="60" as="geometry" />
        </mxCell>
        <mxCell id="bHXIeogKWyMM21nyn1ht-55" value="&lt;b&gt;`bb&quot;x&quot;_cc&quot;p&quot;`&lt;/b&gt;" style="text;html=1;strokeColor=none;fillColor=none;align=center;verticalAlign=middle;whiteSpace=wrap;rounded=0;" parent="bHXIeogKWyMM21nyn1ht-1" vertex="1">
          <mxGeometry x="820" y="220" width="40" height="20" as="geometry" />
        </mxCell>
        <mxCell id="bHXIeogKWyMM21nyn1ht-59" value="&lt;b&gt;`bb&quot;x&quot;`&lt;/b&gt;" style="text;html=1;strokeColor=none;fillColor=none;align=center;verticalAlign=middle;whiteSpace=wrap;rounded=0;" parent="bHXIeogKWyMM21nyn1ht-1" vertex="1">
          <mxGeometry x="10" y="220" width="40" height="20" as="geometry" />
        </mxCell>
        <mxCell id="bHXIeogKWyMM21nyn1ht-60" value="&lt;b&gt;`bb&quot;s&quot;`&lt;/b&gt;" style="text;html=1;strokeColor=none;fillColor=none;align=center;verticalAlign=middle;whiteSpace=wrap;rounded=0;" parent="bHXIeogKWyMM21nyn1ht-1" vertex="1">
          <mxGeometry x="105" y="220" width="40" height="20" as="geometry" />
        </mxCell>
        <mxCell id="bHXIeogKWyMM21nyn1ht-61" value="&lt;b&gt;`bb&quot;x&quot;_cc&quot;0&quot;`&lt;br&gt;&lt;/b&gt;" style="text;html=1;strokeColor=none;fillColor=none;align=center;verticalAlign=middle;whiteSpace=wrap;rounded=0;" parent="bHXIeogKWyMM21nyn1ht-1" vertex="1">
          <mxGeometry x="185" y="220" width="40" height="20" as="geometry" />
        </mxCell>
        <mxCell id="bHXIeogKWyMM21nyn1ht-69" value="" style="edgeStyle=orthogonalEdgeStyle;rounded=0;orthogonalLoop=1;jettySize=auto;html=1;strokeWidth=2;entryX=0;entryY=0.5;entryDx=0;entryDy=0;" parent="bHXIeogKWyMM21nyn1ht-1" source="bHXIeogKWyMM21nyn1ht-68" target="bHXIeogKWyMM21nyn1ht-5" edge="1">
          <mxGeometry relative="1" as="geometry" />
        </mxCell>
        <mxCell id="bHXIeogKWyMM21nyn1ht-68" value="S" style="whiteSpace=wrap;html=1;aspect=fixed;rounded=1;fillColor=#ffe6cc;strokeColor=#d79b00;" parent="bHXIeogKWyMM21nyn1ht-1" vertex="1">
          <mxGeometry x="60" y="170" width="40" height="40" as="geometry" />
        </mxCell>
        <mxCell id="bHXIeogKWyMM21nyn1ht-73" value="" style="edgeStyle=orthogonalEdgeStyle;rounded=0;orthogonalLoop=1;jettySize=auto;html=1;strokeWidth=2;" parent="bHXIeogKWyMM21nyn1ht-1" source="bHXIeogKWyMM21nyn1ht-70" edge="1">
          <mxGeometry relative="1" as="geometry">
            <mxPoint x="200" y="190" as="targetPoint" />
          </mxGeometry>
        </mxCell>
        <mxCell id="bHXIeogKWyMM21nyn1ht-70" value="S&lt;sup&gt;-1&lt;/sup&gt;" style="whiteSpace=wrap;html=1;aspect=fixed;rounded=1;fillColor=#ffe6cc;strokeColor=#d79b00;" parent="bHXIeogKWyMM21nyn1ht-1" vertex="1">
          <mxGeometry x="145" y="170" width="40" height="40" as="geometry" />
        </mxCell>
        <mxCell id="bHXIeogKWyMM21nyn1ht-74" value="&lt;b&gt;CS sampling&lt;/b&gt;" style="text;html=1;strokeColor=none;fillColor=none;align=center;verticalAlign=middle;whiteSpace=wrap;rounded=0;" parent="bHXIeogKWyMM21nyn1ht-1" vertex="1">
          <mxGeometry x="60" y="110" width="40" height="20" as="geometry" />
        </mxCell>
        <mxCell id="bHXIeogKWyMM21nyn1ht-75" value="&lt;b&gt;Initial recovery&lt;/b&gt;" style="text;html=1;strokeColor=none;fillColor=none;align=center;verticalAlign=middle;whiteSpace=wrap;rounded=0;" parent="bHXIeogKWyMM21nyn1ht-1" vertex="1">
          <mxGeometry x="145" y="110" width="40" height="20" as="geometry" />
        </mxCell>
        <mxCell id="bHXIeogKWyMM21nyn1ht-76" value="&lt;b&gt;Deep recovery&lt;/b&gt;" style="text;html=1;strokeColor=none;fillColor=none;align=center;verticalAlign=middle;whiteSpace=wrap;rounded=0;" parent="bHXIeogKWyMM21nyn1ht-1" vertex="1">
          <mxGeometry x="490" y="110" width="40" height="20" as="geometry" />
        </mxCell>
        <mxCell id="bHXIeogKWyMM21nyn1ht-77" value="" style="curved=1;endArrow=classic;html=1;strokeWidth=2;exitX=0.5;exitY=1;exitDx=0;exitDy=0;entryX=0.5;entryY=0;entryDx=0;entryDy=0;dashed=1;" parent="bHXIeogKWyMM21nyn1ht-1" source="bHXIeogKWyMM21nyn1ht-34" target="bHXIeogKWyMM21nyn1ht-65" edge="1">
          <mxGeometry width="50" height="50" relative="1" as="geometry">
            <mxPoint x="520" y="270" as="sourcePoint" />
            <mxPoint x="570" y="220" as="targetPoint" />
            <Array as="points">
              <mxPoint x="500" y="240" />
            </Array>
          </mxGeometry>
        </mxCell>
        <mxCell id="bHXIeogKWyMM21nyn1ht-78" value="" style="endArrow=none;dashed=1;html=1;dashPattern=1 3;strokeWidth=2;" parent="bHXIeogKWyMM21nyn1ht-1" edge="1">
          <mxGeometry width="50" height="50" relative="1" as="geometry">
            <mxPoint x="124.28999999999999" y="130" as="sourcePoint" />
            <mxPoint x="124" y="100" as="targetPoint" />
          </mxGeometry>
        </mxCell>
        <mxCell id="bHXIeogKWyMM21nyn1ht-79" value="" style="endArrow=none;dashed=1;html=1;dashPattern=1 3;strokeWidth=2;" parent="bHXIeogKWyMM21nyn1ht-1" edge="1">
          <mxGeometry width="50" height="50" relative="1" as="geometry">
            <mxPoint x="204.57999999999998" y="130" as="sourcePoint" />
            <mxPoint x="204.29000000000002" y="100" as="targetPoint" />
          </mxGeometry>
        </mxCell>
        <mxCell id="bHXIeogKWyMM21nyn1ht-80" value="" style="endArrow=none;dashed=1;html=1;dashPattern=1 3;strokeWidth=2;" parent="bHXIeogKWyMM21nyn1ht-1" edge="1">
          <mxGeometry width="50" height="50" relative="1" as="geometry">
            <mxPoint x="839.6999999999999" y="135" as="sourcePoint" />
            <mxPoint x="839.41" y="105" as="targetPoint" />
          </mxGeometry>
        </mxCell>
        <mxCell id="bHXIeogKWyMM21nyn1ht-81" value="&lt;b&gt;Phase&amp;nbsp; i&lt;/b&gt;" style="text;html=1;strokeColor=none;fillColor=none;align=center;verticalAlign=middle;whiteSpace=wrap;rounded=0;" parent="bHXIeogKWyMM21nyn1ht-1" vertex="1">
          <mxGeometry x="462.5" y="380" width="65" height="20" as="geometry" />
        </mxCell>
      </root>
    </mxGraphModel>
  </diagram>
  <diagram id="HYqGch3e_Hvs0apwXDM6" name="Page-3">
    <mxGraphModel dx="1026" dy="461" grid="1" gridSize="10" guides="1" tooltips="1" connect="1" arrows="1" fold="1" page="1" pageScale="1" pageWidth="850" pageHeight="1100" math="0" shadow="0">
      <root>
        <mxCell id="-d3hIR6ficKwYZaccods-0" />
        <mxCell id="-d3hIR6ficKwYZaccods-1" parent="-d3hIR6ficKwYZaccods-0" />
        <mxCell id="0eLC2te0Yw_U1MKyAMc6-2" value="" style="edgeStyle=orthogonalEdgeStyle;rounded=0;orthogonalLoop=1;jettySize=auto;html=1;strokeWidth=2;" parent="-d3hIR6ficKwYZaccods-1" source="0eLC2te0Yw_U1MKyAMc6-0" target="0eLC2te0Yw_U1MKyAMc6-1" edge="1">
          <mxGeometry relative="1" as="geometry" />
        </mxCell>
        <mxCell id="0eLC2te0Yw_U1MKyAMc6-0" value="b x b" style="whiteSpace=wrap;html=1;aspect=fixed;" parent="-d3hIR6ficKwYZaccods-1" vertex="1">
          <mxGeometry x="120" y="160" width="40" height="40" as="geometry" />
        </mxCell>
        <mxCell id="0eLC2te0Yw_U1MKyAMc6-5" value="" style="edgeStyle=orthogonalEdgeStyle;rounded=0;orthogonalLoop=1;jettySize=auto;html=1;strokeWidth=2;" parent="-d3hIR6ficKwYZaccods-1" source="0eLC2te0Yw_U1MKyAMc6-1" target="0eLC2te0Yw_U1MKyAMc6-4" edge="1">
          <mxGeometry relative="1" as="geometry" />
        </mxCell>
        <mxCell id="0eLC2te0Yw_U1MKyAMc6-1" value="fft" style="whiteSpace=wrap;html=1;rounded=1;" parent="-d3hIR6ficKwYZaccods-1" vertex="1">
          <mxGeometry x="200" y="165" width="70" height="30" as="geometry" />
        </mxCell>
        <mxCell id="0eLC2te0Yw_U1MKyAMc6-4" value="INN" style="whiteSpace=wrap;html=1;rounded=1;" parent="-d3hIR6ficKwYZaccods-1" vertex="1">
          <mxGeometry x="310" y="165" width="70" height="30" as="geometry" />
        </mxCell>
        <mxCell id="0eLC2te0Yw_U1MKyAMc6-7" value="INN" style="whiteSpace=wrap;html=1;rounded=1;" parent="-d3hIR6ficKwYZaccods-1" vertex="1">
          <mxGeometry x="320" y="170" width="70" height="30" as="geometry" />
        </mxCell>
        <mxCell id="0eLC2te0Yw_U1MKyAMc6-10" value="" style="edgeStyle=orthogonalEdgeStyle;rounded=0;orthogonalLoop=1;jettySize=auto;html=1;strokeWidth=2;" parent="-d3hIR6ficKwYZaccods-1" source="0eLC2te0Yw_U1MKyAMc6-8" edge="1">
          <mxGeometry relative="1" as="geometry">
            <mxPoint x="480" y="195" as="targetPoint" />
          </mxGeometry>
        </mxCell>
        <mxCell id="0eLC2te0Yw_U1MKyAMc6-8" value="INN" style="whiteSpace=wrap;html=1;rounded=1;" parent="-d3hIR6ficKwYZaccods-1" vertex="1">
          <mxGeometry x="330" y="180" width="70" height="30" as="geometry" />
        </mxCell>
        <mxCell id="0eLC2te0Yw_U1MKyAMc6-13" value="" style="rounded=0;whiteSpace=wrap;html=1;dashed=1;" parent="-d3hIR6ficKwYZaccods-1" vertex="1">
          <mxGeometry x="480" y="120" width="10" height="60" as="geometry" />
        </mxCell>
        <mxCell id="0eLC2te0Yw_U1MKyAMc6-14" value="b&lt;sup&gt;2&lt;/sup&gt;(1-sr)" style="text;html=1;strokeColor=none;fillColor=none;align=center;verticalAlign=middle;whiteSpace=wrap;rounded=0;dashed=1;" parent="-d3hIR6ficKwYZaccods-1" vertex="1">
          <mxGeometry x="500" y="140" width="60" height="20" as="geometry" />
        </mxCell>
        <mxCell id="0eLC2te0Yw_U1MKyAMc6-15" value="" style="rounded=0;whiteSpace=wrap;html=1;fillColor=#d5e8d4;strokeColor=#82b366;" parent="-d3hIR6ficKwYZaccods-1" vertex="1">
          <mxGeometry x="480" y="210" width="10" height="110" as="geometry" />
        </mxCell>
        <mxCell id="0eLC2te0Yw_U1MKyAMc6-16" value="b&lt;sup&gt;2&lt;/sup&gt;*sr" style="text;html=1;strokeColor=none;fillColor=none;align=center;verticalAlign=middle;whiteSpace=wrap;rounded=0;dashed=1;" parent="-d3hIR6ficKwYZaccods-1" vertex="1">
          <mxGeometry x="495" y="255" width="60" height="20" as="geometry" />
        </mxCell>
        <mxCell id="0eLC2te0Yw_U1MKyAMc6-17" value="" style="rounded=0;whiteSpace=wrap;html=1;fillColor=#f5f5f5;strokeColor=#666666;fontColor=#333333;" parent="-d3hIR6ficKwYZaccods-1" vertex="1">
          <mxGeometry x="480" y="370" width="10" height="60" as="geometry" />
        </mxCell>
        <mxCell id="0eLC2te0Yw_U1MKyAMc6-18" value="b&lt;sup&gt;2&lt;/sup&gt;(1-sr)" style="text;html=1;strokeColor=none;fillColor=none;align=center;verticalAlign=middle;whiteSpace=wrap;rounded=0;dashed=1;" parent="-d3hIR6ficKwYZaccods-1" vertex="1">
          <mxGeometry x="500" y="390" width="60" height="20" as="geometry" />
        </mxCell>
        <mxCell id="0eLC2te0Yw_U1MKyAMc6-34" style="edgeStyle=orthogonalEdgeStyle;rounded=0;orthogonalLoop=1;jettySize=auto;html=1;entryX=1;entryY=0.5;entryDx=0;entryDy=0;strokeWidth=2;" parent="-d3hIR6ficKwYZaccods-1" source="0eLC2te0Yw_U1MKyAMc6-19" target="0eLC2te0Yw_U1MKyAMc6-33" edge="1">
          <mxGeometry relative="1" as="geometry" />
        </mxCell>
        <mxCell id="0eLC2te0Yw_U1MKyAMc6-19" value="+" style="ellipse;whiteSpace=wrap;html=1;aspect=fixed;rounded=1;" parent="-d3hIR6ficKwYZaccods-1" vertex="1">
          <mxGeometry x="475" y="335" width="20" height="20" as="geometry" />
        </mxCell>
        <mxCell id="0eLC2te0Yw_U1MKyAMc6-38" value="" style="edgeStyle=orthogonalEdgeStyle;rounded=0;orthogonalLoop=1;jettySize=auto;html=1;strokeWidth=2;" parent="-d3hIR6ficKwYZaccods-1" source="0eLC2te0Yw_U1MKyAMc6-30" target="0eLC2te0Yw_U1MKyAMc6-37" edge="1">
          <mxGeometry relative="1" as="geometry" />
        </mxCell>
        <mxCell id="0eLC2te0Yw_U1MKyAMc6-30" value="ifft" style="whiteSpace=wrap;html=1;rounded=1;" parent="-d3hIR6ficKwYZaccods-1" vertex="1">
          <mxGeometry x="200" y="315" width="70" height="30" as="geometry" />
        </mxCell>
        <mxCell id="0eLC2te0Yw_U1MKyAMc6-36" value="" style="edgeStyle=orthogonalEdgeStyle;rounded=0;orthogonalLoop=1;jettySize=auto;html=1;strokeWidth=2;" parent="-d3hIR6ficKwYZaccods-1" source="0eLC2te0Yw_U1MKyAMc6-31" target="0eLC2te0Yw_U1MKyAMc6-30" edge="1">
          <mxGeometry relative="1" as="geometry" />
        </mxCell>
        <mxCell id="0eLC2te0Yw_U1MKyAMc6-31" value="INN" style="whiteSpace=wrap;html=1;rounded=1;" parent="-d3hIR6ficKwYZaccods-1" vertex="1">
          <mxGeometry x="310" y="315" width="70" height="30" as="geometry" />
        </mxCell>
        <mxCell id="0eLC2te0Yw_U1MKyAMc6-32" value="INN" style="whiteSpace=wrap;html=1;rounded=1;" parent="-d3hIR6ficKwYZaccods-1" vertex="1">
          <mxGeometry x="320" y="320" width="70" height="30" as="geometry" />
        </mxCell>
        <mxCell id="0eLC2te0Yw_U1MKyAMc6-33" value="INN_inverse" style="whiteSpace=wrap;html=1;rounded=1;" parent="-d3hIR6ficKwYZaccods-1" vertex="1">
          <mxGeometry x="330" y="330" width="70" height="30" as="geometry" />
        </mxCell>
        <mxCell id="0eLC2te0Yw_U1MKyAMc6-37" value="b x b" style="whiteSpace=wrap;html=1;aspect=fixed;" parent="-d3hIR6ficKwYZaccods-1" vertex="1">
          <mxGeometry x="120" y="310" width="40" height="40" as="geometry" />
        </mxCell>
        <mxCell id="0eLC2te0Yw_U1MKyAMc6-39" value="x" style="text;html=1;strokeColor=none;fillColor=none;align=center;verticalAlign=middle;whiteSpace=wrap;rounded=0;" parent="-d3hIR6ficKwYZaccods-1" vertex="1">
          <mxGeometry x="80" y="170" width="40" height="20" as="geometry" />
        </mxCell>
        <mxCell id="0eLC2te0Yw_U1MKyAMc6-40" value="x&lt;br&gt;recovered" style="text;html=1;strokeColor=none;fillColor=none;align=center;verticalAlign=middle;whiteSpace=wrap;rounded=0;" parent="-d3hIR6ficKwYZaccods-1" vertex="1">
          <mxGeometry x="70" y="320" width="40" height="20" as="geometry" />
        </mxCell>
        <mxCell id="0eLC2te0Yw_U1MKyAMc6-41" value="" style="edgeStyle=elbowEdgeStyle;elbow=vertical;endArrow=classic;html=1;strokeWidth=2;" parent="-d3hIR6ficKwYZaccods-1" edge="1">
          <mxGeometry width="50" height="50" relative="1" as="geometry">
            <mxPoint x="540" y="140" as="sourcePoint" />
            <mxPoint x="590" y="90" as="targetPoint" />
          </mxGeometry>
        </mxCell>
        <mxCell id="0eLC2te0Yw_U1MKyAMc6-42" value="Removed" style="edgeLabel;html=1;align=center;verticalAlign=middle;resizable=0;points=[];" parent="0eLC2te0Yw_U1MKyAMc6-41" vertex="1" connectable="0">
          <mxGeometry x="0.62" y="3" relative="1" as="geometry">
            <mxPoint x="-32" y="-9" as="offset" />
          </mxGeometry>
        </mxCell>
        <mxCell id="0eLC2te0Yw_U1MKyAMc6-46" value="" style="edgeStyle=elbowEdgeStyle;elbow=vertical;endArrow=classic;html=1;strokeWidth=2;" parent="-d3hIR6ficKwYZaccods-1" edge="1">
          <mxGeometry width="50" height="50" relative="1" as="geometry">
            <mxPoint x="580" y="470" as="sourcePoint" />
            <mxPoint x="530" y="420" as="targetPoint" />
          </mxGeometry>
        </mxCell>
        <mxCell id="0eLC2te0Yw_U1MKyAMc6-47" value="Gaussian sample" style="edgeLabel;html=1;align=center;verticalAlign=middle;resizable=0;points=[];" parent="0eLC2te0Yw_U1MKyAMc6-46" vertex="1" connectable="0">
          <mxGeometry x="0.7" y="3" relative="1" as="geometry">
            <mxPoint x="23" y="45" as="offset" />
          </mxGeometry>
        </mxCell>
        <mxCell id="0yf4s6XfHpB6R8R5p4JL-1" value="" style="edgeStyle=orthogonalEdgeStyle;rounded=0;orthogonalLoop=1;jettySize=auto;html=1;strokeWidth=2;" parent="-d3hIR6ficKwYZaccods-1" edge="1">
          <mxGeometry relative="1" as="geometry">
            <mxPoint x="484.28999999999996" y="320" as="sourcePoint" />
            <mxPoint x="484.28999999999996" y="340" as="targetPoint" />
          </mxGeometry>
        </mxCell>
        <mxCell id="0yf4s6XfHpB6R8R5p4JL-2" value="" style="edgeStyle=orthogonalEdgeStyle;rounded=0;orthogonalLoop=1;jettySize=auto;html=1;strokeWidth=2;" parent="-d3hIR6ficKwYZaccods-1" edge="1">
          <mxGeometry relative="1" as="geometry">
            <mxPoint x="484.28999999999996" y="370" as="sourcePoint" />
            <mxPoint x="484.28999999999996" y="355" as="targetPoint" />
          </mxGeometry>
        </mxCell>
      </root>
    </mxGraphModel>
  </diagram>
  <diagram id="1g8mlBzq-o9qUDjKQ7sE" name="Page-4">
    <mxGraphModel dx="1026" dy="461" grid="1" gridSize="10" guides="1" tooltips="1" connect="1" arrows="1" fold="1" page="1" pageScale="1" pageWidth="850" pageHeight="1100" math="0" shadow="0">
      <root>
        <mxCell id="rXsg6oXQB9g2iKTwyhHb-0" />
        <mxCell id="rXsg6oXQB9g2iKTwyhHb-1" parent="rXsg6oXQB9g2iKTwyhHb-0" />
        <mxCell id="zK38ifRWPuNti2wX9P2Y-8" value="" style="edgeStyle=orthogonalEdgeStyle;rounded=0;orthogonalLoop=1;jettySize=auto;html=1;strokeWidth=2;" parent="rXsg6oXQB9g2iKTwyhHb-1" source="zK38ifRWPuNti2wX9P2Y-9" edge="1">
          <mxGeometry relative="1" as="geometry">
            <mxPoint x="190" y="140" as="targetPoint" />
          </mxGeometry>
        </mxCell>
        <mxCell id="zK38ifRWPuNti2wX9P2Y-9" value="" style="rounded=0;whiteSpace=wrap;html=1;" parent="rXsg6oXQB9g2iKTwyhHb-1" vertex="1">
          <mxGeometry x="155" y="85" width="10" height="110" as="geometry" />
        </mxCell>
        <mxCell id="zK38ifRWPuNti2wX9P2Y-10" value="x" style="text;html=1;strokeColor=none;fillColor=none;align=center;verticalAlign=middle;whiteSpace=wrap;rounded=0;" parent="rXsg6oXQB9g2iKTwyhHb-1" vertex="1">
          <mxGeometry x="140" y="200" width="40" height="20" as="geometry" />
        </mxCell>
        <mxCell id="zK38ifRWPuNti2wX9P2Y-16" value="INN" style="whiteSpace=wrap;html=1;rounded=1;" parent="rXsg6oXQB9g2iKTwyhHb-1" vertex="1">
          <mxGeometry x="190" y="110" width="120" height="60" as="geometry" />
        </mxCell>
        <mxCell id="zK38ifRWPuNti2wX9P2Y-18" value="INN" style="whiteSpace=wrap;html=1;rounded=1;" parent="rXsg6oXQB9g2iKTwyhHb-1" vertex="1">
          <mxGeometry x="200" y="120" width="120" height="60" as="geometry" />
        </mxCell>
        <mxCell id="zKqlViJ0sAJCICYdJ9wN-0" value="" style="edgeStyle=orthogonalEdgeStyle;rounded=0;orthogonalLoop=1;jettySize=auto;html=1;strokeWidth=2;entryX=0;entryY=0.5;entryDx=0;entryDy=0;" parent="rXsg6oXQB9g2iKTwyhHb-1" source="zK38ifRWPuNti2wX9P2Y-19" target="zKqlViJ0sAJCICYdJ9wN-1" edge="1">
          <mxGeometry relative="1" as="geometry" />
        </mxCell>
        <mxCell id="zKqlViJ0sAJCICYdJ9wN-2" style="edgeStyle=orthogonalEdgeStyle;rounded=0;orthogonalLoop=1;jettySize=auto;html=1;entryX=0;entryY=0.5;entryDx=0;entryDy=0;strokeWidth=2;" parent="rXsg6oXQB9g2iKTwyhHb-1" source="zK38ifRWPuNti2wX9P2Y-19" target="SqyVxwzATS9m7uY9ocOb-0" edge="1">
          <mxGeometry relative="1" as="geometry" />
        </mxCell>
        <mxCell id="zK38ifRWPuNti2wX9P2Y-19" value="INN" style="whiteSpace=wrap;html=1;rounded=1;" parent="rXsg6oXQB9g2iKTwyhHb-1" vertex="1">
          <mxGeometry x="210" y="130" width="120" height="60" as="geometry" />
        </mxCell>
        <mxCell id="SqyVxwzATS9m7uY9ocOb-0" value="" style="rounded=0;whiteSpace=wrap;html=1;dashed=1;" parent="rXsg6oXQB9g2iKTwyhHb-1" vertex="1">
          <mxGeometry x="400" y="80" width="10" height="75" as="geometry" />
        </mxCell>
        <mxCell id="zKqlViJ0sAJCICYdJ9wN-1" value="" style="rounded=0;whiteSpace=wrap;html=1;" parent="rXsg6oXQB9g2iKTwyhHb-1" vertex="1">
          <mxGeometry x="403" y="192.5" width="10" height="40" as="geometry" />
        </mxCell>
        <mxCell id="zKqlViJ0sAJCICYdJ9wN-3" value="&lt;font style=&quot;font-size: 12px ; font-weight: normal&quot;&gt;y&lt;sub&gt;1&lt;/sub&gt;&lt;/font&gt;" style="text;strokeColor=none;fillColor=none;html=1;fontSize=24;fontStyle=1;verticalAlign=middle;align=center;rounded=1;dashed=1;" parent="rXsg6oXQB9g2iKTwyhHb-1" vertex="1">
          <mxGeometry x="410" y="98" width="35" height="40" as="geometry" />
        </mxCell>
        <mxCell id="zKqlViJ0sAJCICYdJ9wN-4" value="&lt;font style=&quot;font-size: 12px ; font-weight: normal&quot;&gt;y&lt;sub&gt;2&lt;/sub&gt;&lt;/font&gt;" style="text;strokeColor=none;fillColor=none;html=1;fontSize=24;fontStyle=1;verticalAlign=middle;align=center;rounded=1;dashed=1;" parent="rXsg6oXQB9g2iKTwyhHb-1" vertex="1">
          <mxGeometry x="413" y="187.5" width="35" height="40" as="geometry" />
        </mxCell>
        <mxCell id="zKqlViJ0sAJCICYdJ9wN-5" value="INN" style="whiteSpace=wrap;html=1;rounded=1;" parent="rXsg6oXQB9g2iKTwyhHb-1" vertex="1">
          <mxGeometry x="210" y="290" width="120" height="60" as="geometry" />
        </mxCell>
        <mxCell id="zKqlViJ0sAJCICYdJ9wN-6" value="INN" style="whiteSpace=wrap;html=1;rounded=1;" parent="rXsg6oXQB9g2iKTwyhHb-1" vertex="1">
          <mxGeometry x="220" y="300" width="120" height="60" as="geometry" />
        </mxCell>
        <mxCell id="zKqlViJ0sAJCICYdJ9wN-7" value="INN_inverse" style="whiteSpace=wrap;html=1;rounded=1;" parent="rXsg6oXQB9g2iKTwyhHb-1" vertex="1">
          <mxGeometry x="230" y="310" width="120" height="60" as="geometry" />
        </mxCell>
        <mxCell id="zKqlViJ0sAJCICYdJ9wN-8" value="" style="rounded=0;whiteSpace=wrap;html=1;dashed=1;" parent="rXsg6oXQB9g2iKTwyhHb-1" vertex="1">
          <mxGeometry x="403" y="372.5" width="10" height="75" as="geometry" />
        </mxCell>
        <mxCell id="zKqlViJ0sAJCICYdJ9wN-9" value="&lt;span style=&quot;font-size: 12px ; font-weight: 400&quot;&gt;Gaussian sample&lt;/span&gt;" style="text;strokeColor=none;fillColor=none;html=1;fontSize=24;fontStyle=1;verticalAlign=middle;align=center;rounded=1;dashed=1;" parent="rXsg6oXQB9g2iKTwyhHb-1" vertex="1">
          <mxGeometry x="448" y="390" width="35" height="40" as="geometry" />
        </mxCell>
        <mxCell id="dhmcN3ngzpBmnm1qU1n6-0" value="" style="edgeStyle=orthogonalEdgeStyle;rounded=0;orthogonalLoop=1;jettySize=auto;html=1;strokeWidth=2;" parent="rXsg6oXQB9g2iKTwyhHb-1" edge="1">
          <mxGeometry relative="1" as="geometry">
            <mxPoint x="409" y="232.5" as="sourcePoint" />
            <mxPoint x="409" y="300" as="targetPoint" />
          </mxGeometry>
        </mxCell>
        <mxCell id="dhmcN3ngzpBmnm1qU1n6-7" value="" style="rounded=0;whiteSpace=wrap;html=1;" parent="rXsg6oXQB9g2iKTwyhHb-1" vertex="1">
          <mxGeometry x="155" y="262.5" width="10" height="110" as="geometry" />
        </mxCell>
        <mxCell id="dhmcN3ngzpBmnm1qU1n6-8" value="x" style="text;html=1;strokeColor=none;fillColor=none;align=center;verticalAlign=middle;whiteSpace=wrap;rounded=0;" parent="rXsg6oXQB9g2iKTwyhHb-1" vertex="1">
          <mxGeometry x="140" y="377.5" width="40" height="20" as="geometry" />
        </mxCell>
        <mxCell id="dhmcN3ngzpBmnm1qU1n6-12" style="edgeStyle=orthogonalEdgeStyle;rounded=0;orthogonalLoop=1;jettySize=auto;html=1;strokeWidth=2;entryX=1;entryY=0.25;entryDx=0;entryDy=0;" parent="rXsg6oXQB9g2iKTwyhHb-1" edge="1">
          <mxGeometry relative="1" as="geometry">
            <mxPoint x="205" y="320" as="sourcePoint" />
            <mxPoint x="165" y="319.5" as="targetPoint" />
            <Array as="points">
              <mxPoint x="205" y="320" />
              <mxPoint x="205" y="320" />
            </Array>
          </mxGeometry>
        </mxCell>
        <mxCell id="emBZx-hUpxbiWXLHFkVL-0" value="" style="edgeStyle=elbowEdgeStyle;elbow=vertical;endArrow=classic;html=1;strokeWidth=2;" parent="rXsg6oXQB9g2iKTwyhHb-1" edge="1">
          <mxGeometry width="50" height="50" relative="1" as="geometry">
            <mxPoint x="425" y="110" as="sourcePoint" />
            <mxPoint x="475" y="60" as="targetPoint" />
          </mxGeometry>
        </mxCell>
        <mxCell id="emBZx-hUpxbiWXLHFkVL-1" value="Removed" style="edgeLabel;html=1;align=center;verticalAlign=middle;resizable=0;points=[];" parent="emBZx-hUpxbiWXLHFkVL-0" vertex="1" connectable="0">
          <mxGeometry x="0.62" y="3" relative="1" as="geometry">
            <mxPoint x="-32" y="-9" as="offset" />
          </mxGeometry>
        </mxCell>
        <mxCell id="zKqlViJ0sAJCICYdJ9wN-10" value="+" style="ellipse;whiteSpace=wrap;html=1;aspect=fixed;rounded=1;dashed=1;" parent="rXsg6oXQB9g2iKTwyhHb-1" vertex="1">
          <mxGeometry x="398" y="310" width="20" height="20" as="geometry" />
        </mxCell>
        <mxCell id="yCrOepf5Nqsvw4ia_-Ia-5" value="" style="edgeStyle=orthogonalEdgeStyle;rounded=0;orthogonalLoop=1;jettySize=auto;html=1;strokeWidth=2;" parent="rXsg6oXQB9g2iKTwyhHb-1" edge="1">
          <mxGeometry relative="1" as="geometry">
            <mxPoint x="409" y="372.5" as="sourcePoint" />
            <mxPoint x="409" y="332.5" as="targetPoint" />
          </mxGeometry>
        </mxCell>
        <mxCell id="yCrOepf5Nqsvw4ia_-Ia-6" style="edgeStyle=orthogonalEdgeStyle;rounded=0;orthogonalLoop=1;jettySize=auto;html=1;strokeWidth=2;entryX=1;entryY=0.25;entryDx=0;entryDy=0;" parent="rXsg6oXQB9g2iKTwyhHb-1" edge="1">
          <mxGeometry relative="1" as="geometry">
            <mxPoint x="390" y="320" as="sourcePoint" />
            <mxPoint x="350" y="319.5" as="targetPoint" />
            <Array as="points">
              <mxPoint x="390" y="320" />
              <mxPoint x="390" y="320" />
            </Array>
          </mxGeometry>
        </mxCell>
      </root>
    </mxGraphModel>
  </diagram>
  <diagram id="0IFdBTaCycR7ZTN6_m8z" name="Page-5">
    <mxGraphModel dx="1026" dy="461" grid="1" gridSize="10" guides="1" tooltips="1" connect="1" arrows="1" fold="1" page="1" pageScale="1" pageWidth="850" pageHeight="1100" math="1" shadow="0">
      <root>
        <mxCell id="02RzLIsui5-3RXGI-pmV-0" />
        <mxCell id="02RzLIsui5-3RXGI-pmV-1" parent="02RzLIsui5-3RXGI-pmV-0" />
        <mxCell id="enpjPvcx6wmhQRaCD8ao-0" value="" style="rounded=1;whiteSpace=wrap;html=1;fillColor=#dae8fc;strokeColor=#6c8ebf;" parent="02RzLIsui5-3RXGI-pmV-1" vertex="1">
          <mxGeometry x="220" y="365" width="382.5" height="210" as="geometry" />
        </mxCell>
        <mxCell id="HlrrwtAEbIjydSc4i1DF-28" value="" style="rounded=0;whiteSpace=wrap;html=1;dashed=1;" parent="02RzLIsui5-3RXGI-pmV-1" vertex="1">
          <mxGeometry x="637.5" y="80" width="25" height="190" as="geometry" />
        </mxCell>
        <mxCell id="HlrrwtAEbIjydSc4i1DF-27" value="" style="rounded=0;whiteSpace=wrap;html=1;dashed=1;" parent="02RzLIsui5-3RXGI-pmV-1" vertex="1">
          <mxGeometry x="407.5" y="80" width="25" height="190" as="geometry" />
        </mxCell>
        <mxCell id="HlrrwtAEbIjydSc4i1DF-26" value="" style="rounded=0;whiteSpace=wrap;html=1;dashed=1;" parent="02RzLIsui5-3RXGI-pmV-1" vertex="1">
          <mxGeometry x="195" y="80" width="25" height="190" as="geometry" />
        </mxCell>
        <mxCell id="02RzLIsui5-3RXGI-pmV-10" value="" style="edgeStyle=orthogonalEdgeStyle;rounded=0;orthogonalLoop=1;jettySize=auto;html=1;strokeWidth=2;" parent="02RzLIsui5-3RXGI-pmV-1" edge="1">
          <mxGeometry relative="1" as="geometry">
            <mxPoint x="305" y="160" as="sourcePoint" />
          </mxGeometry>
        </mxCell>
        <mxCell id="02RzLIsui5-3RXGI-pmV-12" value="" style="edgeStyle=orthogonalEdgeStyle;rounded=0;orthogonalLoop=1;jettySize=auto;html=1;strokeWidth=2;" parent="02RzLIsui5-3RXGI-pmV-1" edge="1">
          <mxGeometry relative="1" as="geometry">
            <mxPoint x="397.5" y="160" as="sourcePoint" />
          </mxGeometry>
        </mxCell>
        <mxCell id="enpjPvcx6wmhQRaCD8ao-1" value="" style="edgeStyle=orthogonalEdgeStyle;rounded=0;orthogonalLoop=1;jettySize=auto;html=1;strokeWidth=2;" parent="02RzLIsui5-3RXGI-pmV-1" source="enpjPvcx6wmhQRaCD8ao-2" edge="1">
          <mxGeometry relative="1" as="geometry">
            <mxPoint x="60" y="130" as="targetPoint" />
          </mxGeometry>
        </mxCell>
        <mxCell id="enpjPvcx6wmhQRaCD8ao-2" value="" style="rounded=0;whiteSpace=wrap;html=1;" parent="02RzLIsui5-3RXGI-pmV-1" vertex="1">
          <mxGeometry x="25" y="100" width="10" height="60" as="geometry" />
        </mxCell>
        <mxCell id="enpjPvcx6wmhQRaCD8ao-3" value="" style="edgeStyle=orthogonalEdgeStyle;rounded=0;orthogonalLoop=1;jettySize=auto;html=1;strokeWidth=2;" parent="02RzLIsui5-3RXGI-pmV-1" source="enpjPvcx6wmhQRaCD8ao-4" target="enpjPvcx6wmhQRaCD8ao-45" edge="1">
          <mxGeometry relative="1" as="geometry" />
        </mxCell>
        <mxCell id="enpjPvcx6wmhQRaCD8ao-4" value="" style="rounded=0;whiteSpace=wrap;html=1;fillColor=#f5f5f5;strokeColor=#666666;fontColor=#333333;" parent="02RzLIsui5-3RXGI-pmV-1" vertex="1">
          <mxGeometry x="120" y="100" width="10" height="60" as="geometry" />
        </mxCell>
        <mxCell id="enpjPvcx6wmhQRaCD8ao-5" value="" style="edgeStyle=orthogonalEdgeStyle;rounded=0;orthogonalLoop=1;jettySize=auto;html=1;strokeWidth=2;" parent="02RzLIsui5-3RXGI-pmV-1" source="enpjPvcx6wmhQRaCD8ao-6" target="enpjPvcx6wmhQRaCD8ao-23" edge="1">
          <mxGeometry relative="1" as="geometry" />
        </mxCell>
        <mxCell id="enpjPvcx6wmhQRaCD8ao-6" value="" style="rounded=0;whiteSpace=wrap;html=1;fillColor=#d5e8d4;strokeColor=#82b366;" parent="02RzLIsui5-3RXGI-pmV-1" vertex="1">
          <mxGeometry x="200" y="100" width="10" height="60" as="geometry" />
        </mxCell>
        <mxCell id="enpjPvcx6wmhQRaCD8ao-8" value="" style="rounded=0;whiteSpace=wrap;html=1;fillColor=#d5e8d4;strokeColor=#82b366;" parent="02RzLIsui5-3RXGI-pmV-1" vertex="1">
          <mxGeometry x="182.5" y="380" width="10" height="60" as="geometry" />
        </mxCell>
        <mxCell id="enpjPvcx6wmhQRaCD8ao-9" value="&lt;b&gt;`bb&quot;x&quot;_cc&quot;i-1&quot;`&lt;/b&gt;" style="text;html=1;strokeColor=none;fillColor=none;align=center;verticalAlign=middle;whiteSpace=wrap;rounded=0;" parent="02RzLIsui5-3RXGI-pmV-1" vertex="1">
          <mxGeometry x="167.5" y="444" width="40" height="20" as="geometry" />
        </mxCell>
        <mxCell id="enpjPvcx6wmhQRaCD8ao-10" value="" style="endArrow=classic;html=1;strokeWidth=2;exitX=1;exitY=0.25;exitDx=0;exitDy=0;" parent="02RzLIsui5-3RXGI-pmV-1" source="enpjPvcx6wmhQRaCD8ao-8" edge="1">
          <mxGeometry width="50" height="50" relative="1" as="geometry">
            <mxPoint x="222.5" y="415" as="sourcePoint" />
            <mxPoint x="252.5" y="415" as="targetPoint" />
            <Array as="points">
              <mxPoint x="212.5" y="415" />
            </Array>
          </mxGeometry>
        </mxCell>
        <mxCell id="enpjPvcx6wmhQRaCD8ao-11" value="" style="edgeStyle=orthogonalEdgeStyle;rounded=0;orthogonalLoop=1;jettySize=auto;html=1;strokeWidth=2;" parent="02RzLIsui5-3RXGI-pmV-1" source="enpjPvcx6wmhQRaCD8ao-12" edge="1">
          <mxGeometry relative="1" as="geometry">
            <mxPoint x="282.5" y="415" as="targetPoint" />
          </mxGeometry>
        </mxCell>
        <mxCell id="HlrrwtAEbIjydSc4i1DF-91" value="Reshape" style="edgeLabel;html=1;align=center;verticalAlign=middle;resizable=0;points=[];" parent="enpjPvcx6wmhQRaCD8ao-11" vertex="1" connectable="0">
          <mxGeometry x="0.4545" y="2" relative="1" as="geometry">
            <mxPoint x="5" y="-38" as="offset" />
          </mxGeometry>
        </mxCell>
        <mxCell id="enpjPvcx6wmhQRaCD8ao-12" value="" style="rounded=0;whiteSpace=wrap;html=1;fillColor=#d5e8d4;strokeColor=#82b366;" parent="02RzLIsui5-3RXGI-pmV-1" vertex="1">
          <mxGeometry x="247.5" y="385" width="10" height="60" as="geometry" />
        </mxCell>
        <mxCell id="enpjPvcx6wmhQRaCD8ao-13" value="&lt;b&gt;`bb&quot;r&quot;_cc&quot;i&quot;`&lt;/b&gt;" style="text;html=1;strokeColor=none;fillColor=none;align=center;verticalAlign=middle;whiteSpace=wrap;rounded=0;" parent="02RzLIsui5-3RXGI-pmV-1" vertex="1">
          <mxGeometry x="232.5" y="445" width="40" height="20" as="geometry" />
        </mxCell>
        <mxCell id="enpjPvcx6wmhQRaCD8ao-20" value="" style="rounded=0;whiteSpace=wrap;html=1;fillColor=#d5e8d4;strokeColor=#82b366;" parent="02RzLIsui5-3RXGI-pmV-1" vertex="1">
          <mxGeometry x="642.5" y="385" width="10" height="60" as="geometry" />
        </mxCell>
        <mxCell id="enpjPvcx6wmhQRaCD8ao-22" value="" style="edgeStyle=orthogonalEdgeStyle;rounded=0;orthogonalLoop=1;jettySize=auto;html=1;strokeWidth=2;" parent="02RzLIsui5-3RXGI-pmV-1" source="enpjPvcx6wmhQRaCD8ao-23" edge="1">
          <mxGeometry relative="1" as="geometry">
            <mxPoint x="370" y="130" as="targetPoint" />
            <Array as="points">
              <mxPoint x="370" y="130" />
              <mxPoint x="370" y="130" />
            </Array>
          </mxGeometry>
        </mxCell>
        <mxCell id="enpjPvcx6wmhQRaCD8ao-23" value="Phase&amp;nbsp;&lt;i&gt;&amp;nbsp;1&lt;/i&gt;" style="whiteSpace=wrap;html=1;rounded=1;fillColor=#dae8fc;strokeColor=#6c8ebf;" parent="02RzLIsui5-3RXGI-pmV-1" vertex="1">
          <mxGeometry x="225" y="110" width="120" height="40" as="geometry" />
        </mxCell>
        <mxCell id="enpjPvcx6wmhQRaCD8ao-24" value="" style="edgeStyle=orthogonalEdgeStyle;rounded=0;orthogonalLoop=1;jettySize=auto;html=1;strokeWidth=2;" parent="02RzLIsui5-3RXGI-pmV-1" source="enpjPvcx6wmhQRaCD8ao-25" edge="1">
          <mxGeometry relative="1" as="geometry">
            <mxPoint x="590" y="130" as="targetPoint" />
          </mxGeometry>
        </mxCell>
        <mxCell id="enpjPvcx6wmhQRaCD8ao-25" value="Phase&amp;nbsp;&lt;i&gt;i&lt;/i&gt;" style="whiteSpace=wrap;html=1;rounded=1;fillColor=#dae8fc;strokeColor=#6c8ebf;" parent="02RzLIsui5-3RXGI-pmV-1" vertex="1">
          <mxGeometry x="450" y="110" width="120" height="40" as="geometry" />
        </mxCell>
        <mxCell id="enpjPvcx6wmhQRaCD8ao-26" value="&lt;b&gt;...&lt;/b&gt;" style="edgeStyle=orthogonalEdgeStyle;rounded=0;orthogonalLoop=1;jettySize=auto;html=1;strokeWidth=2;" parent="02RzLIsui5-3RXGI-pmV-1" edge="1">
          <mxGeometry x="-1" y="-20" relative="1" as="geometry">
            <mxPoint x="400" y="129.5" as="sourcePoint" />
            <mxPoint x="415" y="129.5" as="targetPoint" />
            <Array as="points">
              <mxPoint x="415" y="129.5" />
              <mxPoint x="415" y="129.5" />
            </Array>
            <mxPoint x="-20" y="-20" as="offset" />
          </mxGeometry>
        </mxCell>
        <mxCell id="enpjPvcx6wmhQRaCD8ao-27" value="" style="edgeStyle=orthogonalEdgeStyle;rounded=0;orthogonalLoop=1;jettySize=auto;html=1;strokeWidth=2;" parent="02RzLIsui5-3RXGI-pmV-1" source="enpjPvcx6wmhQRaCD8ao-28" target="enpjPvcx6wmhQRaCD8ao-25" edge="1">
          <mxGeometry relative="1" as="geometry" />
        </mxCell>
        <mxCell id="enpjPvcx6wmhQRaCD8ao-28" value="" style="rounded=0;whiteSpace=wrap;html=1;fillColor=#d5e8d4;strokeColor=#82b366;" parent="02RzLIsui5-3RXGI-pmV-1" vertex="1">
          <mxGeometry x="415" y="100" width="10" height="60" as="geometry" />
        </mxCell>
        <mxCell id="enpjPvcx6wmhQRaCD8ao-29" value="&lt;b&gt;`bb&quot;x&quot;_cc&quot;i-1&quot;`&lt;/b&gt;" style="text;html=1;strokeColor=none;fillColor=none;align=center;verticalAlign=middle;whiteSpace=wrap;rounded=0;" parent="02RzLIsui5-3RXGI-pmV-1" vertex="1">
          <mxGeometry x="400" y="160" width="40" height="20" as="geometry" />
        </mxCell>
        <mxCell id="enpjPvcx6wmhQRaCD8ao-30" value="" style="edgeStyle=orthogonalEdgeStyle;rounded=0;orthogonalLoop=1;jettySize=auto;html=1;strokeWidth=2;" parent="02RzLIsui5-3RXGI-pmV-1" source="enpjPvcx6wmhQRaCD8ao-31" target="enpjPvcx6wmhQRaCD8ao-37" edge="1">
          <mxGeometry relative="1" as="geometry" />
        </mxCell>
        <mxCell id="enpjPvcx6wmhQRaCD8ao-31" value="Phase&amp;nbsp;&lt;i&gt;&amp;nbsp;p&lt;/i&gt;" style="whiteSpace=wrap;html=1;rounded=1;fillColor=#dae8fc;strokeColor=#6c8ebf;" parent="02RzLIsui5-3RXGI-pmV-1" vertex="1">
          <mxGeometry x="680" y="110" width="120" height="40" as="geometry" />
        </mxCell>
        <mxCell id="enpjPvcx6wmhQRaCD8ao-32" value="&lt;b&gt;...&lt;/b&gt;" style="edgeStyle=orthogonalEdgeStyle;rounded=0;orthogonalLoop=1;jettySize=auto;html=1;strokeWidth=2;" parent="02RzLIsui5-3RXGI-pmV-1" edge="1">
          <mxGeometry x="-1" y="-20" relative="1" as="geometry">
            <mxPoint x="630" y="129.5" as="sourcePoint" />
            <mxPoint x="645" y="129.5" as="targetPoint" />
            <Array as="points">
              <mxPoint x="645" y="129.5" />
              <mxPoint x="645" y="129.5" />
            </Array>
            <mxPoint x="-20" y="-20" as="offset" />
          </mxGeometry>
        </mxCell>
        <mxCell id="enpjPvcx6wmhQRaCD8ao-33" value="" style="edgeStyle=orthogonalEdgeStyle;rounded=0;orthogonalLoop=1;jettySize=auto;html=1;strokeWidth=2;" parent="02RzLIsui5-3RXGI-pmV-1" source="enpjPvcx6wmhQRaCD8ao-34" target="enpjPvcx6wmhQRaCD8ao-31" edge="1">
          <mxGeometry relative="1" as="geometry" />
        </mxCell>
        <mxCell id="enpjPvcx6wmhQRaCD8ao-34" value="" style="rounded=0;whiteSpace=wrap;html=1;fillColor=#d5e8d4;strokeColor=#82b366;" parent="02RzLIsui5-3RXGI-pmV-1" vertex="1">
          <mxGeometry x="645" y="100" width="10" height="60" as="geometry" />
        </mxCell>
        <mxCell id="enpjPvcx6wmhQRaCD8ao-35" value="&lt;b&gt;`bb&quot;x&quot;_cc&quot;p-1&quot;`&lt;/b&gt;" style="text;html=1;strokeColor=none;fillColor=none;align=center;verticalAlign=middle;whiteSpace=wrap;rounded=0;" parent="02RzLIsui5-3RXGI-pmV-1" vertex="1">
          <mxGeometry x="630" y="160" width="40" height="20" as="geometry" />
        </mxCell>
        <mxCell id="enpjPvcx6wmhQRaCD8ao-36" value="" style="edgeStyle=orthogonalEdgeStyle;rounded=0;orthogonalLoop=1;jettySize=auto;html=1;strokeWidth=2;" parent="02RzLIsui5-3RXGI-pmV-1" edge="1">
          <mxGeometry x="-1" y="-20" relative="1" as="geometry">
            <mxPoint x="820" y="129.5" as="sourcePoint" />
            <mxPoint x="835" y="129.5" as="targetPoint" />
            <Array as="points">
              <mxPoint x="835" y="129.5" />
              <mxPoint x="835" y="129.5" />
            </Array>
            <mxPoint x="-20" y="-20" as="offset" />
          </mxGeometry>
        </mxCell>
        <mxCell id="enpjPvcx6wmhQRaCD8ao-37" value="" style="rounded=0;whiteSpace=wrap;html=1;" parent="02RzLIsui5-3RXGI-pmV-1" vertex="1">
          <mxGeometry x="835" y="100" width="10" height="60" as="geometry" />
        </mxCell>
        <mxCell id="enpjPvcx6wmhQRaCD8ao-38" value="&lt;b&gt;`bb&quot;x&quot;_cc&quot;p&quot;`&lt;/b&gt;" style="text;html=1;strokeColor=none;fillColor=none;align=center;verticalAlign=middle;whiteSpace=wrap;rounded=0;" parent="02RzLIsui5-3RXGI-pmV-1" vertex="1">
          <mxGeometry x="820" y="160" width="40" height="20" as="geometry" />
        </mxCell>
        <mxCell id="enpjPvcx6wmhQRaCD8ao-39" value="&lt;b&gt;`bb&quot;x&quot;`&lt;/b&gt;&lt;b&gt;&lt;br&gt;&lt;/b&gt;" style="text;html=1;strokeColor=none;fillColor=none;align=center;verticalAlign=middle;whiteSpace=wrap;rounded=0;" parent="02RzLIsui5-3RXGI-pmV-1" vertex="1">
          <mxGeometry x="10" y="160" width="40" height="20" as="geometry" />
        </mxCell>
        <mxCell id="enpjPvcx6wmhQRaCD8ao-40" value="&lt;b&gt;`bb&quot;s&quot;`&lt;/b&gt;" style="text;html=1;strokeColor=none;fillColor=none;align=center;verticalAlign=middle;whiteSpace=wrap;rounded=0;" parent="02RzLIsui5-3RXGI-pmV-1" vertex="1">
          <mxGeometry x="105" y="160" width="40" height="20" as="geometry" />
        </mxCell>
        <mxCell id="enpjPvcx6wmhQRaCD8ao-41" value="&lt;b&gt;`bb&quot;x&quot;_cc&quot;0&quot;`&lt;/b&gt;" style="text;html=1;strokeColor=none;fillColor=none;align=center;verticalAlign=middle;whiteSpace=wrap;rounded=0;" parent="02RzLIsui5-3RXGI-pmV-1" vertex="1">
          <mxGeometry x="185" y="160" width="40" height="20" as="geometry" />
        </mxCell>
        <mxCell id="enpjPvcx6wmhQRaCD8ao-42" value="" style="edgeStyle=orthogonalEdgeStyle;rounded=0;orthogonalLoop=1;jettySize=auto;html=1;strokeWidth=2;entryX=0;entryY=0.5;entryDx=0;entryDy=0;" parent="02RzLIsui5-3RXGI-pmV-1" source="enpjPvcx6wmhQRaCD8ao-43" target="enpjPvcx6wmhQRaCD8ao-4" edge="1">
          <mxGeometry relative="1" as="geometry" />
        </mxCell>
        <mxCell id="enpjPvcx6wmhQRaCD8ao-43" value="S" style="whiteSpace=wrap;html=1;aspect=fixed;rounded=1;fillColor=#ffe6cc;strokeColor=#d79b00;" parent="02RzLIsui5-3RXGI-pmV-1" vertex="1">
          <mxGeometry x="60" y="110" width="40" height="40" as="geometry" />
        </mxCell>
        <mxCell id="enpjPvcx6wmhQRaCD8ao-44" value="" style="edgeStyle=orthogonalEdgeStyle;rounded=0;orthogonalLoop=1;jettySize=auto;html=1;strokeWidth=2;" parent="02RzLIsui5-3RXGI-pmV-1" source="enpjPvcx6wmhQRaCD8ao-45" edge="1">
          <mxGeometry relative="1" as="geometry">
            <mxPoint x="200" y="130" as="targetPoint" />
          </mxGeometry>
        </mxCell>
        <mxCell id="enpjPvcx6wmhQRaCD8ao-45" value="S&lt;sup&gt;-1&lt;/sup&gt;" style="whiteSpace=wrap;html=1;aspect=fixed;rounded=1;fillColor=#ffe6cc;strokeColor=#d79b00;" parent="02RzLIsui5-3RXGI-pmV-1" vertex="1">
          <mxGeometry x="145" y="110" width="40" height="40" as="geometry" />
        </mxCell>
        <mxCell id="enpjPvcx6wmhQRaCD8ao-46" value="&lt;b&gt;CS sampling&lt;/b&gt;" style="text;html=1;strokeColor=none;fillColor=none;align=center;verticalAlign=middle;whiteSpace=wrap;rounded=0;" parent="02RzLIsui5-3RXGI-pmV-1" vertex="1">
          <mxGeometry x="60" y="50" width="40" height="20" as="geometry" />
        </mxCell>
        <mxCell id="enpjPvcx6wmhQRaCD8ao-47" value="&lt;b&gt;Initial recovery&lt;/b&gt;" style="text;html=1;strokeColor=none;fillColor=none;align=center;verticalAlign=middle;whiteSpace=wrap;rounded=0;" parent="02RzLIsui5-3RXGI-pmV-1" vertex="1">
          <mxGeometry x="145" y="50" width="40" height="20" as="geometry" />
        </mxCell>
        <mxCell id="enpjPvcx6wmhQRaCD8ao-48" value="&lt;b&gt;Deep recovery&lt;/b&gt;" style="text;html=1;strokeColor=none;fillColor=none;align=center;verticalAlign=middle;whiteSpace=wrap;rounded=0;" parent="02RzLIsui5-3RXGI-pmV-1" vertex="1">
          <mxGeometry x="490" y="50" width="40" height="20" as="geometry" />
        </mxCell>
        <mxCell id="enpjPvcx6wmhQRaCD8ao-49" value="" style="curved=1;endArrow=classic;html=1;strokeWidth=2;exitX=0.5;exitY=1;exitDx=0;exitDy=0;entryX=0.5;entryY=0;entryDx=0;entryDy=0;dashed=1;" parent="02RzLIsui5-3RXGI-pmV-1" source="enpjPvcx6wmhQRaCD8ao-25" target="enpjPvcx6wmhQRaCD8ao-0" edge="1">
          <mxGeometry width="50" height="50" relative="1" as="geometry">
            <mxPoint x="520" y="210" as="sourcePoint" />
            <mxPoint x="570" y="160" as="targetPoint" />
            <Array as="points">
              <mxPoint x="500" y="180" />
              <mxPoint x="530" y="330" />
              <mxPoint x="400" y="320" />
            </Array>
          </mxGeometry>
        </mxCell>
        <mxCell id="enpjPvcx6wmhQRaCD8ao-50" value="" style="endArrow=none;dashed=1;html=1;dashPattern=1 3;strokeWidth=2;" parent="02RzLIsui5-3RXGI-pmV-1" edge="1">
          <mxGeometry width="50" height="50" relative="1" as="geometry">
            <mxPoint x="124.28999999999996" y="70" as="sourcePoint" />
            <mxPoint x="124" y="40" as="targetPoint" />
          </mxGeometry>
        </mxCell>
        <mxCell id="enpjPvcx6wmhQRaCD8ao-51" value="" style="endArrow=none;dashed=1;html=1;dashPattern=1 3;strokeWidth=2;" parent="02RzLIsui5-3RXGI-pmV-1" edge="1">
          <mxGeometry width="50" height="50" relative="1" as="geometry">
            <mxPoint x="204.57999999999993" y="70" as="sourcePoint" />
            <mxPoint x="204.28999999999996" y="40" as="targetPoint" />
          </mxGeometry>
        </mxCell>
        <mxCell id="enpjPvcx6wmhQRaCD8ao-52" value="" style="endArrow=none;dashed=1;html=1;dashPattern=1 3;strokeWidth=2;" parent="02RzLIsui5-3RXGI-pmV-1" edge="1">
          <mxGeometry width="50" height="50" relative="1" as="geometry">
            <mxPoint x="839.6999999999998" y="75" as="sourcePoint" />
            <mxPoint x="839.4099999999999" y="45" as="targetPoint" />
          </mxGeometry>
        </mxCell>
        <mxCell id="enpjPvcx6wmhQRaCD8ao-53" value="&lt;b&gt;Phase&amp;nbsp; &lt;i&gt;i&lt;/i&gt;&lt;/b&gt;" style="text;html=1;strokeColor=none;fillColor=none;align=center;verticalAlign=middle;whiteSpace=wrap;rounded=0;" parent="02RzLIsui5-3RXGI-pmV-1" vertex="1">
          <mxGeometry x="378.75" y="585" width="65" height="20" as="geometry" />
        </mxCell>
        <mxCell id="HlrrwtAEbIjydSc4i1DF-0" value="" style="whiteSpace=wrap;html=1;aspect=fixed;fillColor=#fff2cc;strokeColor=#d6b656;" parent="02RzLIsui5-3RXGI-pmV-1" vertex="1">
          <mxGeometry x="198" y="224" width="20" height="20" as="geometry" />
        </mxCell>
        <mxCell id="HlrrwtAEbIjydSc4i1DF-1" value="1" style="text;html=1;strokeColor=none;fillColor=none;align=center;verticalAlign=middle;whiteSpace=wrap;rounded=0;" parent="02RzLIsui5-3RXGI-pmV-1" vertex="1">
          <mxGeometry x="185" y="80" width="40" height="20" as="geometry" />
        </mxCell>
        <mxCell id="HlrrwtAEbIjydSc4i1DF-2" value="1" style="text;html=1;strokeColor=none;fillColor=none;align=center;verticalAlign=middle;whiteSpace=wrap;rounded=0;" parent="02RzLIsui5-3RXGI-pmV-1" vertex="1">
          <mxGeometry x="400" y="80" width="40" height="20" as="geometry" />
        </mxCell>
        <mxCell id="HlrrwtAEbIjydSc4i1DF-3" value="1" style="text;html=1;strokeColor=none;fillColor=none;align=center;verticalAlign=middle;whiteSpace=wrap;rounded=0;" parent="02RzLIsui5-3RXGI-pmV-1" vertex="1">
          <mxGeometry x="630" y="80" width="40" height="20" as="geometry" />
        </mxCell>
        <mxCell id="HlrrwtAEbIjydSc4i1DF-4" value="1" style="text;html=1;strokeColor=none;fillColor=none;align=center;verticalAlign=middle;whiteSpace=wrap;rounded=0;" parent="02RzLIsui5-3RXGI-pmV-1" vertex="1">
          <mxGeometry x="167.5" y="360" width="40" height="20" as="geometry" />
        </mxCell>
        <mxCell id="HlrrwtAEbIjydSc4i1DF-5" value="1" style="text;html=1;strokeColor=none;fillColor=none;align=center;verticalAlign=middle;whiteSpace=wrap;rounded=0;" parent="02RzLIsui5-3RXGI-pmV-1" vertex="1">
          <mxGeometry x="627.5" y="365" width="40" height="20" as="geometry" />
        </mxCell>
        <mxCell id="HlrrwtAEbIjydSc4i1DF-6" value="&lt;span style=&quot;color: rgb(0 , 0 , 0) ; font-family: &amp;#34;helvetica&amp;#34; ; font-size: 12px ; font-style: normal ; font-weight: 400 ; letter-spacing: normal ; text-align: center ; text-indent: 0px ; text-transform: none ; word-spacing: 0px ; background-color: rgb(248 , 249 , 250) ; display: inline ; float: none&quot;&gt;31&lt;/span&gt;" style="text;whiteSpace=wrap;html=1;" parent="02RzLIsui5-3RXGI-pmV-1" vertex="1">
          <mxGeometry x="197" y="201" width="10" height="30" as="geometry" />
        </mxCell>
        <mxCell id="HlrrwtAEbIjydSc4i1DF-9" value="&lt;b&gt;`bb&quot;z&quot;_cc&quot;0&quot;`&lt;/b&gt;" style="text;html=1;strokeColor=none;fillColor=none;align=center;verticalAlign=middle;whiteSpace=wrap;rounded=0;" parent="02RzLIsui5-3RXGI-pmV-1" vertex="1">
          <mxGeometry x="190" y="244" width="40" height="20" as="geometry" />
        </mxCell>
        <mxCell id="HlrrwtAEbIjydSc4i1DF-13" value="" style="curved=1;endArrow=classic;html=1;entryX=0;entryY=0.75;entryDx=0;entryDy=0;" parent="02RzLIsui5-3RXGI-pmV-1" target="enpjPvcx6wmhQRaCD8ao-23" edge="1">
          <mxGeometry width="50" height="50" relative="1" as="geometry">
            <mxPoint x="210" y="210" as="sourcePoint" />
            <mxPoint x="280" y="174" as="targetPoint" />
            <Array as="points">
              <mxPoint x="210" y="150" />
            </Array>
          </mxGeometry>
        </mxCell>
        <mxCell id="HlrrwtAEbIjydSc4i1DF-17" value="" style="whiteSpace=wrap;html=1;aspect=fixed;fillColor=#fff2cc;strokeColor=#d6b656;" parent="02RzLIsui5-3RXGI-pmV-1" vertex="1">
          <mxGeometry x="410" y="224" width="20" height="20" as="geometry" />
        </mxCell>
        <mxCell id="HlrrwtAEbIjydSc4i1DF-18" value="&lt;span style=&quot;color: rgb(0 , 0 , 0) ; font-family: &amp;#34;helvetica&amp;#34; ; font-size: 12px ; font-style: normal ; font-weight: 400 ; letter-spacing: normal ; text-align: center ; text-indent: 0px ; text-transform: none ; word-spacing: 0px ; background-color: rgb(248 , 249 , 250) ; display: inline ; float: none&quot;&gt;31&lt;/span&gt;" style="text;whiteSpace=wrap;html=1;" parent="02RzLIsui5-3RXGI-pmV-1" vertex="1">
          <mxGeometry x="410" y="200" width="10" height="30" as="geometry" />
        </mxCell>
        <mxCell id="HlrrwtAEbIjydSc4i1DF-19" value="&lt;b&gt;`bb&quot;z&quot;_cc&quot;i-1&quot;`&lt;/b&gt;" style="text;html=1;strokeColor=none;fillColor=none;align=center;verticalAlign=middle;whiteSpace=wrap;rounded=0;" parent="02RzLIsui5-3RXGI-pmV-1" vertex="1">
          <mxGeometry x="400" y="244" width="40" height="20" as="geometry" />
        </mxCell>
        <mxCell id="HlrrwtAEbIjydSc4i1DF-20" value="" style="whiteSpace=wrap;html=1;aspect=fixed;fillColor=#fff2cc;strokeColor=#d6b656;" parent="02RzLIsui5-3RXGI-pmV-1" vertex="1">
          <mxGeometry x="640" y="224" width="20" height="20" as="geometry" />
        </mxCell>
        <mxCell id="HlrrwtAEbIjydSc4i1DF-21" value="&lt;span style=&quot;color: rgb(0 , 0 , 0) ; font-family: &amp;#34;helvetica&amp;#34; ; font-size: 12px ; font-style: normal ; font-weight: 400 ; letter-spacing: normal ; text-align: center ; text-indent: 0px ; text-transform: none ; word-spacing: 0px ; background-color: rgb(248 , 249 , 250) ; display: inline ; float: none&quot;&gt;31&lt;/span&gt;" style="text;whiteSpace=wrap;html=1;" parent="02RzLIsui5-3RXGI-pmV-1" vertex="1">
          <mxGeometry x="642" y="200" width="10" height="30" as="geometry" />
        </mxCell>
        <mxCell id="HlrrwtAEbIjydSc4i1DF-22" value="&lt;b&gt;`bb&quot;z&quot;_cc&quot;p-1&quot;`&lt;/b&gt;" style="text;html=1;strokeColor=none;fillColor=none;align=center;verticalAlign=middle;whiteSpace=wrap;rounded=0;" parent="02RzLIsui5-3RXGI-pmV-1" vertex="1">
          <mxGeometry x="630" y="244" width="40" height="20" as="geometry" />
        </mxCell>
        <mxCell id="HlrrwtAEbIjydSc4i1DF-29" value="AC&lt;sub&gt;1&lt;/sub&gt;" style="whiteSpace=wrap;html=1;aspect=fixed;rounded=1;fillColor=#ffe6cc;strokeColor=#d79b00;" parent="02RzLIsui5-3RXGI-pmV-1" vertex="1">
          <mxGeometry x="367.5" y="453" width="40" height="40" as="geometry" />
        </mxCell>
        <mxCell id="HlrrwtAEbIjydSc4i1DF-30" value="AC&lt;sub&gt;2&lt;/sub&gt;" style="whiteSpace=wrap;html=1;aspect=fixed;rounded=1;fillColor=#ffe6cc;strokeColor=#d79b00;" parent="02RzLIsui5-3RXGI-pmV-1" vertex="1">
          <mxGeometry x="432.5" y="453" width="40" height="40" as="geometry" />
        </mxCell>
        <mxCell id="HlrrwtAEbIjydSc4i1DF-31" value="" style="endArrow=classic;html=1;exitX=1;exitY=0.25;exitDx=0;exitDy=0;entryX=0;entryY=0.75;entryDx=0;entryDy=0;" parent="02RzLIsui5-3RXGI-pmV-1" source="HlrrwtAEbIjydSc4i1DF-29" target="HlrrwtAEbIjydSc4i1DF-30" edge="1">
          <mxGeometry width="50" height="50" relative="1" as="geometry">
            <mxPoint x="392.5" y="445" as="sourcePoint" />
            <mxPoint x="442.5" y="395" as="targetPoint" />
          </mxGeometry>
        </mxCell>
        <mxCell id="HlrrwtAEbIjydSc4i1DF-32" value="" style="endArrow=classic;html=1;entryX=0;entryY=0.25;entryDx=0;entryDy=0;exitX=1;exitY=0.75;exitDx=0;exitDy=0;" parent="02RzLIsui5-3RXGI-pmV-1" source="HlrrwtAEbIjydSc4i1DF-29" target="HlrrwtAEbIjydSc4i1DF-30" edge="1">
          <mxGeometry width="50" height="50" relative="1" as="geometry">
            <mxPoint x="392.5" y="425" as="sourcePoint" />
            <mxPoint x="460" y="435" as="targetPoint" />
          </mxGeometry>
        </mxCell>
        <mxCell id="HlrrwtAEbIjydSc4i1DF-40" value="" style="edgeStyle=orthogonalEdgeStyle;rounded=0;orthogonalLoop=1;jettySize=auto;html=1;" parent="02RzLIsui5-3RXGI-pmV-1" source="HlrrwtAEbIjydSc4i1DF-34" target="HlrrwtAEbIjydSc4i1DF-39" edge="1">
          <mxGeometry relative="1" as="geometry" />
        </mxCell>
        <mxCell id="HlrrwtAEbIjydSc4i1DF-34" value="" style="whiteSpace=wrap;html=1;aspect=fixed;fillColor=#d5e8d4;strokeColor=#82b366;" parent="02RzLIsui5-3RXGI-pmV-1" vertex="1">
          <mxGeometry x="282.5" y="403" width="20" height="20" as="geometry" />
        </mxCell>
        <mxCell id="HlrrwtAEbIjydSc4i1DF-35" value="" style="whiteSpace=wrap;html=1;aspect=fixed;fillColor=#fff2cc;strokeColor=#d6b656;" parent="02RzLIsui5-3RXGI-pmV-1" vertex="1">
          <mxGeometry x="178.5" y="499" width="20" height="20" as="geometry" />
        </mxCell>
        <mxCell id="HlrrwtAEbIjydSc4i1DF-36" value="&lt;b&gt;`bb&quot;z&quot;_cc&quot;i-1&quot;`&lt;/b&gt;" style="text;html=1;strokeColor=none;fillColor=none;align=center;verticalAlign=middle;whiteSpace=wrap;rounded=0;" parent="02RzLIsui5-3RXGI-pmV-1" vertex="1">
          <mxGeometry x="167.5" y="527" width="40" height="20" as="geometry" />
        </mxCell>
        <mxCell id="HlrrwtAEbIjydSc4i1DF-37" value="" style="endArrow=classic;html=1;strokeWidth=2;exitX=1;exitY=0.5;exitDx=0;exitDy=0;entryX=0;entryY=0.5;entryDx=0;entryDy=0;" parent="02RzLIsui5-3RXGI-pmV-1" source="HlrrwtAEbIjydSc4i1DF-35" target="HlrrwtAEbIjydSc4i1DF-39" edge="1">
          <mxGeometry width="50" height="50" relative="1" as="geometry">
            <mxPoint x="212.5" y="452.5" as="sourcePoint" />
            <mxPoint x="272.5" y="517.5" as="targetPoint" />
            <Array as="points">
              <mxPoint x="232.5" y="475" />
            </Array>
          </mxGeometry>
        </mxCell>
        <mxCell id="HlrrwtAEbIjydSc4i1DF-38" value="&lt;span style=&quot;color: rgb(0 , 0 , 0) ; font-family: &amp;#34;helvetica&amp;#34; ; font-size: 12px ; font-style: normal ; font-weight: 400 ; letter-spacing: normal ; text-align: center ; text-indent: 0px ; text-transform: none ; word-spacing: 0px ; background-color: rgb(248 , 249 , 250) ; display: inline ; float: none&quot;&gt;31&lt;/span&gt;" style="text;whiteSpace=wrap;html=1;" parent="02RzLIsui5-3RXGI-pmV-1" vertex="1">
          <mxGeometry x="178.5" y="471" width="10" height="30" as="geometry" />
        </mxCell>
        <mxCell id="HlrrwtAEbIjydSc4i1DF-44" value="" style="edgeStyle=orthogonalEdgeStyle;rounded=0;orthogonalLoop=1;jettySize=auto;html=1;" parent="02RzLIsui5-3RXGI-pmV-1" source="HlrrwtAEbIjydSc4i1DF-39" target="HlrrwtAEbIjydSc4i1DF-41" edge="1">
          <mxGeometry relative="1" as="geometry" />
        </mxCell>
        <mxCell id="HlrrwtAEbIjydSc4i1DF-39" value="+" style="ellipse;whiteSpace=wrap;html=1;aspect=fixed;dashed=1;" parent="02RzLIsui5-3RXGI-pmV-1" vertex="1">
          <mxGeometry x="277.5" y="460" width="30" height="30" as="geometry" />
        </mxCell>
        <mxCell id="HlrrwtAEbIjydSc4i1DF-41" value="" style="whiteSpace=wrap;html=1;aspect=fixed;fillColor=#f8cecc;strokeColor=#b85450;" parent="02RzLIsui5-3RXGI-pmV-1" vertex="1">
          <mxGeometry x="330" y="465" width="20" height="20" as="geometry" />
        </mxCell>
        <mxCell id="HlrrwtAEbIjydSc4i1DF-42" value="&lt;span style=&quot;color: rgb(0 , 0 , 0) ; font-family: &amp;#34;helvetica&amp;#34; ; font-size: 12px ; font-style: normal ; font-weight: 400 ; letter-spacing: normal ; text-align: center ; text-indent: 0px ; text-transform: none ; word-spacing: 0px ; background-color: rgb(248 , 249 , 250) ; display: inline ; float: none&quot;&gt;32&lt;/span&gt;" style="text;whiteSpace=wrap;html=1;" parent="02RzLIsui5-3RXGI-pmV-1" vertex="1">
          <mxGeometry x="332.5" y="445" width="10" height="30" as="geometry" />
        </mxCell>
        <mxCell id="HlrrwtAEbIjydSc4i1DF-43" value="&lt;div style=&quot;text-align: center&quot;&gt;&lt;span&gt;&lt;font face=&quot;helvetica&quot;&gt;1&lt;/font&gt;&lt;/span&gt;&lt;/div&gt;" style="text;whiteSpace=wrap;html=1;" parent="02RzLIsui5-3RXGI-pmV-1" vertex="1">
          <mxGeometry x="287.5" y="380" width="10" height="30" as="geometry" />
        </mxCell>
        <mxCell id="HlrrwtAEbIjydSc4i1DF-45" value="" style="edgeStyle=orthogonalEdgeStyle;rounded=0;orthogonalLoop=1;jettySize=auto;html=1;" parent="02RzLIsui5-3RXGI-pmV-1" edge="1">
          <mxGeometry relative="1" as="geometry">
            <mxPoint x="350" y="474" as="sourcePoint" />
            <mxPoint x="372.5" y="474" as="targetPoint" />
          </mxGeometry>
        </mxCell>
        <mxCell id="HlrrwtAEbIjydSc4i1DF-46" value="&lt;b&gt;`bb&quot;c&quot;_cc&quot;i-1&quot;`&lt;/b&gt;" style="text;html=1;strokeColor=none;fillColor=none;align=center;verticalAlign=middle;whiteSpace=wrap;rounded=0;" parent="02RzLIsui5-3RXGI-pmV-1" vertex="1">
          <mxGeometry x="320" y="485" width="40" height="20" as="geometry" />
        </mxCell>
        <mxCell id="HlrrwtAEbIjydSc4i1DF-61" value="" style="edgeStyle=orthogonalEdgeStyle;rounded=0;orthogonalLoop=1;jettySize=auto;html=1;entryX=0;entryY=0.5;entryDx=0;entryDy=0;" parent="02RzLIsui5-3RXGI-pmV-1" source="HlrrwtAEbIjydSc4i1DF-47" target="HlrrwtAEbIjydSc4i1DF-62" edge="1">
          <mxGeometry relative="1" as="geometry">
            <mxPoint x="537.5" y="455" as="targetPoint" />
            <Array as="points">
              <mxPoint x="542.5" y="475" />
              <mxPoint x="542.5" y="443" />
            </Array>
          </mxGeometry>
        </mxCell>
        <mxCell id="HlrrwtAEbIjydSc4i1DF-72" value="Split" style="edgeLabel;html=1;align=center;verticalAlign=middle;resizable=0;points=[];" parent="HlrrwtAEbIjydSc4i1DF-61" vertex="1" connectable="0">
          <mxGeometry x="-0.3091" relative="1" as="geometry">
            <mxPoint x="-7" y="-10" as="offset" />
          </mxGeometry>
        </mxCell>
        <mxCell id="HlrrwtAEbIjydSc4i1DF-47" value="" style="whiteSpace=wrap;html=1;aspect=fixed;fillColor=#d80073;strokeColor=#A50040;fontColor=#ffffff;" parent="02RzLIsui5-3RXGI-pmV-1" vertex="1">
          <mxGeometry x="482.5" y="465" width="20" height="20" as="geometry" />
        </mxCell>
        <mxCell id="HlrrwtAEbIjydSc4i1DF-48" value="&lt;span style=&quot;color: rgb(0 , 0 , 0) ; font-family: &amp;#34;helvetica&amp;#34; ; font-size: 12px ; font-style: normal ; font-weight: 400 ; letter-spacing: normal ; text-align: center ; text-indent: 0px ; text-transform: none ; word-spacing: 0px ; background-color: rgb(248 , 249 , 250) ; display: inline ; float: none&quot;&gt;32&lt;/span&gt;" style="text;whiteSpace=wrap;html=1;" parent="02RzLIsui5-3RXGI-pmV-1" vertex="1">
          <mxGeometry x="482.5" y="439" width="10" height="30" as="geometry" />
        </mxCell>
        <mxCell id="HlrrwtAEbIjydSc4i1DF-49" value="&lt;b&gt;`bb&quot;c&quot;_cc&quot;i&quot;`&lt;/b&gt;" style="text;html=1;strokeColor=none;fillColor=none;align=center;verticalAlign=middle;whiteSpace=wrap;rounded=0;" parent="02RzLIsui5-3RXGI-pmV-1" vertex="1">
          <mxGeometry x="472.5" y="493" width="40" height="8" as="geometry" />
        </mxCell>
        <mxCell id="HlrrwtAEbIjydSc4i1DF-58" value="" style="edgeStyle=orthogonalEdgeStyle;rounded=0;orthogonalLoop=1;jettySize=auto;html=1;" parent="02RzLIsui5-3RXGI-pmV-1" edge="1">
          <mxGeometry relative="1" as="geometry">
            <mxPoint x="470" y="474" as="sourcePoint" />
            <mxPoint x="482.5" y="474" as="targetPoint" />
          </mxGeometry>
        </mxCell>
        <mxCell id="HlrrwtAEbIjydSc4i1DF-62" value="" style="whiteSpace=wrap;html=1;aspect=fixed;fillColor=#d5e8d4;strokeColor=#82b366;" parent="02RzLIsui5-3RXGI-pmV-1" vertex="1">
          <mxGeometry x="547.5" y="433" width="20" height="20" as="geometry" />
        </mxCell>
        <mxCell id="HlrrwtAEbIjydSc4i1DF-63" value="1" style="text;html=1;strokeColor=none;fillColor=none;align=center;verticalAlign=middle;whiteSpace=wrap;rounded=0;" parent="02RzLIsui5-3RXGI-pmV-1" vertex="1">
          <mxGeometry x="537.5" y="413" width="40" height="20" as="geometry" />
        </mxCell>
        <mxCell id="HlrrwtAEbIjydSc4i1DF-64" value="" style="whiteSpace=wrap;html=1;aspect=fixed;fillColor=#fff2cc;strokeColor=#d6b656;" parent="02RzLIsui5-3RXGI-pmV-1" vertex="1">
          <mxGeometry x="547.5" y="493" width="20" height="20" as="geometry" />
        </mxCell>
        <mxCell id="HlrrwtAEbIjydSc4i1DF-65" value="&lt;span style=&quot;color: rgb(0 , 0 , 0) ; font-family: &amp;#34;helvetica&amp;#34; ; font-size: 12px ; font-style: normal ; font-weight: 400 ; letter-spacing: normal ; text-align: center ; text-indent: 0px ; text-transform: none ; word-spacing: 0px ; background-color: rgb(248 , 249 , 250) ; display: inline ; float: none&quot;&gt;31&lt;/span&gt;" style="text;whiteSpace=wrap;html=1;" parent="02RzLIsui5-3RXGI-pmV-1" vertex="1">
          <mxGeometry x="550.5" y="469" width="10" height="30" as="geometry" />
        </mxCell>
        <mxCell id="HlrrwtAEbIjydSc4i1DF-70" value="" style="endArrow=classic;html=1;strokeWidth=2;exitX=1;exitY=0.5;exitDx=0;exitDy=0;entryX=0;entryY=0.5;entryDx=0;entryDy=0;" parent="02RzLIsui5-3RXGI-pmV-1" source="HlrrwtAEbIjydSc4i1DF-62" target="enpjPvcx6wmhQRaCD8ao-20" edge="1">
          <mxGeometry width="50" height="50" relative="1" as="geometry">
            <mxPoint x="617.5" y="440" as="sourcePoint" />
            <mxPoint x="677.5" y="505" as="targetPoint" />
            <Array as="points">
              <mxPoint x="602.5" y="415" />
            </Array>
          </mxGeometry>
        </mxCell>
        <mxCell id="HlrrwtAEbIjydSc4i1DF-83" value="Reshape" style="edgeLabel;html=1;align=center;verticalAlign=middle;resizable=0;points=[];" parent="HlrrwtAEbIjydSc4i1DF-70" vertex="1" connectable="0">
          <mxGeometry x="0.3398" y="-2" relative="1" as="geometry">
            <mxPoint x="-11.84" y="-12" as="offset" />
          </mxGeometry>
        </mxCell>
        <mxCell id="HlrrwtAEbIjydSc4i1DF-71" value="" style="whiteSpace=wrap;html=1;aspect=fixed;fillColor=#fff2cc;strokeColor=#d6b656;" parent="02RzLIsui5-3RXGI-pmV-1" vertex="1">
          <mxGeometry x="637.5" y="507" width="20" height="20" as="geometry" />
        </mxCell>
        <mxCell id="HlrrwtAEbIjydSc4i1DF-80" value="" style="edgeStyle=orthogonalEdgeStyle;rounded=0;orthogonalLoop=1;jettySize=auto;html=1;entryX=0;entryY=0.5;entryDx=0;entryDy=0;exitX=1;exitY=0.5;exitDx=0;exitDy=0;" parent="02RzLIsui5-3RXGI-pmV-1" source="HlrrwtAEbIjydSc4i1DF-47" target="HlrrwtAEbIjydSc4i1DF-64" edge="1">
          <mxGeometry relative="1" as="geometry">
            <mxPoint x="512.5" y="485" as="sourcePoint" />
            <mxPoint x="547.5" y="465" as="targetPoint" />
            <Array as="points">
              <mxPoint x="542.5" y="475" />
              <mxPoint x="542.5" y="503" />
            </Array>
          </mxGeometry>
        </mxCell>
        <mxCell id="HlrrwtAEbIjydSc4i1DF-82" value="" style="endArrow=classic;html=1;strokeWidth=2;exitX=1;exitY=0.25;exitDx=0;exitDy=0;entryX=0;entryY=0.5;entryDx=0;entryDy=0;" parent="02RzLIsui5-3RXGI-pmV-1" source="HlrrwtAEbIjydSc4i1DF-64" target="HlrrwtAEbIjydSc4i1DF-71" edge="1">
          <mxGeometry width="50" height="50" relative="1" as="geometry">
            <mxPoint x="577.5" y="453" as="sourcePoint" />
            <mxPoint x="652.5" y="425" as="targetPoint" />
            <Array as="points">
              <mxPoint x="602.5" y="517" />
            </Array>
          </mxGeometry>
        </mxCell>
        <mxCell id="HlrrwtAEbIjydSc4i1DF-89" value="31" style="text;html=1;strokeColor=none;fillColor=none;align=center;verticalAlign=middle;whiteSpace=wrap;rounded=0;" parent="02RzLIsui5-3RXGI-pmV-1" vertex="1">
          <mxGeometry x="627.5" y="487" width="40" height="20" as="geometry" />
        </mxCell>
        <mxCell id="HlrrwtAEbIjydSc4i1DF-92" value="&lt;b&gt;`bb&quot;x&quot;_cc&quot;i&quot;`&lt;/b&gt;" style="text;html=1;strokeColor=none;fillColor=none;align=center;verticalAlign=middle;whiteSpace=wrap;rounded=0;" parent="02RzLIsui5-3RXGI-pmV-1" vertex="1">
          <mxGeometry x="632.5" y="449" width="40" height="20" as="geometry" />
        </mxCell>
        <mxCell id="HlrrwtAEbIjydSc4i1DF-93" value="&lt;b&gt;`bb&quot;z&quot;_cc&quot;i&quot;`&lt;/b&gt;" style="text;html=1;strokeColor=none;fillColor=none;align=center;verticalAlign=middle;whiteSpace=wrap;rounded=0;" parent="02RzLIsui5-3RXGI-pmV-1" vertex="1">
          <mxGeometry x="627.5" y="535" width="40" height="20" as="geometry" />
        </mxCell>
      </root>
    </mxGraphModel>
  </diagram>
  <diagram name="iISTA-Plus-Res" id="H5cGBp1NVDXb3FIDmsxH">
    <mxGraphModel dx="2560" dy="673" grid="1" gridSize="10" guides="1" tooltips="1" connect="1" arrows="1" fold="1" page="1" pageScale="1" pageWidth="850" pageHeight="1100" math="1" shadow="0">
      <root>
        <mxCell id="zOxOMmkY-V9XgHMvgOi8-0" />
        <mxCell id="zOxOMmkY-V9XgHMvgOi8-1" parent="zOxOMmkY-V9XgHMvgOi8-0" />
        <mxCell id="zOxOMmkY-V9XgHMvgOi8-125" style="edgeStyle=orthogonalEdgeStyle;rounded=0;orthogonalLoop=1;jettySize=auto;html=1;exitX=0;exitY=0.5;exitDx=0;exitDy=0;entryX=0;entryY=0.5;entryDx=0;entryDy=0;" edge="1" parent="zOxOMmkY-V9XgHMvgOi8-1" source="zOxOMmkY-V9XgHMvgOi8-114" target="zOxOMmkY-V9XgHMvgOi8-110">
          <mxGeometry relative="1" as="geometry" />
        </mxCell>
        <mxCell id="zOxOMmkY-V9XgHMvgOi8-114" value="" style="whiteSpace=wrap;html=1;rounded=1;fillColor=#1ba1e2;strokeColor=#006EAF;fontColor=#ffffff;" vertex="1" parent="zOxOMmkY-V9XgHMvgOi8-1">
          <mxGeometry x="-74" y="371" width="200" height="76" as="geometry" />
        </mxCell>
        <mxCell id="zOxOMmkY-V9XgHMvgOi8-2" value="" style="rounded=1;whiteSpace=wrap;html=1;fillColor=#dae8fc;strokeColor=#6c8ebf;" vertex="1" parent="zOxOMmkY-V9XgHMvgOi8-1">
          <mxGeometry x="257.5" y="373" width="340" height="251" as="geometry" />
        </mxCell>
        <mxCell id="zOxOMmkY-V9XgHMvgOi8-3" value="" style="rounded=0;whiteSpace=wrap;html=1;dashed=1;" vertex="1" parent="zOxOMmkY-V9XgHMvgOi8-1">
          <mxGeometry x="637.5" y="80" width="25" height="220" as="geometry" />
        </mxCell>
        <mxCell id="zOxOMmkY-V9XgHMvgOi8-4" value="" style="rounded=0;whiteSpace=wrap;html=1;dashed=1;" vertex="1" parent="zOxOMmkY-V9XgHMvgOi8-1">
          <mxGeometry x="407.5" y="80" width="25" height="220" as="geometry" />
        </mxCell>
        <mxCell id="zOxOMmkY-V9XgHMvgOi8-5" value="" style="rounded=0;whiteSpace=wrap;html=1;dashed=1;" vertex="1" parent="zOxOMmkY-V9XgHMvgOi8-1">
          <mxGeometry x="195" y="80" width="25" height="220" as="geometry" />
        </mxCell>
        <mxCell id="zOxOMmkY-V9XgHMvgOi8-6" value="" style="edgeStyle=orthogonalEdgeStyle;rounded=0;orthogonalLoop=1;jettySize=auto;html=1;strokeWidth=2;" edge="1" parent="zOxOMmkY-V9XgHMvgOi8-1">
          <mxGeometry relative="1" as="geometry">
            <mxPoint x="305" y="160" as="sourcePoint" />
          </mxGeometry>
        </mxCell>
        <mxCell id="zOxOMmkY-V9XgHMvgOi8-7" value="" style="edgeStyle=orthogonalEdgeStyle;rounded=0;orthogonalLoop=1;jettySize=auto;html=1;strokeWidth=2;" edge="1" parent="zOxOMmkY-V9XgHMvgOi8-1">
          <mxGeometry relative="1" as="geometry">
            <mxPoint x="397.5" y="160" as="sourcePoint" />
          </mxGeometry>
        </mxCell>
        <mxCell id="zOxOMmkY-V9XgHMvgOi8-8" value="" style="edgeStyle=orthogonalEdgeStyle;rounded=0;orthogonalLoop=1;jettySize=auto;html=1;strokeWidth=2;" edge="1" parent="zOxOMmkY-V9XgHMvgOi8-1" source="zOxOMmkY-V9XgHMvgOi8-9">
          <mxGeometry relative="1" as="geometry">
            <mxPoint x="-50" y="130" as="targetPoint" />
          </mxGeometry>
        </mxCell>
        <mxCell id="zOxOMmkY-V9XgHMvgOi8-9" value="" style="rounded=0;whiteSpace=wrap;html=1;" vertex="1" parent="zOxOMmkY-V9XgHMvgOi8-1">
          <mxGeometry x="-85" y="100" width="10" height="60" as="geometry" />
        </mxCell>
        <mxCell id="zOxOMmkY-V9XgHMvgOi8-10" value="" style="edgeStyle=orthogonalEdgeStyle;rounded=0;orthogonalLoop=1;jettySize=auto;html=1;strokeWidth=2;" edge="1" parent="zOxOMmkY-V9XgHMvgOi8-1" source="zOxOMmkY-V9XgHMvgOi8-11" target="zOxOMmkY-V9XgHMvgOi8-45">
          <mxGeometry relative="1" as="geometry" />
        </mxCell>
        <mxCell id="zOxOMmkY-V9XgHMvgOi8-11" value="" style="rounded=0;whiteSpace=wrap;html=1;fillColor=#f5f5f5;strokeColor=#666666;fontColor=#333333;" vertex="1" parent="zOxOMmkY-V9XgHMvgOi8-1">
          <mxGeometry x="10" y="100" width="10" height="60" as="geometry" />
        </mxCell>
        <mxCell id="zOxOMmkY-V9XgHMvgOi8-12" value="" style="edgeStyle=orthogonalEdgeStyle;rounded=0;orthogonalLoop=1;jettySize=auto;html=1;strokeWidth=2;" edge="1" parent="zOxOMmkY-V9XgHMvgOi8-1" source="zOxOMmkY-V9XgHMvgOi8-13" target="zOxOMmkY-V9XgHMvgOi8-23">
          <mxGeometry relative="1" as="geometry" />
        </mxCell>
        <mxCell id="zOxOMmkY-V9XgHMvgOi8-13" value="" style="rounded=0;whiteSpace=wrap;html=1;fillColor=#d5e8d4;strokeColor=#82b366;" vertex="1" parent="zOxOMmkY-V9XgHMvgOi8-1">
          <mxGeometry x="200" y="100" width="10" height="60" as="geometry" />
        </mxCell>
        <mxCell id="zOxOMmkY-V9XgHMvgOi8-14" value="" style="rounded=0;whiteSpace=wrap;html=1;fillColor=#d5e8d4;strokeColor=#82b366;" vertex="1" parent="zOxOMmkY-V9XgHMvgOi8-1">
          <mxGeometry x="230" y="394" width="10" height="60" as="geometry" />
        </mxCell>
        <mxCell id="zOxOMmkY-V9XgHMvgOi8-15" value="&lt;b&gt;`bb&quot;x&quot;_cc&quot;i-1&quot;`&lt;/b&gt;" style="text;html=1;strokeColor=none;fillColor=none;align=center;verticalAlign=middle;whiteSpace=wrap;rounded=0;" vertex="1" parent="zOxOMmkY-V9XgHMvgOi8-1">
          <mxGeometry x="215" y="458" width="40" height="20" as="geometry" />
        </mxCell>
        <mxCell id="zOxOMmkY-V9XgHMvgOi8-16" value="" style="endArrow=classic;html=1;strokeWidth=2;exitX=1;exitY=0.25;exitDx=0;exitDy=0;" edge="1" parent="zOxOMmkY-V9XgHMvgOi8-1" source="zOxOMmkY-V9XgHMvgOi8-14">
          <mxGeometry width="50" height="50" relative="1" as="geometry">
            <mxPoint x="270" y="429" as="sourcePoint" />
            <mxPoint x="277.5" y="429" as="targetPoint" />
            <Array as="points">
              <mxPoint x="260" y="429" />
            </Array>
          </mxGeometry>
        </mxCell>
        <mxCell id="zOxOMmkY-V9XgHMvgOi8-156" value="" style="edgeStyle=orthogonalEdgeStyle;rounded=0;orthogonalLoop=1;jettySize=auto;html=1;entryX=0.5;entryY=0;entryDx=0;entryDy=0;" edge="1" parent="zOxOMmkY-V9XgHMvgOi8-1" source="zOxOMmkY-V9XgHMvgOi8-19" target="zOxOMmkY-V9XgHMvgOi8-80">
          <mxGeometry relative="1" as="geometry" />
        </mxCell>
        <mxCell id="zOxOMmkY-V9XgHMvgOi8-19" value="" style="rounded=0;whiteSpace=wrap;html=1;fillColor=#d5e8d4;strokeColor=#82b366;" vertex="1" parent="zOxOMmkY-V9XgHMvgOi8-1">
          <mxGeometry x="335" y="394" width="10" height="60" as="geometry" />
        </mxCell>
        <mxCell id="zOxOMmkY-V9XgHMvgOi8-20" value="&lt;b&gt;`bb&quot;r&quot;_cc&quot;i&quot;`&lt;/b&gt;" style="text;html=1;strokeColor=none;fillColor=none;align=center;verticalAlign=middle;whiteSpace=wrap;rounded=0;" vertex="1" parent="zOxOMmkY-V9XgHMvgOi8-1">
          <mxGeometry x="335" y="445" width="40" height="20" as="geometry" />
        </mxCell>
        <mxCell id="zOxOMmkY-V9XgHMvgOi8-21" value="" style="rounded=0;whiteSpace=wrap;html=1;fillColor=#d5e8d4;strokeColor=#82b366;" vertex="1" parent="zOxOMmkY-V9XgHMvgOi8-1">
          <mxGeometry x="612.5" y="401" width="10" height="60" as="geometry" />
        </mxCell>
        <mxCell id="zOxOMmkY-V9XgHMvgOi8-22" value="" style="edgeStyle=orthogonalEdgeStyle;rounded=0;orthogonalLoop=1;jettySize=auto;html=1;strokeWidth=2;" edge="1" parent="zOxOMmkY-V9XgHMvgOi8-1" source="zOxOMmkY-V9XgHMvgOi8-23">
          <mxGeometry relative="1" as="geometry">
            <mxPoint x="370" y="130" as="targetPoint" />
            <Array as="points">
              <mxPoint x="370" y="130" />
              <mxPoint x="370" y="130" />
            </Array>
          </mxGeometry>
        </mxCell>
        <mxCell id="zOxOMmkY-V9XgHMvgOi8-23" value="Phase&amp;nbsp;&lt;i&gt;&amp;nbsp;1&lt;/i&gt;" style="whiteSpace=wrap;html=1;rounded=1;fillColor=#dae8fc;strokeColor=#6c8ebf;" vertex="1" parent="zOxOMmkY-V9XgHMvgOi8-1">
          <mxGeometry x="225" y="110" width="120" height="40" as="geometry" />
        </mxCell>
        <mxCell id="zOxOMmkY-V9XgHMvgOi8-24" value="" style="edgeStyle=orthogonalEdgeStyle;rounded=0;orthogonalLoop=1;jettySize=auto;html=1;strokeWidth=2;" edge="1" parent="zOxOMmkY-V9XgHMvgOi8-1" source="zOxOMmkY-V9XgHMvgOi8-25">
          <mxGeometry relative="1" as="geometry">
            <mxPoint x="590" y="130" as="targetPoint" />
          </mxGeometry>
        </mxCell>
        <mxCell id="zOxOMmkY-V9XgHMvgOi8-25" value="Phase&amp;nbsp;&lt;i&gt;i&lt;/i&gt;" style="whiteSpace=wrap;html=1;rounded=1;fillColor=#dae8fc;strokeColor=#6c8ebf;" vertex="1" parent="zOxOMmkY-V9XgHMvgOi8-1">
          <mxGeometry x="450" y="110" width="120" height="40" as="geometry" />
        </mxCell>
        <mxCell id="zOxOMmkY-V9XgHMvgOi8-26" value="&lt;b&gt;...&lt;/b&gt;" style="edgeStyle=orthogonalEdgeStyle;rounded=0;orthogonalLoop=1;jettySize=auto;html=1;strokeWidth=2;" edge="1" parent="zOxOMmkY-V9XgHMvgOi8-1">
          <mxGeometry x="-1" y="-20" relative="1" as="geometry">
            <mxPoint x="400" y="129.5" as="sourcePoint" />
            <mxPoint x="415" y="129.5" as="targetPoint" />
            <Array as="points">
              <mxPoint x="415" y="129.5" />
              <mxPoint x="415" y="129.5" />
            </Array>
            <mxPoint x="-20" y="-20" as="offset" />
          </mxGeometry>
        </mxCell>
        <mxCell id="zOxOMmkY-V9XgHMvgOi8-27" value="" style="edgeStyle=orthogonalEdgeStyle;rounded=0;orthogonalLoop=1;jettySize=auto;html=1;strokeWidth=2;" edge="1" parent="zOxOMmkY-V9XgHMvgOi8-1" source="zOxOMmkY-V9XgHMvgOi8-28" target="zOxOMmkY-V9XgHMvgOi8-25">
          <mxGeometry relative="1" as="geometry" />
        </mxCell>
        <mxCell id="zOxOMmkY-V9XgHMvgOi8-28" value="" style="rounded=0;whiteSpace=wrap;html=1;fillColor=#d5e8d4;strokeColor=#82b366;" vertex="1" parent="zOxOMmkY-V9XgHMvgOi8-1">
          <mxGeometry x="415" y="100" width="10" height="60" as="geometry" />
        </mxCell>
        <mxCell id="zOxOMmkY-V9XgHMvgOi8-29" value="&lt;b&gt;`bb&quot;x&quot;_cc&quot;i-1&quot;`&lt;/b&gt;" style="text;html=1;strokeColor=none;fillColor=none;align=center;verticalAlign=middle;whiteSpace=wrap;rounded=0;" vertex="1" parent="zOxOMmkY-V9XgHMvgOi8-1">
          <mxGeometry x="400" y="160" width="40" height="20" as="geometry" />
        </mxCell>
        <mxCell id="zOxOMmkY-V9XgHMvgOi8-30" value="" style="edgeStyle=orthogonalEdgeStyle;rounded=0;orthogonalLoop=1;jettySize=auto;html=1;strokeWidth=2;" edge="1" parent="zOxOMmkY-V9XgHMvgOi8-1" source="zOxOMmkY-V9XgHMvgOi8-31" target="zOxOMmkY-V9XgHMvgOi8-37">
          <mxGeometry relative="1" as="geometry" />
        </mxCell>
        <mxCell id="zOxOMmkY-V9XgHMvgOi8-31" value="Phase&amp;nbsp;&lt;i&gt;&amp;nbsp;p&lt;/i&gt;" style="whiteSpace=wrap;html=1;rounded=1;fillColor=#dae8fc;strokeColor=#6c8ebf;" vertex="1" parent="zOxOMmkY-V9XgHMvgOi8-1">
          <mxGeometry x="680" y="110" width="120" height="40" as="geometry" />
        </mxCell>
        <mxCell id="zOxOMmkY-V9XgHMvgOi8-32" value="&lt;b&gt;...&lt;/b&gt;" style="edgeStyle=orthogonalEdgeStyle;rounded=0;orthogonalLoop=1;jettySize=auto;html=1;strokeWidth=2;" edge="1" parent="zOxOMmkY-V9XgHMvgOi8-1">
          <mxGeometry x="-1" y="-20" relative="1" as="geometry">
            <mxPoint x="630" y="129.5" as="sourcePoint" />
            <mxPoint x="645" y="129.5" as="targetPoint" />
            <Array as="points">
              <mxPoint x="645" y="129.5" />
              <mxPoint x="645" y="129.5" />
            </Array>
            <mxPoint x="-20" y="-20" as="offset" />
          </mxGeometry>
        </mxCell>
        <mxCell id="zOxOMmkY-V9XgHMvgOi8-33" value="" style="edgeStyle=orthogonalEdgeStyle;rounded=0;orthogonalLoop=1;jettySize=auto;html=1;strokeWidth=2;" edge="1" parent="zOxOMmkY-V9XgHMvgOi8-1" source="zOxOMmkY-V9XgHMvgOi8-34" target="zOxOMmkY-V9XgHMvgOi8-31">
          <mxGeometry relative="1" as="geometry" />
        </mxCell>
        <mxCell id="zOxOMmkY-V9XgHMvgOi8-34" value="" style="rounded=0;whiteSpace=wrap;html=1;fillColor=#d5e8d4;strokeColor=#82b366;" vertex="1" parent="zOxOMmkY-V9XgHMvgOi8-1">
          <mxGeometry x="645" y="100" width="10" height="60" as="geometry" />
        </mxCell>
        <mxCell id="zOxOMmkY-V9XgHMvgOi8-35" value="&lt;b&gt;`bb&quot;x&quot;_cc&quot;p-1&quot;`&lt;/b&gt;" style="text;html=1;strokeColor=none;fillColor=none;align=center;verticalAlign=middle;whiteSpace=wrap;rounded=0;" vertex="1" parent="zOxOMmkY-V9XgHMvgOi8-1">
          <mxGeometry x="630" y="160" width="40" height="20" as="geometry" />
        </mxCell>
        <mxCell id="zOxOMmkY-V9XgHMvgOi8-36" value="" style="edgeStyle=orthogonalEdgeStyle;rounded=0;orthogonalLoop=1;jettySize=auto;html=1;strokeWidth=2;" edge="1" parent="zOxOMmkY-V9XgHMvgOi8-1">
          <mxGeometry x="-1" y="-20" relative="1" as="geometry">
            <mxPoint x="820" y="129.5" as="sourcePoint" />
            <mxPoint x="835" y="129.5" as="targetPoint" />
            <Array as="points">
              <mxPoint x="835" y="129.5" />
              <mxPoint x="835" y="129.5" />
            </Array>
            <mxPoint x="-20" y="-20" as="offset" />
          </mxGeometry>
        </mxCell>
        <mxCell id="zOxOMmkY-V9XgHMvgOi8-37" value="" style="rounded=0;whiteSpace=wrap;html=1;" vertex="1" parent="zOxOMmkY-V9XgHMvgOi8-1">
          <mxGeometry x="835" y="100" width="10" height="60" as="geometry" />
        </mxCell>
        <mxCell id="zOxOMmkY-V9XgHMvgOi8-38" value="&lt;b&gt;`bb&quot;x&quot;_cc&quot;p&quot;`&lt;/b&gt;" style="text;html=1;strokeColor=none;fillColor=none;align=center;verticalAlign=middle;whiteSpace=wrap;rounded=0;" vertex="1" parent="zOxOMmkY-V9XgHMvgOi8-1">
          <mxGeometry x="820" y="160" width="40" height="20" as="geometry" />
        </mxCell>
        <mxCell id="zOxOMmkY-V9XgHMvgOi8-39" value="&lt;b&gt;`bb&quot;x&quot;`&lt;/b&gt;&lt;b&gt;&lt;br&gt;&lt;/b&gt;" style="text;html=1;strokeColor=none;fillColor=none;align=center;verticalAlign=middle;whiteSpace=wrap;rounded=0;" vertex="1" parent="zOxOMmkY-V9XgHMvgOi8-1">
          <mxGeometry x="-100" y="160" width="40" height="20" as="geometry" />
        </mxCell>
        <mxCell id="zOxOMmkY-V9XgHMvgOi8-40" value="&lt;b&gt;`bb&quot;s&quot;`&lt;/b&gt;" style="text;html=1;strokeColor=none;fillColor=none;align=center;verticalAlign=middle;whiteSpace=wrap;rounded=0;" vertex="1" parent="zOxOMmkY-V9XgHMvgOi8-1">
          <mxGeometry x="-5" y="160" width="40" height="20" as="geometry" />
        </mxCell>
        <mxCell id="zOxOMmkY-V9XgHMvgOi8-41" value="&lt;b&gt;`bb&quot;x&quot;_cc&quot;0&quot;`&lt;/b&gt;" style="text;html=1;strokeColor=none;fillColor=none;align=center;verticalAlign=middle;whiteSpace=wrap;rounded=0;" vertex="1" parent="zOxOMmkY-V9XgHMvgOi8-1">
          <mxGeometry x="185" y="160" width="40" height="20" as="geometry" />
        </mxCell>
        <mxCell id="zOxOMmkY-V9XgHMvgOi8-42" value="" style="edgeStyle=orthogonalEdgeStyle;rounded=0;orthogonalLoop=1;jettySize=auto;html=1;strokeWidth=2;entryX=0;entryY=0.5;entryDx=0;entryDy=0;" edge="1" parent="zOxOMmkY-V9XgHMvgOi8-1" source="zOxOMmkY-V9XgHMvgOi8-43" target="zOxOMmkY-V9XgHMvgOi8-11">
          <mxGeometry relative="1" as="geometry" />
        </mxCell>
        <mxCell id="zOxOMmkY-V9XgHMvgOi8-43" value="S" style="whiteSpace=wrap;html=1;aspect=fixed;rounded=1;fillColor=#ffe6cc;strokeColor=#d79b00;" vertex="1" parent="zOxOMmkY-V9XgHMvgOi8-1">
          <mxGeometry x="-50" y="110" width="40" height="40" as="geometry" />
        </mxCell>
        <mxCell id="zOxOMmkY-V9XgHMvgOi8-44" value="" style="edgeStyle=orthogonalEdgeStyle;rounded=0;orthogonalLoop=1;jettySize=auto;html=1;strokeWidth=2;" edge="1" parent="zOxOMmkY-V9XgHMvgOi8-1" source="zOxOMmkY-V9XgHMvgOi8-45">
          <mxGeometry relative="1" as="geometry">
            <mxPoint x="100" y="130" as="targetPoint" />
          </mxGeometry>
        </mxCell>
        <mxCell id="zOxOMmkY-V9XgHMvgOi8-45" value="S&lt;sup&gt;-1&lt;/sup&gt;" style="whiteSpace=wrap;html=1;aspect=fixed;rounded=1;fillColor=#ffe6cc;strokeColor=#d79b00;" vertex="1" parent="zOxOMmkY-V9XgHMvgOi8-1">
          <mxGeometry x="35" y="110" width="40" height="40" as="geometry" />
        </mxCell>
        <mxCell id="zOxOMmkY-V9XgHMvgOi8-46" value="&lt;b&gt;CS sampling&lt;/b&gt;" style="text;html=1;strokeColor=none;fillColor=none;align=center;verticalAlign=middle;whiteSpace=wrap;rounded=0;" vertex="1" parent="zOxOMmkY-V9XgHMvgOi8-1">
          <mxGeometry x="-50" y="50" width="40" height="20" as="geometry" />
        </mxCell>
        <mxCell id="zOxOMmkY-V9XgHMvgOi8-47" value="&lt;b&gt;Initial recovery&lt;/b&gt;" style="text;html=1;strokeColor=none;fillColor=none;align=center;verticalAlign=middle;whiteSpace=wrap;rounded=0;" vertex="1" parent="zOxOMmkY-V9XgHMvgOi8-1">
          <mxGeometry x="35" y="50" width="40" height="20" as="geometry" />
        </mxCell>
        <mxCell id="zOxOMmkY-V9XgHMvgOi8-48" value="&lt;b&gt;Deep recovery&lt;/b&gt;" style="text;html=1;strokeColor=none;fillColor=none;align=center;verticalAlign=middle;whiteSpace=wrap;rounded=0;" vertex="1" parent="zOxOMmkY-V9XgHMvgOi8-1">
          <mxGeometry x="490" y="50" width="40" height="20" as="geometry" />
        </mxCell>
        <mxCell id="zOxOMmkY-V9XgHMvgOi8-49" value="" style="curved=1;endArrow=classic;html=1;strokeWidth=2;exitX=0.5;exitY=1;exitDx=0;exitDy=0;entryX=0.5;entryY=0;entryDx=0;entryDy=0;dashed=1;" edge="1" parent="zOxOMmkY-V9XgHMvgOi8-1" source="zOxOMmkY-V9XgHMvgOi8-25" target="zOxOMmkY-V9XgHMvgOi8-2">
          <mxGeometry width="50" height="50" relative="1" as="geometry">
            <mxPoint x="520" y="210" as="sourcePoint" />
            <mxPoint x="570" y="160" as="targetPoint" />
            <Array as="points">
              <mxPoint x="500" y="180" />
              <mxPoint x="530" y="330" />
              <mxPoint x="400" y="320" />
            </Array>
          </mxGeometry>
        </mxCell>
        <mxCell id="zOxOMmkY-V9XgHMvgOi8-50" value="" style="endArrow=none;dashed=1;html=1;dashPattern=1 3;strokeWidth=2;" edge="1" parent="zOxOMmkY-V9XgHMvgOi8-1">
          <mxGeometry width="50" height="50" relative="1" as="geometry">
            <mxPoint x="14.289999999999964" y="70" as="sourcePoint" />
            <mxPoint x="14" y="40" as="targetPoint" />
          </mxGeometry>
        </mxCell>
        <mxCell id="zOxOMmkY-V9XgHMvgOi8-51" value="" style="endArrow=none;dashed=1;html=1;dashPattern=1 3;strokeWidth=2;" edge="1" parent="zOxOMmkY-V9XgHMvgOi8-1">
          <mxGeometry width="50" height="50" relative="1" as="geometry">
            <mxPoint x="204.57999999999993" y="70" as="sourcePoint" />
            <mxPoint x="204.28999999999996" y="40" as="targetPoint" />
          </mxGeometry>
        </mxCell>
        <mxCell id="zOxOMmkY-V9XgHMvgOi8-52" value="" style="endArrow=none;dashed=1;html=1;dashPattern=1 3;strokeWidth=2;" edge="1" parent="zOxOMmkY-V9XgHMvgOi8-1">
          <mxGeometry width="50" height="50" relative="1" as="geometry">
            <mxPoint x="839.6999999999998" y="75" as="sourcePoint" />
            <mxPoint x="839.4099999999999" y="45" as="targetPoint" />
          </mxGeometry>
        </mxCell>
        <mxCell id="zOxOMmkY-V9XgHMvgOi8-53" value="&lt;b&gt;Phase&amp;nbsp; &lt;i&gt;i&lt;/i&gt;&lt;/b&gt;" style="text;html=1;strokeColor=none;fillColor=none;align=center;verticalAlign=middle;whiteSpace=wrap;rounded=0;" vertex="1" parent="zOxOMmkY-V9XgHMvgOi8-1">
          <mxGeometry x="386.25" y="601" width="65" height="20" as="geometry" />
        </mxCell>
        <mxCell id="zOxOMmkY-V9XgHMvgOi8-55" value="1" style="text;html=1;strokeColor=none;fillColor=none;align=center;verticalAlign=middle;whiteSpace=wrap;rounded=0;" vertex="1" parent="zOxOMmkY-V9XgHMvgOi8-1">
          <mxGeometry x="185" y="80" width="40" height="20" as="geometry" />
        </mxCell>
        <mxCell id="zOxOMmkY-V9XgHMvgOi8-56" value="1" style="text;html=1;strokeColor=none;fillColor=none;align=center;verticalAlign=middle;whiteSpace=wrap;rounded=0;" vertex="1" parent="zOxOMmkY-V9XgHMvgOi8-1">
          <mxGeometry x="400" y="80" width="40" height="20" as="geometry" />
        </mxCell>
        <mxCell id="zOxOMmkY-V9XgHMvgOi8-57" value="1" style="text;html=1;strokeColor=none;fillColor=none;align=center;verticalAlign=middle;whiteSpace=wrap;rounded=0;" vertex="1" parent="zOxOMmkY-V9XgHMvgOi8-1">
          <mxGeometry x="630" y="80" width="40" height="20" as="geometry" />
        </mxCell>
        <mxCell id="zOxOMmkY-V9XgHMvgOi8-58" value="1" style="text;html=1;strokeColor=none;fillColor=none;align=center;verticalAlign=middle;whiteSpace=wrap;rounded=0;" vertex="1" parent="zOxOMmkY-V9XgHMvgOi8-1">
          <mxGeometry x="215" y="374" width="40" height="20" as="geometry" />
        </mxCell>
        <mxCell id="zOxOMmkY-V9XgHMvgOi8-59" value="1" style="text;html=1;strokeColor=none;fillColor=none;align=center;verticalAlign=middle;whiteSpace=wrap;rounded=0;" vertex="1" parent="zOxOMmkY-V9XgHMvgOi8-1">
          <mxGeometry x="597.5" y="381" width="40" height="20" as="geometry" />
        </mxCell>
        <mxCell id="zOxOMmkY-V9XgHMvgOi8-60" value="&lt;span style=&quot;color: rgb(0 , 0 , 0) ; font-family: &amp;#34;helvetica&amp;#34; ; font-size: 12px ; font-style: normal ; font-weight: 400 ; letter-spacing: normal ; text-align: center ; text-indent: 0px ; text-transform: none ; word-spacing: 0px ; background-color: rgb(248 , 249 , 250) ; display: inline ; float: none&quot;&gt;31&lt;/span&gt;" style="text;whiteSpace=wrap;html=1;" vertex="1" parent="zOxOMmkY-V9XgHMvgOi8-1">
          <mxGeometry x="197.5" y="180" width="10" height="30" as="geometry" />
        </mxCell>
        <mxCell id="zOxOMmkY-V9XgHMvgOi8-61" value="&lt;b&gt;`bb&quot;z&quot;_cc&quot;0&quot;`&lt;/b&gt;" style="text;html=1;strokeColor=none;fillColor=none;align=center;verticalAlign=middle;whiteSpace=wrap;rounded=0;" vertex="1" parent="zOxOMmkY-V9XgHMvgOi8-1">
          <mxGeometry x="187.5" y="264" width="40" height="20" as="geometry" />
        </mxCell>
        <mxCell id="zOxOMmkY-V9XgHMvgOi8-69" value="AC&lt;sub&gt;1&lt;/sub&gt;" style="whiteSpace=wrap;html=1;aspect=fixed;rounded=1;fillColor=#ffe6cc;strokeColor=#d79b00;" vertex="1" parent="zOxOMmkY-V9XgHMvgOi8-1">
          <mxGeometry x="415" y="467" width="40" height="40" as="geometry" />
        </mxCell>
        <mxCell id="zOxOMmkY-V9XgHMvgOi8-70" value="AC&lt;sub&gt;2&lt;/sub&gt;" style="whiteSpace=wrap;html=1;aspect=fixed;rounded=1;fillColor=#ffe6cc;strokeColor=#d79b00;" vertex="1" parent="zOxOMmkY-V9XgHMvgOi8-1">
          <mxGeometry x="480" y="467" width="40" height="40" as="geometry" />
        </mxCell>
        <mxCell id="zOxOMmkY-V9XgHMvgOi8-71" value="" style="endArrow=classic;html=1;exitX=1;exitY=0.25;exitDx=0;exitDy=0;entryX=0;entryY=0.75;entryDx=0;entryDy=0;" edge="1" parent="zOxOMmkY-V9XgHMvgOi8-1" source="zOxOMmkY-V9XgHMvgOi8-69" target="zOxOMmkY-V9XgHMvgOi8-70">
          <mxGeometry width="50" height="50" relative="1" as="geometry">
            <mxPoint x="440" y="459" as="sourcePoint" />
            <mxPoint x="490" y="409" as="targetPoint" />
          </mxGeometry>
        </mxCell>
        <mxCell id="zOxOMmkY-V9XgHMvgOi8-72" value="" style="endArrow=classic;html=1;entryX=0;entryY=0.25;entryDx=0;entryDy=0;exitX=1;exitY=0.75;exitDx=0;exitDy=0;" edge="1" parent="zOxOMmkY-V9XgHMvgOi8-1" source="zOxOMmkY-V9XgHMvgOi8-69" target="zOxOMmkY-V9XgHMvgOi8-70">
          <mxGeometry width="50" height="50" relative="1" as="geometry">
            <mxPoint x="440" y="439" as="sourcePoint" />
            <mxPoint x="507.5" y="449" as="targetPoint" />
          </mxGeometry>
        </mxCell>
        <mxCell id="zOxOMmkY-V9XgHMvgOi8-77" value="" style="endArrow=classic;html=1;strokeWidth=2;exitX=1;exitY=0.5;exitDx=0;exitDy=0;entryX=0;entryY=0.5;entryDx=0;entryDy=0;" edge="1" parent="zOxOMmkY-V9XgHMvgOi8-1" target="zOxOMmkY-V9XgHMvgOi8-80">
          <mxGeometry width="50" height="50" relative="1" as="geometry">
            <mxPoint x="246" y="523" as="sourcePoint" />
            <mxPoint x="320" y="531.5" as="targetPoint" />
            <Array as="points">
              <mxPoint x="280" y="489" />
            </Array>
          </mxGeometry>
        </mxCell>
        <mxCell id="zOxOMmkY-V9XgHMvgOi8-79" value="" style="edgeStyle=orthogonalEdgeStyle;rounded=0;orthogonalLoop=1;jettySize=auto;html=1;" edge="1" parent="zOxOMmkY-V9XgHMvgOi8-1" source="zOxOMmkY-V9XgHMvgOi8-80">
          <mxGeometry relative="1" as="geometry">
            <mxPoint x="377.5" y="489.0588235294118" as="targetPoint" />
          </mxGeometry>
        </mxCell>
        <mxCell id="zOxOMmkY-V9XgHMvgOi8-80" value="+" style="ellipse;whiteSpace=wrap;html=1;aspect=fixed;dashed=1;" vertex="1" parent="zOxOMmkY-V9XgHMvgOi8-1">
          <mxGeometry x="325" y="474" width="30" height="30" as="geometry" />
        </mxCell>
        <mxCell id="zOxOMmkY-V9XgHMvgOi8-82" value="&lt;span style=&quot;color: rgb(0 , 0 , 0) ; font-family: &amp;#34;helvetica&amp;#34; ; font-size: 12px ; font-style: normal ; font-weight: 400 ; letter-spacing: normal ; text-align: center ; text-indent: 0px ; text-transform: none ; word-spacing: 0px ; background-color: rgb(248 , 249 , 250) ; display: inline ; float: none&quot;&gt;32&lt;/span&gt;" style="text;whiteSpace=wrap;html=1;" vertex="1" parent="zOxOMmkY-V9XgHMvgOi8-1">
          <mxGeometry x="380.5" y="437" width="10" height="30" as="geometry" />
        </mxCell>
        <mxCell id="zOxOMmkY-V9XgHMvgOi8-84" value="" style="edgeStyle=orthogonalEdgeStyle;rounded=0;orthogonalLoop=1;jettySize=auto;html=1;" edge="1" parent="zOxOMmkY-V9XgHMvgOi8-1">
          <mxGeometry relative="1" as="geometry">
            <mxPoint x="397.5" y="488" as="sourcePoint" />
            <mxPoint x="420" y="488" as="targetPoint" />
          </mxGeometry>
        </mxCell>
        <mxCell id="zOxOMmkY-V9XgHMvgOi8-85" value="&lt;b&gt;`bb&quot;c&quot;_cc&quot;i-1&quot;`&lt;/b&gt;" style="text;html=1;strokeColor=none;fillColor=none;align=center;verticalAlign=middle;whiteSpace=wrap;rounded=0;" vertex="1" parent="zOxOMmkY-V9XgHMvgOi8-1">
          <mxGeometry x="367.5" y="521" width="40" height="20" as="geometry" />
        </mxCell>
        <mxCell id="zOxOMmkY-V9XgHMvgOi8-91" value="" style="edgeStyle=orthogonalEdgeStyle;rounded=0;orthogonalLoop=1;jettySize=auto;html=1;" edge="1" parent="zOxOMmkY-V9XgHMvgOi8-1">
          <mxGeometry relative="1" as="geometry">
            <mxPoint x="517.5" y="488" as="sourcePoint" />
            <mxPoint x="530" y="488" as="targetPoint" />
          </mxGeometry>
        </mxCell>
        <mxCell id="zOxOMmkY-V9XgHMvgOi8-96" value="" style="endArrow=classic;html=1;strokeWidth=2;entryX=0;entryY=0.5;entryDx=0;entryDy=0;exitX=1;exitY=0.5;exitDx=0;exitDy=0;" edge="1" parent="zOxOMmkY-V9XgHMvgOi8-1" source="zOxOMmkY-V9XgHMvgOi8-143" target="zOxOMmkY-V9XgHMvgOi8-21">
          <mxGeometry width="50" height="50" relative="1" as="geometry">
            <mxPoint x="650.5" y="334" as="sourcePoint" />
            <mxPoint x="725" y="519" as="targetPoint" />
            <Array as="points">
              <mxPoint x="577.5" y="491" />
              <mxPoint x="587.5" y="431" />
            </Array>
          </mxGeometry>
        </mxCell>
        <mxCell id="zOxOMmkY-V9XgHMvgOi8-158" value="Split" style="edgeLabel;html=1;align=center;verticalAlign=middle;resizable=0;points=[];" vertex="1" connectable="0" parent="zOxOMmkY-V9XgHMvgOi8-96">
          <mxGeometry x="-0.5811" y="-1" relative="1" as="geometry">
            <mxPoint x="-9.709999999999999" y="-14" as="offset" />
          </mxGeometry>
        </mxCell>
        <mxCell id="zOxOMmkY-V9XgHMvgOi8-100" value="" style="endArrow=classic;html=1;strokeWidth=2;" edge="1" parent="zOxOMmkY-V9XgHMvgOi8-1">
          <mxGeometry width="50" height="50" relative="1" as="geometry">
            <mxPoint x="547.5" y="491" as="sourcePoint" />
            <mxPoint x="607.5" y="554" as="targetPoint" />
            <Array as="points">
              <mxPoint x="577.5" y="491" />
              <mxPoint x="587.5" y="554" />
            </Array>
          </mxGeometry>
        </mxCell>
        <mxCell id="zOxOMmkY-V9XgHMvgOi8-102" value="&lt;b&gt;`bb&quot;x&quot;_cc&quot;i&quot;`&lt;/b&gt;" style="text;html=1;strokeColor=none;fillColor=none;align=center;verticalAlign=middle;whiteSpace=wrap;rounded=0;" vertex="1" parent="zOxOMmkY-V9XgHMvgOi8-1">
          <mxGeometry x="602.5" y="465" width="40" height="20" as="geometry" />
        </mxCell>
        <mxCell id="zOxOMmkY-V9XgHMvgOi8-104" value="1" style="text;html=1;strokeColor=none;fillColor=none;align=center;verticalAlign=middle;whiteSpace=wrap;rounded=0;" vertex="1" parent="zOxOMmkY-V9XgHMvgOi8-1">
          <mxGeometry x="90" y="80" width="40" height="20" as="geometry" />
        </mxCell>
        <mxCell id="zOxOMmkY-V9XgHMvgOi8-105" value="" style="rounded=0;whiteSpace=wrap;html=1;fillColor=#d5e8d4;strokeColor=#82b366;" vertex="1" parent="zOxOMmkY-V9XgHMvgOi8-1">
          <mxGeometry x="100" y="100" width="10" height="60" as="geometry" />
        </mxCell>
        <mxCell id="zOxOMmkY-V9XgHMvgOi8-106" value="ResNet" style="whiteSpace=wrap;html=1;rounded=1;fillColor=#1ba1e2;strokeColor=#006EAF;fontColor=#ffffff;" vertex="1" parent="zOxOMmkY-V9XgHMvgOi8-1">
          <mxGeometry x="126" y="214" width="45" height="40" as="geometry" />
        </mxCell>
        <mxCell id="zOxOMmkY-V9XgHMvgOi8-107" value="" style="edgeStyle=orthogonalEdgeStyle;rounded=0;orthogonalLoop=1;jettySize=auto;html=1;strokeWidth=2;" edge="1" parent="zOxOMmkY-V9XgHMvgOi8-1">
          <mxGeometry relative="1" as="geometry">
            <mxPoint x="196" y="233.5" as="targetPoint" />
            <mxPoint x="171" y="233.5" as="sourcePoint" />
          </mxGeometry>
        </mxCell>
        <mxCell id="zOxOMmkY-V9XgHMvgOi8-108" value="" style="endArrow=classic;html=1;strokeWidth=2;exitX=1;exitY=0.25;exitDx=0;exitDy=0;entryX=0;entryY=0.5;entryDx=0;entryDy=0;" edge="1" parent="zOxOMmkY-V9XgHMvgOi8-1" target="zOxOMmkY-V9XgHMvgOi8-106">
          <mxGeometry width="50" height="50" relative="1" as="geometry">
            <mxPoint x="111" y="130" as="sourcePoint" />
            <mxPoint x="171" y="150" as="targetPoint" />
            <Array as="points">
              <mxPoint x="126" y="130" />
              <mxPoint x="120" y="180" />
              <mxPoint x="111" y="234" />
            </Array>
          </mxGeometry>
        </mxCell>
        <mxCell id="zOxOMmkY-V9XgHMvgOi8-109" value="" style="edgeStyle=orthogonalEdgeStyle;rounded=0;orthogonalLoop=1;jettySize=auto;html=1;strokeWidth=2;entryX=0;entryY=0.5;entryDx=0;entryDy=0;exitX=1;exitY=0.5;exitDx=0;exitDy=0;" edge="1" parent="zOxOMmkY-V9XgHMvgOi8-1" source="zOxOMmkY-V9XgHMvgOi8-105" target="zOxOMmkY-V9XgHMvgOi8-13">
          <mxGeometry relative="1" as="geometry">
            <mxPoint x="155" y="129.5" as="targetPoint" />
            <mxPoint x="130" y="129.5" as="sourcePoint" />
          </mxGeometry>
        </mxCell>
        <mxCell id="zOxOMmkY-V9XgHMvgOi8-110" value="Conv" style="whiteSpace=wrap;html=1;aspect=fixed;rounded=1;fillColor=#ffe6cc;strokeColor=#d79b00;" vertex="1" parent="zOxOMmkY-V9XgHMvgOi8-1">
          <mxGeometry x="-50" y="389" width="40" height="40" as="geometry" />
        </mxCell>
        <mxCell id="zOxOMmkY-V9XgHMvgOi8-163" value="" style="edgeStyle=orthogonalEdgeStyle;rounded=0;orthogonalLoop=1;jettySize=auto;html=1;entryX=0;entryY=0.5;entryDx=0;entryDy=0;" edge="1" parent="zOxOMmkY-V9XgHMvgOi8-1" source="zOxOMmkY-V9XgHMvgOi8-111" target="zOxOMmkY-V9XgHMvgOi8-161">
          <mxGeometry relative="1" as="geometry" />
        </mxCell>
        <mxCell id="zOxOMmkY-V9XgHMvgOi8-111" value="Conv" style="whiteSpace=wrap;html=1;aspect=fixed;rounded=1;fillColor=#ffe6cc;strokeColor=#d79b00;" vertex="1" parent="zOxOMmkY-V9XgHMvgOi8-1">
          <mxGeometry x="62" y="389" width="40" height="40" as="geometry" />
        </mxCell>
        <mxCell id="zOxOMmkY-V9XgHMvgOi8-112" value="Relu" style="whiteSpace=wrap;html=1;aspect=fixed;rounded=1;fillColor=#ffe6cc;strokeColor=#d79b00;" vertex="1" parent="zOxOMmkY-V9XgHMvgOi8-1">
          <mxGeometry x="6" y="389" width="40" height="40" as="geometry" />
        </mxCell>
        <mxCell id="zOxOMmkY-V9XgHMvgOi8-115" value="" style="curved=1;endArrow=classic;html=1;strokeWidth=2;exitX=0.5;exitY=1;exitDx=0;exitDy=0;dashed=1;" edge="1" parent="zOxOMmkY-V9XgHMvgOi8-1">
          <mxGeometry width="50" height="50" relative="1" as="geometry">
            <mxPoint x="140" y="255.9999999999999" as="sourcePoint" />
            <mxPoint x="30" y="370" as="targetPoint" />
            <Array as="points">
              <mxPoint x="130" y="286" />
              <mxPoint x="40" y="310" />
            </Array>
          </mxGeometry>
        </mxCell>
        <mxCell id="zOxOMmkY-V9XgHMvgOi8-116" value="" style="edgeStyle=orthogonalEdgeStyle;rounded=0;orthogonalLoop=1;jettySize=auto;html=1;strokeWidth=2;entryX=0;entryY=0.5;entryDx=0;entryDy=0;" edge="1" parent="zOxOMmkY-V9XgHMvgOi8-1">
          <mxGeometry relative="1" as="geometry">
            <mxPoint x="-10" y="407.8200000000001" as="sourcePoint" />
            <mxPoint x="10" y="407.8199999999999" as="targetPoint" />
          </mxGeometry>
        </mxCell>
        <mxCell id="zOxOMmkY-V9XgHMvgOi8-119" value="" style="edgeStyle=orthogonalEdgeStyle;rounded=0;orthogonalLoop=1;jettySize=auto;html=1;strokeWidth=2;entryX=0;entryY=0.5;entryDx=0;entryDy=0;" edge="1" parent="zOxOMmkY-V9XgHMvgOi8-1">
          <mxGeometry relative="1" as="geometry">
            <mxPoint x="45.99999999999977" y="409.00000000000017" as="sourcePoint" />
            <mxPoint x="65.99999999999977" y="408.99999999999994" as="targetPoint" />
          </mxGeometry>
        </mxCell>
        <mxCell id="zOxOMmkY-V9XgHMvgOi8-123" value="" style="edgeStyle=orthogonalEdgeStyle;rounded=0;orthogonalLoop=1;jettySize=auto;html=1;entryX=0;entryY=0.5;entryDx=0;entryDy=0;" edge="1" parent="zOxOMmkY-V9XgHMvgOi8-1" source="zOxOMmkY-V9XgHMvgOi8-120" target="zOxOMmkY-V9XgHMvgOi8-110">
          <mxGeometry relative="1" as="geometry">
            <mxPoint x="-74" y="409" as="targetPoint" />
          </mxGeometry>
        </mxCell>
        <mxCell id="zOxOMmkY-V9XgHMvgOi8-120" value="" style="rounded=0;whiteSpace=wrap;html=1;fillColor=#d5e8d4;strokeColor=#82b366;" vertex="1" parent="zOxOMmkY-V9XgHMvgOi8-1">
          <mxGeometry x="-99" y="379" width="10" height="60" as="geometry" />
        </mxCell>
        <mxCell id="zOxOMmkY-V9XgHMvgOi8-121" value="&lt;b&gt;`bb&quot;x&quot;_cc&quot;0&quot;`&lt;/b&gt;" style="text;html=1;strokeColor=none;fillColor=none;align=center;verticalAlign=middle;whiteSpace=wrap;rounded=0;" vertex="1" parent="zOxOMmkY-V9XgHMvgOi8-1">
          <mxGeometry x="-114" y="441" width="40" height="20" as="geometry" />
        </mxCell>
        <mxCell id="zOxOMmkY-V9XgHMvgOi8-122" value="1" style="text;html=1;strokeColor=none;fillColor=none;align=center;verticalAlign=middle;whiteSpace=wrap;rounded=0;" vertex="1" parent="zOxOMmkY-V9XgHMvgOi8-1">
          <mxGeometry x="-114" y="357" width="40" height="20" as="geometry" />
        </mxCell>
        <mxCell id="zOxOMmkY-V9XgHMvgOi8-126" value="" style="rounded=0;whiteSpace=wrap;html=1;strokeColor=#b46504;fillColor=#FFF2CC;" vertex="1" parent="zOxOMmkY-V9XgHMvgOi8-1">
          <mxGeometry x="200" y="200" width="10" height="60" as="geometry" />
        </mxCell>
        <mxCell id="zOxOMmkY-V9XgHMvgOi8-130" value="&lt;span style=&quot;color: rgb(0 , 0 , 0) ; font-family: &amp;#34;helvetica&amp;#34; ; font-size: 12px ; font-style: normal ; font-weight: 400 ; letter-spacing: normal ; text-align: center ; text-indent: 0px ; text-transform: none ; word-spacing: 0px ; background-color: rgb(248 , 249 , 250) ; display: inline ; float: none&quot;&gt;31&lt;/span&gt;" style="text;whiteSpace=wrap;html=1;" vertex="1" parent="zOxOMmkY-V9XgHMvgOi8-1">
          <mxGeometry x="413.75" y="182" width="10" height="30" as="geometry" />
        </mxCell>
        <mxCell id="zOxOMmkY-V9XgHMvgOi8-131" value="&lt;b&gt;`bb&quot;z&quot;_cc&quot;i-1&quot;`&lt;/b&gt;" style="text;html=1;strokeColor=none;fillColor=none;align=center;verticalAlign=middle;whiteSpace=wrap;rounded=0;" vertex="1" parent="zOxOMmkY-V9XgHMvgOi8-1">
          <mxGeometry x="403.75" y="266" width="40" height="20" as="geometry" />
        </mxCell>
        <mxCell id="zOxOMmkY-V9XgHMvgOi8-132" value="" style="rounded=0;whiteSpace=wrap;html=1;strokeColor=#b46504;fillColor=#FFF2CC;" vertex="1" parent="zOxOMmkY-V9XgHMvgOi8-1">
          <mxGeometry x="416.25" y="202" width="10" height="60" as="geometry" />
        </mxCell>
        <mxCell id="zOxOMmkY-V9XgHMvgOi8-133" value="&lt;span style=&quot;color: rgb(0 , 0 , 0) ; font-family: &amp;#34;helvetica&amp;#34; ; font-size: 12px ; font-style: normal ; font-weight: 400 ; letter-spacing: normal ; text-align: center ; text-indent: 0px ; text-transform: none ; word-spacing: 0px ; background-color: rgb(248 , 249 , 250) ; display: inline ; float: none&quot;&gt;31&lt;/span&gt;" style="text;whiteSpace=wrap;html=1;" vertex="1" parent="zOxOMmkY-V9XgHMvgOi8-1">
          <mxGeometry x="642.5" y="182" width="10" height="30" as="geometry" />
        </mxCell>
        <mxCell id="zOxOMmkY-V9XgHMvgOi8-134" value="&lt;b&gt;`bb&quot;z&quot;_cc&quot;p-1&quot;`&lt;/b&gt;" style="text;html=1;strokeColor=none;fillColor=none;align=center;verticalAlign=middle;whiteSpace=wrap;rounded=0;" vertex="1" parent="zOxOMmkY-V9XgHMvgOi8-1">
          <mxGeometry x="632.5" y="266" width="40" height="20" as="geometry" />
        </mxCell>
        <mxCell id="zOxOMmkY-V9XgHMvgOi8-135" value="" style="rounded=0;whiteSpace=wrap;html=1;strokeColor=#b46504;fillColor=#FFF2CC;" vertex="1" parent="zOxOMmkY-V9XgHMvgOi8-1">
          <mxGeometry x="645" y="202" width="10" height="60" as="geometry" />
        </mxCell>
        <mxCell id="zOxOMmkY-V9XgHMvgOi8-136" value="&lt;span style=&quot;color: rgb(0 , 0 , 0) ; font-family: &amp;#34;helvetica&amp;#34; ; font-size: 12px ; font-style: normal ; font-weight: 400 ; letter-spacing: normal ; text-align: center ; text-indent: 0px ; text-transform: none ; word-spacing: 0px ; background-color: rgb(248 , 249 , 250) ; display: inline ; float: none&quot;&gt;31&lt;/span&gt;" style="text;whiteSpace=wrap;html=1;" vertex="1" parent="zOxOMmkY-V9XgHMvgOi8-1">
          <mxGeometry x="225" y="499" width="10" height="30" as="geometry" />
        </mxCell>
        <mxCell id="zOxOMmkY-V9XgHMvgOi8-137" value="&lt;b&gt;`bb&quot;z&quot;_cc&quot;i-1&quot;`&lt;/b&gt;" style="text;html=1;strokeColor=none;fillColor=none;align=center;verticalAlign=middle;whiteSpace=wrap;rounded=0;" vertex="1" parent="zOxOMmkY-V9XgHMvgOi8-1">
          <mxGeometry x="215" y="583" width="40" height="20" as="geometry" />
        </mxCell>
        <mxCell id="zOxOMmkY-V9XgHMvgOi8-138" value="" style="rounded=0;whiteSpace=wrap;html=1;strokeColor=#b46504;fillColor=#FFF2CC;" vertex="1" parent="zOxOMmkY-V9XgHMvgOi8-1">
          <mxGeometry x="227.5" y="519" width="10" height="60" as="geometry" />
        </mxCell>
        <mxCell id="zOxOMmkY-V9XgHMvgOi8-140" value="" style="rounded=0;whiteSpace=wrap;html=1;strokeColor=#b46504;fillColor=#D80073;" vertex="1" parent="zOxOMmkY-V9XgHMvgOi8-1">
          <mxGeometry x="382.5" y="463" width="10" height="60" as="geometry" />
        </mxCell>
        <mxCell id="zOxOMmkY-V9XgHMvgOi8-142" value="&lt;span style=&quot;color: rgb(0 , 0 , 0) ; font-family: &amp;#34;helvetica&amp;#34; ; font-size: 12px ; font-style: normal ; font-weight: 400 ; letter-spacing: normal ; text-align: center ; text-indent: 0px ; text-transform: none ; word-spacing: 0px ; background-color: rgb(248 , 249 , 250) ; display: inline ; float: none&quot;&gt;32&lt;/span&gt;" style="text;whiteSpace=wrap;html=1;" vertex="1" parent="zOxOMmkY-V9XgHMvgOi8-1">
          <mxGeometry x="533" y="435" width="10" height="30" as="geometry" />
        </mxCell>
        <mxCell id="zOxOMmkY-V9XgHMvgOi8-143" value="" style="rounded=0;whiteSpace=wrap;html=1;strokeColor=#b46504;fillColor=#D80073;" vertex="1" parent="zOxOMmkY-V9XgHMvgOi8-1">
          <mxGeometry x="535" y="461" width="10" height="60" as="geometry" />
        </mxCell>
        <mxCell id="zOxOMmkY-V9XgHMvgOi8-144" value="&lt;b&gt;`bb&quot;c&quot;_cc&quot;i&quot;`&lt;/b&gt;" style="text;html=1;strokeColor=none;fillColor=none;align=center;verticalAlign=middle;whiteSpace=wrap;rounded=0;" vertex="1" parent="zOxOMmkY-V9XgHMvgOi8-1">
          <mxGeometry x="520" y="519" width="40" height="20" as="geometry" />
        </mxCell>
        <mxCell id="zOxOMmkY-V9XgHMvgOi8-149" value="&lt;span style=&quot;color: rgb(0 , 0 , 0) ; font-family: &amp;#34;helvetica&amp;#34; ; font-size: 12px ; font-style: normal ; font-weight: 400 ; letter-spacing: normal ; text-align: center ; text-indent: 0px ; text-transform: none ; word-spacing: 0px ; background-color: rgb(248 , 249 , 250) ; display: inline ; float: none&quot;&gt;31&lt;/span&gt;" style="text;whiteSpace=wrap;html=1;" vertex="1" parent="zOxOMmkY-V9XgHMvgOi8-1">
          <mxGeometry x="607.5" y="497" width="10" height="30" as="geometry" />
        </mxCell>
        <mxCell id="zOxOMmkY-V9XgHMvgOi8-150" value="&lt;b&gt;`bb&quot;z&quot;_cc&quot;i&quot;`&lt;/b&gt;" style="text;html=1;strokeColor=none;fillColor=none;align=center;verticalAlign=middle;whiteSpace=wrap;rounded=0;" vertex="1" parent="zOxOMmkY-V9XgHMvgOi8-1">
          <mxGeometry x="597.5" y="581" width="40" height="20" as="geometry" />
        </mxCell>
        <mxCell id="zOxOMmkY-V9XgHMvgOi8-151" value="" style="rounded=0;whiteSpace=wrap;html=1;strokeColor=#b46504;fillColor=#FFF2CC;" vertex="1" parent="zOxOMmkY-V9XgHMvgOi8-1">
          <mxGeometry x="610" y="517" width="10" height="60" as="geometry" />
        </mxCell>
        <mxCell id="zOxOMmkY-V9XgHMvgOi8-153" value="r" style="whiteSpace=wrap;html=1;aspect=fixed;rounded=1;fillColor=#ffe6cc;strokeColor=#d79b00;" vertex="1" parent="zOxOMmkY-V9XgHMvgOi8-1">
          <mxGeometry x="275" y="409" width="40" height="40" as="geometry" />
        </mxCell>
        <mxCell id="zOxOMmkY-V9XgHMvgOi8-154" value="" style="edgeStyle=orthogonalEdgeStyle;rounded=0;orthogonalLoop=1;jettySize=auto;html=1;" edge="1" parent="zOxOMmkY-V9XgHMvgOi8-1">
          <mxGeometry relative="1" as="geometry">
            <mxPoint x="312.499884659303" y="428.40882352941185" as="sourcePoint" />
            <mxPoint x="335" y="428.40882352941185" as="targetPoint" />
          </mxGeometry>
        </mxCell>
        <mxCell id="zOxOMmkY-V9XgHMvgOi8-157" value="1" style="text;html=1;strokeColor=none;fillColor=none;align=center;verticalAlign=middle;whiteSpace=wrap;rounded=0;" vertex="1" parent="zOxOMmkY-V9XgHMvgOi8-1">
          <mxGeometry x="320" y="377" width="40" height="20" as="geometry" />
        </mxCell>
        <mxCell id="zOxOMmkY-V9XgHMvgOi8-160" value="&lt;span style=&quot;color: rgb(0 , 0 , 0) ; font-family: &amp;#34;helvetica&amp;#34; ; font-size: 12px ; font-style: normal ; font-weight: 400 ; letter-spacing: normal ; text-align: center ; text-indent: 0px ; text-transform: none ; word-spacing: 0px ; background-color: rgb(248 , 249 , 250) ; display: inline ; float: none&quot;&gt;31&lt;/span&gt;" style="text;whiteSpace=wrap;html=1;" vertex="1" parent="zOxOMmkY-V9XgHMvgOi8-1">
          <mxGeometry x="143.5" y="357" width="10" height="30" as="geometry" />
        </mxCell>
        <mxCell id="zOxOMmkY-V9XgHMvgOi8-161" value="" style="rounded=0;whiteSpace=wrap;html=1;strokeColor=#b46504;fillColor=#FFF2CC;" vertex="1" parent="zOxOMmkY-V9XgHMvgOi8-1">
          <mxGeometry x="146" y="379" width="10" height="60" as="geometry" />
        </mxCell>
        <mxCell id="zOxOMmkY-V9XgHMvgOi8-162" value="&lt;b&gt;`bb&quot;z&quot;_cc&quot;0&quot;`&lt;/b&gt;" style="text;html=1;strokeColor=none;fillColor=none;align=center;verticalAlign=middle;whiteSpace=wrap;rounded=0;" vertex="1" parent="zOxOMmkY-V9XgHMvgOi8-1">
          <mxGeometry x="131" y="440" width="40" height="20" as="geometry" />
        </mxCell>
      </root>
    </mxGraphModel>
  </diagram>
  <diagram name="Copy of iISTA-Plus-Res" id="_V0W0ljwl_ydlj84Fw3E">
    <mxGraphModel dx="1876" dy="404" grid="1" gridSize="10" guides="1" tooltips="1" connect="1" arrows="1" fold="1" page="1" pageScale="1" pageWidth="850" pageHeight="1100" math="1" shadow="0">
      <root>
        <mxCell id="G9ug4jsgUxjLxTkRgHg6-0" />
        <mxCell id="G9ug4jsgUxjLxTkRgHg6-1" parent="G9ug4jsgUxjLxTkRgHg6-0" />
        <mxCell id="G9ug4jsgUxjLxTkRgHg6-2" style="edgeStyle=orthogonalEdgeStyle;rounded=0;orthogonalLoop=1;jettySize=auto;html=1;exitX=0;exitY=0.5;exitDx=0;exitDy=0;entryX=0;entryY=0.5;entryDx=0;entryDy=0;" edge="1" parent="G9ug4jsgUxjLxTkRgHg6-1" source="G9ug4jsgUxjLxTkRgHg6-3" target="G9ug4jsgUxjLxTkRgHg6-83">
          <mxGeometry relative="1" as="geometry" />
        </mxCell>
        <mxCell id="G9ug4jsgUxjLxTkRgHg6-3" value="" style="whiteSpace=wrap;html=1;rounded=1;fillColor=#1ba1e2;strokeColor=#006EAF;fontColor=#ffffff;" vertex="1" parent="G9ug4jsgUxjLxTkRgHg6-1">
          <mxGeometry x="-74" y="371" width="200" height="76" as="geometry" />
        </mxCell>
        <mxCell id="G9ug4jsgUxjLxTkRgHg6-4" value="" style="rounded=1;whiteSpace=wrap;html=1;fillColor=#dae8fc;strokeColor=#6c8ebf;" vertex="1" parent="G9ug4jsgUxjLxTkRgHg6-1">
          <mxGeometry x="257.5" y="373" width="340" height="251" as="geometry" />
        </mxCell>
        <mxCell id="G9ug4jsgUxjLxTkRgHg6-5" value="" style="rounded=0;whiteSpace=wrap;html=1;dashed=1;" vertex="1" parent="G9ug4jsgUxjLxTkRgHg6-1">
          <mxGeometry x="637.5" y="80" width="25" height="220" as="geometry" />
        </mxCell>
        <mxCell id="G9ug4jsgUxjLxTkRgHg6-6" value="" style="rounded=0;whiteSpace=wrap;html=1;dashed=1;" vertex="1" parent="G9ug4jsgUxjLxTkRgHg6-1">
          <mxGeometry x="407.5" y="80" width="25" height="220" as="geometry" />
        </mxCell>
        <mxCell id="G9ug4jsgUxjLxTkRgHg6-7" value="" style="rounded=0;whiteSpace=wrap;html=1;dashed=1;" vertex="1" parent="G9ug4jsgUxjLxTkRgHg6-1">
          <mxGeometry x="195" y="80" width="25" height="220" as="geometry" />
        </mxCell>
        <mxCell id="G9ug4jsgUxjLxTkRgHg6-8" value="" style="edgeStyle=orthogonalEdgeStyle;rounded=0;orthogonalLoop=1;jettySize=auto;html=1;strokeWidth=2;" edge="1" parent="G9ug4jsgUxjLxTkRgHg6-1">
          <mxGeometry relative="1" as="geometry">
            <mxPoint x="305" y="160" as="sourcePoint" />
          </mxGeometry>
        </mxCell>
        <mxCell id="G9ug4jsgUxjLxTkRgHg6-9" value="" style="edgeStyle=orthogonalEdgeStyle;rounded=0;orthogonalLoop=1;jettySize=auto;html=1;strokeWidth=2;" edge="1" parent="G9ug4jsgUxjLxTkRgHg6-1">
          <mxGeometry relative="1" as="geometry">
            <mxPoint x="397.5" y="160" as="sourcePoint" />
          </mxGeometry>
        </mxCell>
        <mxCell id="G9ug4jsgUxjLxTkRgHg6-10" value="" style="edgeStyle=orthogonalEdgeStyle;rounded=0;orthogonalLoop=1;jettySize=auto;html=1;strokeWidth=2;" edge="1" parent="G9ug4jsgUxjLxTkRgHg6-1" source="G9ug4jsgUxjLxTkRgHg6-11">
          <mxGeometry relative="1" as="geometry">
            <mxPoint x="-50" y="130" as="targetPoint" />
          </mxGeometry>
        </mxCell>
        <mxCell id="G9ug4jsgUxjLxTkRgHg6-11" value="" style="rounded=0;whiteSpace=wrap;html=1;" vertex="1" parent="G9ug4jsgUxjLxTkRgHg6-1">
          <mxGeometry x="-85" y="100" width="10" height="60" as="geometry" />
        </mxCell>
        <mxCell id="G9ug4jsgUxjLxTkRgHg6-12" value="" style="edgeStyle=orthogonalEdgeStyle;rounded=0;orthogonalLoop=1;jettySize=auto;html=1;strokeWidth=2;" edge="1" parent="G9ug4jsgUxjLxTkRgHg6-1" source="G9ug4jsgUxjLxTkRgHg6-13" target="G9ug4jsgUxjLxTkRgHg6-46">
          <mxGeometry relative="1" as="geometry" />
        </mxCell>
        <mxCell id="G9ug4jsgUxjLxTkRgHg6-13" value="" style="rounded=0;whiteSpace=wrap;html=1;fillColor=#f5f5f5;strokeColor=#666666;fontColor=#333333;" vertex="1" parent="G9ug4jsgUxjLxTkRgHg6-1">
          <mxGeometry x="10" y="100" width="10" height="60" as="geometry" />
        </mxCell>
        <mxCell id="G9ug4jsgUxjLxTkRgHg6-14" value="" style="edgeStyle=orthogonalEdgeStyle;rounded=0;orthogonalLoop=1;jettySize=auto;html=1;strokeWidth=2;" edge="1" parent="G9ug4jsgUxjLxTkRgHg6-1" source="G9ug4jsgUxjLxTkRgHg6-15" target="G9ug4jsgUxjLxTkRgHg6-24">
          <mxGeometry relative="1" as="geometry" />
        </mxCell>
        <mxCell id="G9ug4jsgUxjLxTkRgHg6-15" value="" style="rounded=0;whiteSpace=wrap;html=1;fillColor=#d5e8d4;strokeColor=#82b366;" vertex="1" parent="G9ug4jsgUxjLxTkRgHg6-1">
          <mxGeometry x="200" y="100" width="10" height="60" as="geometry" />
        </mxCell>
        <mxCell id="G9ug4jsgUxjLxTkRgHg6-16" value="" style="rounded=0;whiteSpace=wrap;html=1;fillColor=#d5e8d4;strokeColor=#82b366;" vertex="1" parent="G9ug4jsgUxjLxTkRgHg6-1">
          <mxGeometry x="230" y="394" width="10" height="60" as="geometry" />
        </mxCell>
        <mxCell id="G9ug4jsgUxjLxTkRgHg6-17" value="&lt;b&gt;`bb&quot;x&quot;_cc&quot;i-1&quot;`&lt;/b&gt;" style="text;html=1;strokeColor=none;fillColor=none;align=center;verticalAlign=middle;whiteSpace=wrap;rounded=0;" vertex="1" parent="G9ug4jsgUxjLxTkRgHg6-1">
          <mxGeometry x="215" y="458" width="40" height="20" as="geometry" />
        </mxCell>
        <mxCell id="G9ug4jsgUxjLxTkRgHg6-18" value="" style="endArrow=classic;html=1;strokeWidth=2;exitX=1;exitY=0.25;exitDx=0;exitDy=0;" edge="1" parent="G9ug4jsgUxjLxTkRgHg6-1" source="G9ug4jsgUxjLxTkRgHg6-16">
          <mxGeometry width="50" height="50" relative="1" as="geometry">
            <mxPoint x="270" y="429" as="sourcePoint" />
            <mxPoint x="277.5" y="429" as="targetPoint" />
            <Array as="points">
              <mxPoint x="260" y="429" />
            </Array>
          </mxGeometry>
        </mxCell>
        <mxCell id="G9ug4jsgUxjLxTkRgHg6-19" value="" style="edgeStyle=orthogonalEdgeStyle;rounded=0;orthogonalLoop=1;jettySize=auto;html=1;entryX=0.5;entryY=0;entryDx=0;entryDy=0;" edge="1" parent="G9ug4jsgUxjLxTkRgHg6-1" source="G9ug4jsgUxjLxTkRgHg6-20" target="G9ug4jsgUxjLxTkRgHg6-68">
          <mxGeometry relative="1" as="geometry" />
        </mxCell>
        <mxCell id="G9ug4jsgUxjLxTkRgHg6-20" value="" style="rounded=0;whiteSpace=wrap;html=1;fillColor=#d5e8d4;strokeColor=#82b366;" vertex="1" parent="G9ug4jsgUxjLxTkRgHg6-1">
          <mxGeometry x="335" y="394" width="10" height="60" as="geometry" />
        </mxCell>
        <mxCell id="G9ug4jsgUxjLxTkRgHg6-21" value="&lt;b&gt;`bb&quot;r&quot;_cc&quot;i&quot;`&lt;/b&gt;" style="text;html=1;strokeColor=none;fillColor=none;align=center;verticalAlign=middle;whiteSpace=wrap;rounded=0;" vertex="1" parent="G9ug4jsgUxjLxTkRgHg6-1">
          <mxGeometry x="335" y="445" width="40" height="20" as="geometry" />
        </mxCell>
        <mxCell id="G9ug4jsgUxjLxTkRgHg6-22" value="" style="rounded=0;whiteSpace=wrap;html=1;fillColor=#d5e8d4;strokeColor=#82b366;" vertex="1" parent="G9ug4jsgUxjLxTkRgHg6-1">
          <mxGeometry x="612.5" y="401" width="10" height="60" as="geometry" />
        </mxCell>
        <mxCell id="G9ug4jsgUxjLxTkRgHg6-23" value="" style="edgeStyle=orthogonalEdgeStyle;rounded=0;orthogonalLoop=1;jettySize=auto;html=1;strokeWidth=2;" edge="1" parent="G9ug4jsgUxjLxTkRgHg6-1" source="G9ug4jsgUxjLxTkRgHg6-24">
          <mxGeometry relative="1" as="geometry">
            <mxPoint x="370" y="130" as="targetPoint" />
            <Array as="points">
              <mxPoint x="370" y="130" />
              <mxPoint x="370" y="130" />
            </Array>
          </mxGeometry>
        </mxCell>
        <mxCell id="G9ug4jsgUxjLxTkRgHg6-24" value="Phase&amp;nbsp;&lt;i&gt;&amp;nbsp;1&lt;/i&gt;" style="whiteSpace=wrap;html=1;rounded=1;fillColor=#dae8fc;strokeColor=#6c8ebf;" vertex="1" parent="G9ug4jsgUxjLxTkRgHg6-1">
          <mxGeometry x="225" y="110" width="120" height="40" as="geometry" />
        </mxCell>
        <mxCell id="G9ug4jsgUxjLxTkRgHg6-25" value="" style="edgeStyle=orthogonalEdgeStyle;rounded=0;orthogonalLoop=1;jettySize=auto;html=1;strokeWidth=2;" edge="1" parent="G9ug4jsgUxjLxTkRgHg6-1" source="G9ug4jsgUxjLxTkRgHg6-26">
          <mxGeometry relative="1" as="geometry">
            <mxPoint x="590" y="130" as="targetPoint" />
          </mxGeometry>
        </mxCell>
        <mxCell id="G9ug4jsgUxjLxTkRgHg6-26" value="Phase&amp;nbsp;&lt;i&gt;i&lt;/i&gt;" style="whiteSpace=wrap;html=1;rounded=1;fillColor=#dae8fc;strokeColor=#6c8ebf;" vertex="1" parent="G9ug4jsgUxjLxTkRgHg6-1">
          <mxGeometry x="450" y="110" width="120" height="40" as="geometry" />
        </mxCell>
        <mxCell id="G9ug4jsgUxjLxTkRgHg6-27" value="&lt;b&gt;...&lt;/b&gt;" style="edgeStyle=orthogonalEdgeStyle;rounded=0;orthogonalLoop=1;jettySize=auto;html=1;strokeWidth=2;" edge="1" parent="G9ug4jsgUxjLxTkRgHg6-1">
          <mxGeometry x="-1" y="-20" relative="1" as="geometry">
            <mxPoint x="400" y="129.5" as="sourcePoint" />
            <mxPoint x="415" y="129.5" as="targetPoint" />
            <Array as="points">
              <mxPoint x="415" y="129.5" />
              <mxPoint x="415" y="129.5" />
            </Array>
            <mxPoint x="-20" y="-20" as="offset" />
          </mxGeometry>
        </mxCell>
        <mxCell id="G9ug4jsgUxjLxTkRgHg6-28" value="" style="edgeStyle=orthogonalEdgeStyle;rounded=0;orthogonalLoop=1;jettySize=auto;html=1;strokeWidth=2;" edge="1" parent="G9ug4jsgUxjLxTkRgHg6-1" source="G9ug4jsgUxjLxTkRgHg6-29" target="G9ug4jsgUxjLxTkRgHg6-26">
          <mxGeometry relative="1" as="geometry" />
        </mxCell>
        <mxCell id="G9ug4jsgUxjLxTkRgHg6-29" value="" style="rounded=0;whiteSpace=wrap;html=1;fillColor=#d5e8d4;strokeColor=#82b366;" vertex="1" parent="G9ug4jsgUxjLxTkRgHg6-1">
          <mxGeometry x="415" y="100" width="10" height="60" as="geometry" />
        </mxCell>
        <mxCell id="G9ug4jsgUxjLxTkRgHg6-30" value="&lt;b&gt;`bb&quot;x&quot;_cc&quot;i-1&quot;`&lt;/b&gt;" style="text;html=1;strokeColor=none;fillColor=none;align=center;verticalAlign=middle;whiteSpace=wrap;rounded=0;" vertex="1" parent="G9ug4jsgUxjLxTkRgHg6-1">
          <mxGeometry x="400" y="160" width="40" height="20" as="geometry" />
        </mxCell>
        <mxCell id="G9ug4jsgUxjLxTkRgHg6-31" value="" style="edgeStyle=orthogonalEdgeStyle;rounded=0;orthogonalLoop=1;jettySize=auto;html=1;strokeWidth=2;" edge="1" parent="G9ug4jsgUxjLxTkRgHg6-1" source="G9ug4jsgUxjLxTkRgHg6-32" target="G9ug4jsgUxjLxTkRgHg6-38">
          <mxGeometry relative="1" as="geometry" />
        </mxCell>
        <mxCell id="G9ug4jsgUxjLxTkRgHg6-32" value="Phase&amp;nbsp;&lt;i&gt;&amp;nbsp;p&lt;/i&gt;" style="whiteSpace=wrap;html=1;rounded=1;fillColor=#dae8fc;strokeColor=#6c8ebf;" vertex="1" parent="G9ug4jsgUxjLxTkRgHg6-1">
          <mxGeometry x="680" y="110" width="120" height="40" as="geometry" />
        </mxCell>
        <mxCell id="G9ug4jsgUxjLxTkRgHg6-33" value="&lt;b&gt;...&lt;/b&gt;" style="edgeStyle=orthogonalEdgeStyle;rounded=0;orthogonalLoop=1;jettySize=auto;html=1;strokeWidth=2;" edge="1" parent="G9ug4jsgUxjLxTkRgHg6-1">
          <mxGeometry x="-1" y="-20" relative="1" as="geometry">
            <mxPoint x="630" y="129.5" as="sourcePoint" />
            <mxPoint x="645" y="129.5" as="targetPoint" />
            <Array as="points">
              <mxPoint x="645" y="129.5" />
              <mxPoint x="645" y="129.5" />
            </Array>
            <mxPoint x="-20" y="-20" as="offset" />
          </mxGeometry>
        </mxCell>
        <mxCell id="G9ug4jsgUxjLxTkRgHg6-34" value="" style="edgeStyle=orthogonalEdgeStyle;rounded=0;orthogonalLoop=1;jettySize=auto;html=1;strokeWidth=2;" edge="1" parent="G9ug4jsgUxjLxTkRgHg6-1" source="G9ug4jsgUxjLxTkRgHg6-35" target="G9ug4jsgUxjLxTkRgHg6-32">
          <mxGeometry relative="1" as="geometry" />
        </mxCell>
        <mxCell id="G9ug4jsgUxjLxTkRgHg6-35" value="" style="rounded=0;whiteSpace=wrap;html=1;fillColor=#d5e8d4;strokeColor=#82b366;" vertex="1" parent="G9ug4jsgUxjLxTkRgHg6-1">
          <mxGeometry x="645" y="100" width="10" height="60" as="geometry" />
        </mxCell>
        <mxCell id="G9ug4jsgUxjLxTkRgHg6-36" value="&lt;b&gt;`bb&quot;x&quot;_cc&quot;p-1&quot;`&lt;/b&gt;" style="text;html=1;strokeColor=none;fillColor=none;align=center;verticalAlign=middle;whiteSpace=wrap;rounded=0;" vertex="1" parent="G9ug4jsgUxjLxTkRgHg6-1">
          <mxGeometry x="630" y="160" width="40" height="20" as="geometry" />
        </mxCell>
        <mxCell id="G9ug4jsgUxjLxTkRgHg6-37" value="" style="edgeStyle=orthogonalEdgeStyle;rounded=0;orthogonalLoop=1;jettySize=auto;html=1;strokeWidth=2;" edge="1" parent="G9ug4jsgUxjLxTkRgHg6-1">
          <mxGeometry x="-1" y="-20" relative="1" as="geometry">
            <mxPoint x="820" y="129.5" as="sourcePoint" />
            <mxPoint x="835" y="129.5" as="targetPoint" />
            <Array as="points">
              <mxPoint x="835" y="129.5" />
              <mxPoint x="835" y="129.5" />
            </Array>
            <mxPoint x="-20" y="-20" as="offset" />
          </mxGeometry>
        </mxCell>
        <mxCell id="G9ug4jsgUxjLxTkRgHg6-38" value="" style="rounded=0;whiteSpace=wrap;html=1;" vertex="1" parent="G9ug4jsgUxjLxTkRgHg6-1">
          <mxGeometry x="835" y="100" width="10" height="60" as="geometry" />
        </mxCell>
        <mxCell id="G9ug4jsgUxjLxTkRgHg6-39" value="&lt;b&gt;`bb&quot;x&quot;_cc&quot;p&quot;`&lt;/b&gt;" style="text;html=1;strokeColor=none;fillColor=none;align=center;verticalAlign=middle;whiteSpace=wrap;rounded=0;" vertex="1" parent="G9ug4jsgUxjLxTkRgHg6-1">
          <mxGeometry x="820" y="160" width="40" height="20" as="geometry" />
        </mxCell>
        <mxCell id="G9ug4jsgUxjLxTkRgHg6-40" value="&lt;b&gt;`bb&quot;x&quot;`&lt;/b&gt;&lt;b&gt;&lt;br&gt;&lt;/b&gt;" style="text;html=1;strokeColor=none;fillColor=none;align=center;verticalAlign=middle;whiteSpace=wrap;rounded=0;" vertex="1" parent="G9ug4jsgUxjLxTkRgHg6-1">
          <mxGeometry x="-100" y="160" width="40" height="20" as="geometry" />
        </mxCell>
        <mxCell id="G9ug4jsgUxjLxTkRgHg6-41" value="&lt;b&gt;`bb&quot;s&quot;`&lt;/b&gt;" style="text;html=1;strokeColor=none;fillColor=none;align=center;verticalAlign=middle;whiteSpace=wrap;rounded=0;" vertex="1" parent="G9ug4jsgUxjLxTkRgHg6-1">
          <mxGeometry x="-5" y="160" width="40" height="20" as="geometry" />
        </mxCell>
        <mxCell id="G9ug4jsgUxjLxTkRgHg6-42" value="&lt;b&gt;`bb&quot;x&quot;_cc&quot;0&quot;`&lt;/b&gt;" style="text;html=1;strokeColor=none;fillColor=none;align=center;verticalAlign=middle;whiteSpace=wrap;rounded=0;" vertex="1" parent="G9ug4jsgUxjLxTkRgHg6-1">
          <mxGeometry x="185" y="160" width="40" height="20" as="geometry" />
        </mxCell>
        <mxCell id="G9ug4jsgUxjLxTkRgHg6-43" value="" style="edgeStyle=orthogonalEdgeStyle;rounded=0;orthogonalLoop=1;jettySize=auto;html=1;strokeWidth=2;entryX=0;entryY=0.5;entryDx=0;entryDy=0;" edge="1" parent="G9ug4jsgUxjLxTkRgHg6-1" source="G9ug4jsgUxjLxTkRgHg6-44" target="G9ug4jsgUxjLxTkRgHg6-13">
          <mxGeometry relative="1" as="geometry" />
        </mxCell>
        <mxCell id="G9ug4jsgUxjLxTkRgHg6-44" value="S" style="whiteSpace=wrap;html=1;aspect=fixed;rounded=1;fillColor=#ffe6cc;strokeColor=#d79b00;" vertex="1" parent="G9ug4jsgUxjLxTkRgHg6-1">
          <mxGeometry x="-50" y="110" width="40" height="40" as="geometry" />
        </mxCell>
        <mxCell id="G9ug4jsgUxjLxTkRgHg6-45" value="" style="edgeStyle=orthogonalEdgeStyle;rounded=0;orthogonalLoop=1;jettySize=auto;html=1;strokeWidth=2;" edge="1" parent="G9ug4jsgUxjLxTkRgHg6-1" source="G9ug4jsgUxjLxTkRgHg6-46">
          <mxGeometry relative="1" as="geometry">
            <mxPoint x="100" y="130" as="targetPoint" />
          </mxGeometry>
        </mxCell>
        <mxCell id="G9ug4jsgUxjLxTkRgHg6-46" value="S&lt;sup&gt;-1&lt;/sup&gt;" style="whiteSpace=wrap;html=1;aspect=fixed;rounded=1;fillColor=#ffe6cc;strokeColor=#d79b00;" vertex="1" parent="G9ug4jsgUxjLxTkRgHg6-1">
          <mxGeometry x="35" y="110" width="40" height="40" as="geometry" />
        </mxCell>
        <mxCell id="G9ug4jsgUxjLxTkRgHg6-47" value="&lt;b&gt;CS sampling&lt;/b&gt;" style="text;html=1;strokeColor=none;fillColor=none;align=center;verticalAlign=middle;whiteSpace=wrap;rounded=0;" vertex="1" parent="G9ug4jsgUxjLxTkRgHg6-1">
          <mxGeometry x="-50" y="50" width="40" height="20" as="geometry" />
        </mxCell>
        <mxCell id="G9ug4jsgUxjLxTkRgHg6-48" value="&lt;b&gt;Initial recovery&lt;/b&gt;" style="text;html=1;strokeColor=none;fillColor=none;align=center;verticalAlign=middle;whiteSpace=wrap;rounded=0;" vertex="1" parent="G9ug4jsgUxjLxTkRgHg6-1">
          <mxGeometry x="35" y="50" width="40" height="20" as="geometry" />
        </mxCell>
        <mxCell id="G9ug4jsgUxjLxTkRgHg6-49" value="&lt;b&gt;Deep recovery&lt;/b&gt;" style="text;html=1;strokeColor=none;fillColor=none;align=center;verticalAlign=middle;whiteSpace=wrap;rounded=0;" vertex="1" parent="G9ug4jsgUxjLxTkRgHg6-1">
          <mxGeometry x="490" y="50" width="40" height="20" as="geometry" />
        </mxCell>
        <mxCell id="G9ug4jsgUxjLxTkRgHg6-50" value="" style="curved=1;endArrow=classic;html=1;strokeWidth=2;exitX=0.5;exitY=1;exitDx=0;exitDy=0;entryX=0.5;entryY=0;entryDx=0;entryDy=0;dashed=1;" edge="1" parent="G9ug4jsgUxjLxTkRgHg6-1" source="G9ug4jsgUxjLxTkRgHg6-26" target="G9ug4jsgUxjLxTkRgHg6-4">
          <mxGeometry width="50" height="50" relative="1" as="geometry">
            <mxPoint x="520" y="210" as="sourcePoint" />
            <mxPoint x="570" y="160" as="targetPoint" />
            <Array as="points">
              <mxPoint x="500" y="180" />
              <mxPoint x="530" y="330" />
              <mxPoint x="400" y="320" />
            </Array>
          </mxGeometry>
        </mxCell>
        <mxCell id="G9ug4jsgUxjLxTkRgHg6-51" value="" style="endArrow=none;dashed=1;html=1;dashPattern=1 3;strokeWidth=2;" edge="1" parent="G9ug4jsgUxjLxTkRgHg6-1">
          <mxGeometry width="50" height="50" relative="1" as="geometry">
            <mxPoint x="14.289999999999964" y="70" as="sourcePoint" />
            <mxPoint x="14" y="40" as="targetPoint" />
          </mxGeometry>
        </mxCell>
        <mxCell id="G9ug4jsgUxjLxTkRgHg6-52" value="" style="endArrow=none;dashed=1;html=1;dashPattern=1 3;strokeWidth=2;" edge="1" parent="G9ug4jsgUxjLxTkRgHg6-1">
          <mxGeometry width="50" height="50" relative="1" as="geometry">
            <mxPoint x="204.57999999999993" y="70" as="sourcePoint" />
            <mxPoint x="204.28999999999996" y="40" as="targetPoint" />
          </mxGeometry>
        </mxCell>
        <mxCell id="G9ug4jsgUxjLxTkRgHg6-53" value="" style="endArrow=none;dashed=1;html=1;dashPattern=1 3;strokeWidth=2;" edge="1" parent="G9ug4jsgUxjLxTkRgHg6-1">
          <mxGeometry width="50" height="50" relative="1" as="geometry">
            <mxPoint x="839.6999999999998" y="75" as="sourcePoint" />
            <mxPoint x="839.4099999999999" y="45" as="targetPoint" />
          </mxGeometry>
        </mxCell>
        <mxCell id="G9ug4jsgUxjLxTkRgHg6-54" value="&lt;b&gt;Phase&amp;nbsp; &lt;i&gt;i&lt;/i&gt;&lt;/b&gt;" style="text;html=1;strokeColor=none;fillColor=none;align=center;verticalAlign=middle;whiteSpace=wrap;rounded=0;" vertex="1" parent="G9ug4jsgUxjLxTkRgHg6-1">
          <mxGeometry x="386.25" y="601" width="65" height="20" as="geometry" />
        </mxCell>
        <mxCell id="G9ug4jsgUxjLxTkRgHg6-55" value="1" style="text;html=1;strokeColor=none;fillColor=none;align=center;verticalAlign=middle;whiteSpace=wrap;rounded=0;" vertex="1" parent="G9ug4jsgUxjLxTkRgHg6-1">
          <mxGeometry x="185" y="80" width="40" height="20" as="geometry" />
        </mxCell>
        <mxCell id="G9ug4jsgUxjLxTkRgHg6-56" value="1" style="text;html=1;strokeColor=none;fillColor=none;align=center;verticalAlign=middle;whiteSpace=wrap;rounded=0;" vertex="1" parent="G9ug4jsgUxjLxTkRgHg6-1">
          <mxGeometry x="400" y="80" width="40" height="20" as="geometry" />
        </mxCell>
        <mxCell id="G9ug4jsgUxjLxTkRgHg6-57" value="1" style="text;html=1;strokeColor=none;fillColor=none;align=center;verticalAlign=middle;whiteSpace=wrap;rounded=0;" vertex="1" parent="G9ug4jsgUxjLxTkRgHg6-1">
          <mxGeometry x="630" y="80" width="40" height="20" as="geometry" />
        </mxCell>
        <mxCell id="G9ug4jsgUxjLxTkRgHg6-58" value="1" style="text;html=1;strokeColor=none;fillColor=none;align=center;verticalAlign=middle;whiteSpace=wrap;rounded=0;" vertex="1" parent="G9ug4jsgUxjLxTkRgHg6-1">
          <mxGeometry x="215" y="374" width="40" height="20" as="geometry" />
        </mxCell>
        <mxCell id="G9ug4jsgUxjLxTkRgHg6-59" value="1" style="text;html=1;strokeColor=none;fillColor=none;align=center;verticalAlign=middle;whiteSpace=wrap;rounded=0;" vertex="1" parent="G9ug4jsgUxjLxTkRgHg6-1">
          <mxGeometry x="597.5" y="381" width="40" height="20" as="geometry" />
        </mxCell>
        <mxCell id="G9ug4jsgUxjLxTkRgHg6-60" value="&lt;span style=&quot;color: rgb(0 , 0 , 0) ; font-family: &amp;#34;helvetica&amp;#34; ; font-size: 12px ; font-style: normal ; font-weight: 400 ; letter-spacing: normal ; text-align: center ; text-indent: 0px ; text-transform: none ; word-spacing: 0px ; background-color: rgb(248 , 249 , 250) ; display: inline ; float: none&quot;&gt;31&lt;/span&gt;" style="text;whiteSpace=wrap;html=1;" vertex="1" parent="G9ug4jsgUxjLxTkRgHg6-1">
          <mxGeometry x="197.5" y="180" width="10" height="30" as="geometry" />
        </mxCell>
        <mxCell id="G9ug4jsgUxjLxTkRgHg6-61" value="&lt;b&gt;`bb&quot;z&quot;_cc&quot;0&quot;`&lt;/b&gt;" style="text;html=1;strokeColor=none;fillColor=none;align=center;verticalAlign=middle;whiteSpace=wrap;rounded=0;" vertex="1" parent="G9ug4jsgUxjLxTkRgHg6-1">
          <mxGeometry x="187.5" y="264" width="40" height="20" as="geometry" />
        </mxCell>
        <mxCell id="G9ug4jsgUxjLxTkRgHg6-62" value="FLOW" style="whiteSpace=wrap;html=1;aspect=fixed;rounded=1;fillColor=#ffe6cc;strokeColor=#d79b00;" vertex="1" parent="G9ug4jsgUxjLxTkRgHg6-1">
          <mxGeometry x="443.75" y="467" width="46.25" height="46.25" as="geometry" />
        </mxCell>
        <mxCell id="G9ug4jsgUxjLxTkRgHg6-66" value="" style="endArrow=classic;html=1;strokeWidth=2;exitX=1;exitY=0.5;exitDx=0;exitDy=0;entryX=0;entryY=0.5;entryDx=0;entryDy=0;" edge="1" parent="G9ug4jsgUxjLxTkRgHg6-1" target="G9ug4jsgUxjLxTkRgHg6-68">
          <mxGeometry width="50" height="50" relative="1" as="geometry">
            <mxPoint x="246" y="523" as="sourcePoint" />
            <mxPoint x="320" y="531.5" as="targetPoint" />
            <Array as="points">
              <mxPoint x="280" y="489" />
            </Array>
          </mxGeometry>
        </mxCell>
        <mxCell id="G9ug4jsgUxjLxTkRgHg6-67" value="" style="edgeStyle=orthogonalEdgeStyle;rounded=0;orthogonalLoop=1;jettySize=auto;html=1;" edge="1" parent="G9ug4jsgUxjLxTkRgHg6-1" source="G9ug4jsgUxjLxTkRgHg6-68">
          <mxGeometry relative="1" as="geometry">
            <mxPoint x="377.5" y="489.0588235294118" as="targetPoint" />
          </mxGeometry>
        </mxCell>
        <mxCell id="G9ug4jsgUxjLxTkRgHg6-68" value="+" style="ellipse;whiteSpace=wrap;html=1;aspect=fixed;dashed=1;" vertex="1" parent="G9ug4jsgUxjLxTkRgHg6-1">
          <mxGeometry x="325" y="474" width="30" height="30" as="geometry" />
        </mxCell>
        <mxCell id="G9ug4jsgUxjLxTkRgHg6-69" value="&lt;span style=&quot;color: rgb(0 , 0 , 0) ; font-family: &amp;#34;helvetica&amp;#34; ; font-size: 12px ; font-style: normal ; font-weight: 400 ; letter-spacing: normal ; text-align: center ; text-indent: 0px ; text-transform: none ; word-spacing: 0px ; background-color: rgb(248 , 249 , 250) ; display: inline ; float: none&quot;&gt;32&lt;/span&gt;" style="text;whiteSpace=wrap;html=1;" vertex="1" parent="G9ug4jsgUxjLxTkRgHg6-1">
          <mxGeometry x="380.5" y="437" width="10" height="30" as="geometry" />
        </mxCell>
        <mxCell id="G9ug4jsgUxjLxTkRgHg6-71" value="&lt;b&gt;`bb&quot;c&quot;_cc&quot;i-1&quot;`&lt;/b&gt;" style="text;html=1;strokeColor=none;fillColor=none;align=center;verticalAlign=middle;whiteSpace=wrap;rounded=0;" vertex="1" parent="G9ug4jsgUxjLxTkRgHg6-1">
          <mxGeometry x="367.5" y="521" width="40" height="20" as="geometry" />
        </mxCell>
        <mxCell id="G9ug4jsgUxjLxTkRgHg6-73" value="" style="endArrow=classic;html=1;strokeWidth=2;entryX=0;entryY=0.5;entryDx=0;entryDy=0;exitX=1;exitY=0.5;exitDx=0;exitDy=0;" edge="1" parent="G9ug4jsgUxjLxTkRgHg6-1" source="G9ug4jsgUxjLxTkRgHg6-106" target="G9ug4jsgUxjLxTkRgHg6-22">
          <mxGeometry width="50" height="50" relative="1" as="geometry">
            <mxPoint x="650.5" y="334" as="sourcePoint" />
            <mxPoint x="725" y="519" as="targetPoint" />
            <Array as="points">
              <mxPoint x="577.5" y="491" />
              <mxPoint x="587.5" y="431" />
            </Array>
          </mxGeometry>
        </mxCell>
        <mxCell id="G9ug4jsgUxjLxTkRgHg6-74" value="Split" style="edgeLabel;html=1;align=center;verticalAlign=middle;resizable=0;points=[];" vertex="1" connectable="0" parent="G9ug4jsgUxjLxTkRgHg6-73">
          <mxGeometry x="-0.5811" y="-1" relative="1" as="geometry">
            <mxPoint x="-9.709999999999999" y="-14" as="offset" />
          </mxGeometry>
        </mxCell>
        <mxCell id="G9ug4jsgUxjLxTkRgHg6-75" value="" style="endArrow=classic;html=1;strokeWidth=2;" edge="1" parent="G9ug4jsgUxjLxTkRgHg6-1">
          <mxGeometry width="50" height="50" relative="1" as="geometry">
            <mxPoint x="547.5" y="491" as="sourcePoint" />
            <mxPoint x="607.5" y="554" as="targetPoint" />
            <Array as="points">
              <mxPoint x="577.5" y="491" />
              <mxPoint x="587.5" y="554" />
            </Array>
          </mxGeometry>
        </mxCell>
        <mxCell id="G9ug4jsgUxjLxTkRgHg6-76" value="&lt;b&gt;`bb&quot;x&quot;_cc&quot;i&quot;`&lt;/b&gt;" style="text;html=1;strokeColor=none;fillColor=none;align=center;verticalAlign=middle;whiteSpace=wrap;rounded=0;" vertex="1" parent="G9ug4jsgUxjLxTkRgHg6-1">
          <mxGeometry x="602.5" y="465" width="40" height="20" as="geometry" />
        </mxCell>
        <mxCell id="G9ug4jsgUxjLxTkRgHg6-77" value="1" style="text;html=1;strokeColor=none;fillColor=none;align=center;verticalAlign=middle;whiteSpace=wrap;rounded=0;" vertex="1" parent="G9ug4jsgUxjLxTkRgHg6-1">
          <mxGeometry x="90" y="80" width="40" height="20" as="geometry" />
        </mxCell>
        <mxCell id="G9ug4jsgUxjLxTkRgHg6-78" value="" style="rounded=0;whiteSpace=wrap;html=1;fillColor=#d5e8d4;strokeColor=#82b366;" vertex="1" parent="G9ug4jsgUxjLxTkRgHg6-1">
          <mxGeometry x="100" y="100" width="10" height="60" as="geometry" />
        </mxCell>
        <mxCell id="G9ug4jsgUxjLxTkRgHg6-79" value="ResNet" style="whiteSpace=wrap;html=1;rounded=1;fillColor=#1ba1e2;strokeColor=#006EAF;fontColor=#ffffff;" vertex="1" parent="G9ug4jsgUxjLxTkRgHg6-1">
          <mxGeometry x="126" y="214" width="45" height="40" as="geometry" />
        </mxCell>
        <mxCell id="G9ug4jsgUxjLxTkRgHg6-80" value="" style="edgeStyle=orthogonalEdgeStyle;rounded=0;orthogonalLoop=1;jettySize=auto;html=1;strokeWidth=2;" edge="1" parent="G9ug4jsgUxjLxTkRgHg6-1">
          <mxGeometry relative="1" as="geometry">
            <mxPoint x="196" y="233.5" as="targetPoint" />
            <mxPoint x="171" y="233.5" as="sourcePoint" />
          </mxGeometry>
        </mxCell>
        <mxCell id="G9ug4jsgUxjLxTkRgHg6-81" value="" style="endArrow=classic;html=1;strokeWidth=2;exitX=1;exitY=0.25;exitDx=0;exitDy=0;entryX=0;entryY=0.5;entryDx=0;entryDy=0;" edge="1" parent="G9ug4jsgUxjLxTkRgHg6-1" target="G9ug4jsgUxjLxTkRgHg6-79">
          <mxGeometry width="50" height="50" relative="1" as="geometry">
            <mxPoint x="111" y="130" as="sourcePoint" />
            <mxPoint x="171" y="150" as="targetPoint" />
            <Array as="points">
              <mxPoint x="126" y="130" />
              <mxPoint x="120" y="180" />
              <mxPoint x="111" y="234" />
            </Array>
          </mxGeometry>
        </mxCell>
        <mxCell id="G9ug4jsgUxjLxTkRgHg6-82" value="" style="edgeStyle=orthogonalEdgeStyle;rounded=0;orthogonalLoop=1;jettySize=auto;html=1;strokeWidth=2;entryX=0;entryY=0.5;entryDx=0;entryDy=0;exitX=1;exitY=0.5;exitDx=0;exitDy=0;" edge="1" parent="G9ug4jsgUxjLxTkRgHg6-1" source="G9ug4jsgUxjLxTkRgHg6-78" target="G9ug4jsgUxjLxTkRgHg6-15">
          <mxGeometry relative="1" as="geometry">
            <mxPoint x="155" y="129.5" as="targetPoint" />
            <mxPoint x="130" y="129.5" as="sourcePoint" />
          </mxGeometry>
        </mxCell>
        <mxCell id="G9ug4jsgUxjLxTkRgHg6-83" value="Conv" style="whiteSpace=wrap;html=1;aspect=fixed;rounded=1;fillColor=#ffe6cc;strokeColor=#d79b00;" vertex="1" parent="G9ug4jsgUxjLxTkRgHg6-1">
          <mxGeometry x="-50" y="389" width="40" height="40" as="geometry" />
        </mxCell>
        <mxCell id="G9ug4jsgUxjLxTkRgHg6-84" value="" style="edgeStyle=orthogonalEdgeStyle;rounded=0;orthogonalLoop=1;jettySize=auto;html=1;entryX=0;entryY=0.5;entryDx=0;entryDy=0;" edge="1" parent="G9ug4jsgUxjLxTkRgHg6-1" source="G9ug4jsgUxjLxTkRgHg6-85" target="G9ug4jsgUxjLxTkRgHg6-115">
          <mxGeometry relative="1" as="geometry" />
        </mxCell>
        <mxCell id="G9ug4jsgUxjLxTkRgHg6-85" value="Conv" style="whiteSpace=wrap;html=1;aspect=fixed;rounded=1;fillColor=#ffe6cc;strokeColor=#d79b00;" vertex="1" parent="G9ug4jsgUxjLxTkRgHg6-1">
          <mxGeometry x="62" y="389" width="40" height="40" as="geometry" />
        </mxCell>
        <mxCell id="G9ug4jsgUxjLxTkRgHg6-86" value="Relu" style="whiteSpace=wrap;html=1;aspect=fixed;rounded=1;fillColor=#ffe6cc;strokeColor=#d79b00;" vertex="1" parent="G9ug4jsgUxjLxTkRgHg6-1">
          <mxGeometry x="6" y="389" width="40" height="40" as="geometry" />
        </mxCell>
        <mxCell id="G9ug4jsgUxjLxTkRgHg6-87" value="" style="curved=1;endArrow=classic;html=1;strokeWidth=2;exitX=0.5;exitY=1;exitDx=0;exitDy=0;dashed=1;" edge="1" parent="G9ug4jsgUxjLxTkRgHg6-1">
          <mxGeometry width="50" height="50" relative="1" as="geometry">
            <mxPoint x="140" y="255.9999999999999" as="sourcePoint" />
            <mxPoint x="30" y="370" as="targetPoint" />
            <Array as="points">
              <mxPoint x="130" y="286" />
              <mxPoint x="40" y="310" />
            </Array>
          </mxGeometry>
        </mxCell>
        <mxCell id="G9ug4jsgUxjLxTkRgHg6-88" value="" style="edgeStyle=orthogonalEdgeStyle;rounded=0;orthogonalLoop=1;jettySize=auto;html=1;strokeWidth=2;entryX=0;entryY=0.5;entryDx=0;entryDy=0;" edge="1" parent="G9ug4jsgUxjLxTkRgHg6-1">
          <mxGeometry relative="1" as="geometry">
            <mxPoint x="-10" y="407.8200000000001" as="sourcePoint" />
            <mxPoint x="10" y="407.8199999999999" as="targetPoint" />
          </mxGeometry>
        </mxCell>
        <mxCell id="G9ug4jsgUxjLxTkRgHg6-89" value="" style="edgeStyle=orthogonalEdgeStyle;rounded=0;orthogonalLoop=1;jettySize=auto;html=1;strokeWidth=2;entryX=0;entryY=0.5;entryDx=0;entryDy=0;" edge="1" parent="G9ug4jsgUxjLxTkRgHg6-1">
          <mxGeometry relative="1" as="geometry">
            <mxPoint x="45.99999999999977" y="409.00000000000017" as="sourcePoint" />
            <mxPoint x="65.99999999999977" y="408.99999999999994" as="targetPoint" />
          </mxGeometry>
        </mxCell>
        <mxCell id="G9ug4jsgUxjLxTkRgHg6-90" value="" style="edgeStyle=orthogonalEdgeStyle;rounded=0;orthogonalLoop=1;jettySize=auto;html=1;entryX=0;entryY=0.5;entryDx=0;entryDy=0;" edge="1" parent="G9ug4jsgUxjLxTkRgHg6-1" source="G9ug4jsgUxjLxTkRgHg6-91" target="G9ug4jsgUxjLxTkRgHg6-83">
          <mxGeometry relative="1" as="geometry">
            <mxPoint x="-74" y="409" as="targetPoint" />
          </mxGeometry>
        </mxCell>
        <mxCell id="G9ug4jsgUxjLxTkRgHg6-91" value="" style="rounded=0;whiteSpace=wrap;html=1;fillColor=#d5e8d4;strokeColor=#82b366;" vertex="1" parent="G9ug4jsgUxjLxTkRgHg6-1">
          <mxGeometry x="-99" y="379" width="10" height="60" as="geometry" />
        </mxCell>
        <mxCell id="G9ug4jsgUxjLxTkRgHg6-92" value="&lt;b&gt;`bb&quot;x&quot;_cc&quot;0&quot;`&lt;/b&gt;" style="text;html=1;strokeColor=none;fillColor=none;align=center;verticalAlign=middle;whiteSpace=wrap;rounded=0;" vertex="1" parent="G9ug4jsgUxjLxTkRgHg6-1">
          <mxGeometry x="-114" y="441" width="40" height="20" as="geometry" />
        </mxCell>
        <mxCell id="G9ug4jsgUxjLxTkRgHg6-93" value="1" style="text;html=1;strokeColor=none;fillColor=none;align=center;verticalAlign=middle;whiteSpace=wrap;rounded=0;" vertex="1" parent="G9ug4jsgUxjLxTkRgHg6-1">
          <mxGeometry x="-114" y="357" width="40" height="20" as="geometry" />
        </mxCell>
        <mxCell id="G9ug4jsgUxjLxTkRgHg6-94" value="" style="rounded=0;whiteSpace=wrap;html=1;strokeColor=#b46504;fillColor=#FFF2CC;" vertex="1" parent="G9ug4jsgUxjLxTkRgHg6-1">
          <mxGeometry x="200" y="200" width="10" height="60" as="geometry" />
        </mxCell>
        <mxCell id="G9ug4jsgUxjLxTkRgHg6-95" value="&lt;span style=&quot;color: rgb(0 , 0 , 0) ; font-family: &amp;#34;helvetica&amp;#34; ; font-size: 12px ; font-style: normal ; font-weight: 400 ; letter-spacing: normal ; text-align: center ; text-indent: 0px ; text-transform: none ; word-spacing: 0px ; background-color: rgb(248 , 249 , 250) ; display: inline ; float: none&quot;&gt;31&lt;/span&gt;" style="text;whiteSpace=wrap;html=1;" vertex="1" parent="G9ug4jsgUxjLxTkRgHg6-1">
          <mxGeometry x="413.75" y="182" width="10" height="30" as="geometry" />
        </mxCell>
        <mxCell id="G9ug4jsgUxjLxTkRgHg6-96" value="&lt;b&gt;`bb&quot;z&quot;_cc&quot;i-1&quot;`&lt;/b&gt;" style="text;html=1;strokeColor=none;fillColor=none;align=center;verticalAlign=middle;whiteSpace=wrap;rounded=0;" vertex="1" parent="G9ug4jsgUxjLxTkRgHg6-1">
          <mxGeometry x="403.75" y="266" width="40" height="20" as="geometry" />
        </mxCell>
        <mxCell id="G9ug4jsgUxjLxTkRgHg6-97" value="" style="rounded=0;whiteSpace=wrap;html=1;strokeColor=#b46504;fillColor=#FFF2CC;" vertex="1" parent="G9ug4jsgUxjLxTkRgHg6-1">
          <mxGeometry x="416.25" y="202" width="10" height="60" as="geometry" />
        </mxCell>
        <mxCell id="G9ug4jsgUxjLxTkRgHg6-98" value="&lt;span style=&quot;color: rgb(0 , 0 , 0) ; font-family: &amp;#34;helvetica&amp;#34; ; font-size: 12px ; font-style: normal ; font-weight: 400 ; letter-spacing: normal ; text-align: center ; text-indent: 0px ; text-transform: none ; word-spacing: 0px ; background-color: rgb(248 , 249 , 250) ; display: inline ; float: none&quot;&gt;31&lt;/span&gt;" style="text;whiteSpace=wrap;html=1;" vertex="1" parent="G9ug4jsgUxjLxTkRgHg6-1">
          <mxGeometry x="642.5" y="182" width="10" height="30" as="geometry" />
        </mxCell>
        <mxCell id="G9ug4jsgUxjLxTkRgHg6-99" value="&lt;b&gt;`bb&quot;z&quot;_cc&quot;p-1&quot;`&lt;/b&gt;" style="text;html=1;strokeColor=none;fillColor=none;align=center;verticalAlign=middle;whiteSpace=wrap;rounded=0;" vertex="1" parent="G9ug4jsgUxjLxTkRgHg6-1">
          <mxGeometry x="632.5" y="266" width="40" height="20" as="geometry" />
        </mxCell>
        <mxCell id="G9ug4jsgUxjLxTkRgHg6-100" value="" style="rounded=0;whiteSpace=wrap;html=1;strokeColor=#b46504;fillColor=#FFF2CC;" vertex="1" parent="G9ug4jsgUxjLxTkRgHg6-1">
          <mxGeometry x="645" y="202" width="10" height="60" as="geometry" />
        </mxCell>
        <mxCell id="G9ug4jsgUxjLxTkRgHg6-101" value="&lt;span style=&quot;color: rgb(0 , 0 , 0) ; font-family: &amp;#34;helvetica&amp;#34; ; font-size: 12px ; font-style: normal ; font-weight: 400 ; letter-spacing: normal ; text-align: center ; text-indent: 0px ; text-transform: none ; word-spacing: 0px ; background-color: rgb(248 , 249 , 250) ; display: inline ; float: none&quot;&gt;31&lt;/span&gt;" style="text;whiteSpace=wrap;html=1;" vertex="1" parent="G9ug4jsgUxjLxTkRgHg6-1">
          <mxGeometry x="225" y="499" width="10" height="30" as="geometry" />
        </mxCell>
        <mxCell id="G9ug4jsgUxjLxTkRgHg6-102" value="&lt;b&gt;`bb&quot;z&quot;_cc&quot;i-1&quot;`&lt;/b&gt;" style="text;html=1;strokeColor=none;fillColor=none;align=center;verticalAlign=middle;whiteSpace=wrap;rounded=0;" vertex="1" parent="G9ug4jsgUxjLxTkRgHg6-1">
          <mxGeometry x="215" y="583" width="40" height="20" as="geometry" />
        </mxCell>
        <mxCell id="G9ug4jsgUxjLxTkRgHg6-103" value="" style="rounded=0;whiteSpace=wrap;html=1;strokeColor=#b46504;fillColor=#FFF2CC;" vertex="1" parent="G9ug4jsgUxjLxTkRgHg6-1">
          <mxGeometry x="227.5" y="519" width="10" height="60" as="geometry" />
        </mxCell>
        <mxCell id="G9ug4jsgUxjLxTkRgHg6-104" value="" style="rounded=0;whiteSpace=wrap;html=1;strokeColor=#b46504;fillColor=#D80073;" vertex="1" parent="G9ug4jsgUxjLxTkRgHg6-1">
          <mxGeometry x="382.5" y="463" width="10" height="60" as="geometry" />
        </mxCell>
        <mxCell id="G9ug4jsgUxjLxTkRgHg6-105" value="&lt;span style=&quot;color: rgb(0 , 0 , 0) ; font-family: &amp;#34;helvetica&amp;#34; ; font-size: 12px ; font-style: normal ; font-weight: 400 ; letter-spacing: normal ; text-align: center ; text-indent: 0px ; text-transform: none ; word-spacing: 0px ; background-color: rgb(248 , 249 , 250) ; display: inline ; float: none&quot;&gt;32&lt;/span&gt;" style="text;whiteSpace=wrap;html=1;" vertex="1" parent="G9ug4jsgUxjLxTkRgHg6-1">
          <mxGeometry x="533" y="435" width="10" height="30" as="geometry" />
        </mxCell>
        <mxCell id="G9ug4jsgUxjLxTkRgHg6-106" value="" style="rounded=0;whiteSpace=wrap;html=1;strokeColor=#b46504;fillColor=#D80073;" vertex="1" parent="G9ug4jsgUxjLxTkRgHg6-1">
          <mxGeometry x="535" y="461" width="10" height="60" as="geometry" />
        </mxCell>
        <mxCell id="G9ug4jsgUxjLxTkRgHg6-107" value="&lt;b&gt;`bb&quot;c&quot;_cc&quot;i&quot;`&lt;/b&gt;" style="text;html=1;strokeColor=none;fillColor=none;align=center;verticalAlign=middle;whiteSpace=wrap;rounded=0;" vertex="1" parent="G9ug4jsgUxjLxTkRgHg6-1">
          <mxGeometry x="520" y="519" width="40" height="20" as="geometry" />
        </mxCell>
        <mxCell id="G9ug4jsgUxjLxTkRgHg6-108" value="&lt;span style=&quot;color: rgb(0 , 0 , 0) ; font-family: &amp;#34;helvetica&amp;#34; ; font-size: 12px ; font-style: normal ; font-weight: 400 ; letter-spacing: normal ; text-align: center ; text-indent: 0px ; text-transform: none ; word-spacing: 0px ; background-color: rgb(248 , 249 , 250) ; display: inline ; float: none&quot;&gt;31&lt;/span&gt;" style="text;whiteSpace=wrap;html=1;" vertex="1" parent="G9ug4jsgUxjLxTkRgHg6-1">
          <mxGeometry x="607.5" y="497" width="10" height="30" as="geometry" />
        </mxCell>
        <mxCell id="G9ug4jsgUxjLxTkRgHg6-109" value="&lt;b&gt;`bb&quot;z&quot;_cc&quot;i&quot;`&lt;/b&gt;" style="text;html=1;strokeColor=none;fillColor=none;align=center;verticalAlign=middle;whiteSpace=wrap;rounded=0;" vertex="1" parent="G9ug4jsgUxjLxTkRgHg6-1">
          <mxGeometry x="597.5" y="581" width="40" height="20" as="geometry" />
        </mxCell>
        <mxCell id="G9ug4jsgUxjLxTkRgHg6-110" value="" style="rounded=0;whiteSpace=wrap;html=1;strokeColor=#b46504;fillColor=#FFF2CC;" vertex="1" parent="G9ug4jsgUxjLxTkRgHg6-1">
          <mxGeometry x="610" y="517" width="10" height="60" as="geometry" />
        </mxCell>
        <mxCell id="G9ug4jsgUxjLxTkRgHg6-111" value="r" style="whiteSpace=wrap;html=1;aspect=fixed;rounded=1;fillColor=#ffe6cc;strokeColor=#d79b00;" vertex="1" parent="G9ug4jsgUxjLxTkRgHg6-1">
          <mxGeometry x="275" y="409" width="40" height="40" as="geometry" />
        </mxCell>
        <mxCell id="G9ug4jsgUxjLxTkRgHg6-112" value="" style="edgeStyle=orthogonalEdgeStyle;rounded=0;orthogonalLoop=1;jettySize=auto;html=1;" edge="1" parent="G9ug4jsgUxjLxTkRgHg6-1">
          <mxGeometry relative="1" as="geometry">
            <mxPoint x="312.499884659303" y="428.40882352941185" as="sourcePoint" />
            <mxPoint x="335" y="428.40882352941185" as="targetPoint" />
          </mxGeometry>
        </mxCell>
        <mxCell id="G9ug4jsgUxjLxTkRgHg6-113" value="1" style="text;html=1;strokeColor=none;fillColor=none;align=center;verticalAlign=middle;whiteSpace=wrap;rounded=0;" vertex="1" parent="G9ug4jsgUxjLxTkRgHg6-1">
          <mxGeometry x="320" y="377" width="40" height="20" as="geometry" />
        </mxCell>
        <mxCell id="G9ug4jsgUxjLxTkRgHg6-114" value="&lt;span style=&quot;color: rgb(0 , 0 , 0) ; font-family: &amp;#34;helvetica&amp;#34; ; font-size: 12px ; font-style: normal ; font-weight: 400 ; letter-spacing: normal ; text-align: center ; text-indent: 0px ; text-transform: none ; word-spacing: 0px ; background-color: rgb(248 , 249 , 250) ; display: inline ; float: none&quot;&gt;31&lt;/span&gt;" style="text;whiteSpace=wrap;html=1;" vertex="1" parent="G9ug4jsgUxjLxTkRgHg6-1">
          <mxGeometry x="143.5" y="357" width="10" height="30" as="geometry" />
        </mxCell>
        <mxCell id="G9ug4jsgUxjLxTkRgHg6-115" value="" style="rounded=0;whiteSpace=wrap;html=1;strokeColor=#b46504;fillColor=#FFF2CC;" vertex="1" parent="G9ug4jsgUxjLxTkRgHg6-1">
          <mxGeometry x="146" y="379" width="10" height="60" as="geometry" />
        </mxCell>
        <mxCell id="G9ug4jsgUxjLxTkRgHg6-116" value="&lt;b&gt;`bb&quot;z&quot;_cc&quot;0&quot;`&lt;/b&gt;" style="text;html=1;strokeColor=none;fillColor=none;align=center;verticalAlign=middle;whiteSpace=wrap;rounded=0;" vertex="1" parent="G9ug4jsgUxjLxTkRgHg6-1">
          <mxGeometry x="131" y="440" width="40" height="20" as="geometry" />
        </mxCell>
        <mxCell id="G9ug4jsgUxjLxTkRgHg6-118" value="" style="edgeStyle=orthogonalEdgeStyle;rounded=0;orthogonalLoop=1;jettySize=auto;html=1;" edge="1" parent="G9ug4jsgUxjLxTkRgHg6-1">
          <mxGeometry relative="1" as="geometry">
            <mxPoint x="395" y="489.63" as="sourcePoint" />
            <mxPoint x="445" y="489.63" as="targetPoint" />
          </mxGeometry>
        </mxCell>
        <mxCell id="G9ug4jsgUxjLxTkRgHg6-119" value="" style="edgeStyle=orthogonalEdgeStyle;rounded=0;orthogonalLoop=1;jettySize=auto;html=1;" edge="1" parent="G9ug4jsgUxjLxTkRgHg6-1">
          <mxGeometry relative="1" as="geometry">
            <mxPoint x="490" y="488.5" as="sourcePoint" />
            <mxPoint x="535" y="488.5" as="targetPoint" />
          </mxGeometry>
        </mxCell>
      </root>
    </mxGraphModel>
  </diagram>
</mxfile>
